<ttFont>
    <TTGlyph name=".notdef" xMin="50" yMin="0" xMax="450" yMax="696">
      <contour>
        <pt x="50" y="696" on="1"/>
        <pt x="450" y="696" on="1"/>
        <pt x="450" y="0" on="1"/>
        <pt x="50" y="0" on="1"/>
      </contour>
      <contour>
        <pt x="399" y="46" on="1"/>
        <pt x="399" y="650" on="1"/>
        <pt x="101" y="650" on="1"/>
        <pt x="101" y="46" on="1"/>
      </contour>
    </TTGlyph>
    <TTGlyph name="A" xMin="15" yMin="0" xMax="551" yMax="686">
      <contour>
        <pt x="424" y="186" on="1"/>
        <pt x="139" y="186" on="1"/>
        <pt x="80" y="0" on="1"/>
        <pt x="15" y="0" on="1"/>
        <pt x="243" y="686" on="1"/>
        <pt x="323" y="686" on="1"/>
        <pt x="551" y="0" on="1"/>
        <pt x="483" y="0" on="1"/>
      </contour>
      <contour>
        <pt x="407" y="239" on="1"/>
        <pt x="282" y="633" on="1"/>
        <pt x="156" y="239" on="1"/>
      </contour>
    </TTGlyph>
    <TTGlyph name="AE" xMin="-2" yMin="0" xMax="740" yMax="686">
      <contour>
        <pt x="740" y="53" on="1"/>
        <pt x="740" y="0" on="1"/>
        <pt x="461" y="0" on="1"/>
        <pt x="416" y="183" on="1"/>
        <pt x="133" y="183" on="1"/>
        <pt x="63" y="0" on="1"/>
        <pt x="-2" y="0" on="1"/>
        <pt x="267" y="686" on="1"/>
        <pt x="693" y="686" on="1"/>
        <pt x="686" y="632" on="1"/>
        <pt x="363" y="632" on="1"/>
        <pt x="428" y="380" on="1"/>
        <pt x="685" y="380" on="1"/>
        <pt x="685" y="327" on="1"/>
        <pt x="441" y="327" on="1"/>
        <pt x="512" y="53" on="1"/>
      </contour>
      <contour>
        <pt x="402" y="236" on="1"/>
        <pt x="304" y="634" on="1"/>
        <pt x="153" y="236" on="1"/>
      </contour>
    </TTGlyph>
    <TTGlyph name="AEacute" xMin="-2" yMin="0" xMax="740" yMax="891">
      <component glyphName="AE" x="0" y="0" flags="0x0"/>
      <component glyphName="acutecomb.case" x="590" y="0" flags="0x0"/>
    </TTGlyph>
    <TTGlyph name="Aacute" xMin="15" yMin="0" xMax="551" yMax="891">
      <component glyphName="A" x="0" y="0" flags="0x0"/>
      <component glyphName="acutecomb.case" x="414" y="0" flags="0x0"/>
    </TTGlyph>
    <TTGlyph name="Abreve" xMin="15" yMin="0" xMax="551" yMax="876">
      <component glyphName="A" x="0" y="0" flags="0x0"/>
      <component glyphName="uni0306.case" x="436" y="0" flags="0x0"/>
    </TTGlyph>
    <TTGlyph name="Acircumflex" xMin="15" yMin="0" xMax="551" yMax="896">
      <component glyphName="A" x="0" y="0" flags="0x0"/>
      <component glyphName="uni0302.case" x="463" y="0" flags="0x0"/>
    </TTGlyph>
    <TTGlyph name="Adieresis" xMin="15" yMin="0" xMax="551" yMax="871">
      <component glyphName="A" x="0" y="0" flags="0x0"/>
      <component glyphName="uni0308.case" x="451" y="0" flags="0x0"/>
    </TTGlyph>
    <TTGlyph name="Agrave" xMin="15" yMin="0" xMax="551" yMax="891">
      <component glyphName="A" x="0" y="0" flags="0x0"/>
      <component glyphName="gravecomb.case" x="409" y="0" flags="0x0"/>
    </TTGlyph>
    <TTGlyph name="Alpha" xMin="15" yMin="0" xMax="551" yMax="686">
      <contour>
        <pt x="424" y="186" on="1"/>
        <pt x="139" y="186" on="1"/>
        <pt x="80" y="0" on="1"/>
        <pt x="15" y="0" on="1"/>
        <pt x="243" y="686" on="1"/>
        <pt x="323" y="686" on="1"/>
        <pt x="551" y="0" on="1"/>
        <pt x="483" y="0" on="1"/>
      </contour>
      <contour>
        <pt x="407" y="239" on="1"/>
        <pt x="282" y="633" on="1"/>
        <pt x="156" y="239" on="1"/>
      </contour>
    </TTGlyph>
    <TTGlyph name="Alphatonos" xMin="17" yMin="0" xMax="553" yMax="699">
      <component glyphName="tonos.case" x="0" y="0" flags="0x0"/>
      <component glyphName="A" x="2" y="0" flags="0x0"/>
    </TTGlyph>
    <TTGlyph name="Amacron" xMin="15" yMin="0" xMax="551" yMax="850">
      <component glyphName="A" x="0" y="0" flags="0x0"/>
      <component glyphName="uni0304.case" x="431" y="0" flags="0x0"/>
    </TTGlyph>
    <TTGlyph name="Aogonek" xMin="15" yMin="-219" xMax="551" yMax="686">
      <contour>
        <pt x="463" y="-30" on="0"/>
        <pt x="408" y="-83" on="0"/>
        <pt x="408" y="-117" on="1"/>
        <pt x="408" y="-169" on="0"/>
        <pt x="470" y="-169" on="1"/>
        <pt x="497" y="-169" on="0"/>
        <pt x="528" y="-162" on="1"/>
        <pt x="522" y="-213" on="1"/>
        <pt x="492" y="-219" on="0"/>
        <pt x="463" y="-219" on="1"/>
        <pt x="410" y="-219" on="0"/>
        <pt x="350" y="-167" on="0"/>
        <pt x="350" y="-127" on="1"/>
        <pt x="350" y="-83" on="0"/>
        <pt x="414" y="-15" on="0"/>
        <pt x="479" y="12" on="1"/>
        <pt x="424" y="186" on="1"/>
        <pt x="139" y="186" on="1"/>
        <pt x="80" y="0" on="1"/>
        <pt x="15" y="0" on="1"/>
        <pt x="243" y="686" on="1"/>
        <pt x="323" y="686" on="1"/>
        <pt x="551" y="0" on="1"/>
        <pt x="530" y="0" on="1"/>
      </contour>
      <contour>
        <pt x="407" y="239" on="1"/>
        <pt x="282" y="633" on="1"/>
        <pt x="156" y="239" on="1"/>
      </contour>
    </TTGlyph>
    <TTGlyph name="Aring" xMin="15" yMin="0" xMax="551" yMax="948">
      <component glyphName="A" x="0" y="0" flags="0x0"/>
      <component glyphName="uni030A.case" x="412" y="0" flags="0x0"/>
    </TTGlyph>
    <TTGlyph name="Aringacute" xMin="15" yMin="0" xMax="551" yMax="1063">
      <contour>
        <pt x="193" y="930" on="1"/>
        <pt x="176" y="965" on="1"/>
        <pt x="365" y="1063" on="1"/>
        <pt x="393" y="1007" on="1"/>
      </contour>
      <contour>
        <pt x="182" y="864" on="0"/>
        <pt x="238" y="918" on="0"/>
        <pt x="282" y="918" on="1"/>
        <pt x="327" y="918" on="0"/>
        <pt x="383" y="865" on="0"/>
        <pt x="383" y="823" on="1"/>
        <pt x="383" y="781" on="0"/>
        <pt x="327" y="728" on="0"/>
        <pt x="282" y="728" on="1"/>
        <pt x="238" y="728" on="0"/>
        <pt x="182" y="782" on="0"/>
        <pt x="182" y="823" on="1"/>
      </contour>
      <contour>
        <pt x="337" y="851" on="0"/>
        <pt x="308" y="881" on="0"/>
        <pt x="282" y="881" on="1"/>
        <pt x="256" y="881" on="0"/>
        <pt x="228" y="851" on="0"/>
        <pt x="228" y="823" on="1"/>
        <pt x="228" y="796" on="0"/>
        <pt x="257" y="765" on="0"/>
        <pt x="282" y="765" on="1"/>
        <pt x="308" y="765" on="0"/>
        <pt x="337" y="796" on="0"/>
        <pt x="337" y="823" on="1"/>
      </contour>
      <contour>
        <pt x="424" y="186" on="1"/>
        <pt x="139" y="186" on="1"/>
        <pt x="80" y="0" on="1"/>
        <pt x="15" y="0" on="1"/>
        <pt x="243" y="686" on="1"/>
        <pt x="323" y="686" on="1"/>
        <pt x="551" y="0" on="1"/>
        <pt x="483" y="0" on="1"/>
      </contour>
      <contour>
        <pt x="407" y="239" on="1"/>
        <pt x="282" y="633" on="1"/>
        <pt x="156" y="239" on="1"/>
      </contour>
    </TTGlyph>
    <TTGlyph name="Atilde" xMin="15" yMin="0" xMax="551" yMax="886">
      <component glyphName="A" x="0" y="0" flags="0x0"/>
      <component glyphName="tildecomb.case" x="459" y="0" flags="0x0"/>
    </TTGlyph>
    <TTGlyph name="B" xMin="110" yMin="0" xMax="547" yMax="686">
      <contour>
        <pt x="459" y="355" on="0"/>
        <pt x="547" y="273" on="0"/>
        <pt x="547" y="191" on="1"/>
        <pt x="547" y="94" on="0"/>
        <pt x="415" y="0" on="0"/>
        <pt x="297" y="0" on="1"/>
        <pt x="110" y="0" on="1"/>
        <pt x="110" y="686" on="1"/>
        <pt x="263" y="686" on="1"/>
        <pt x="385" y="686" on="0"/>
        <pt x="515" y="600" on="0"/>
        <pt x="515" y="514" on="1"/>
        <pt x="515" y="451" on="0"/>
        <pt x="445" y="374" on="0"/>
        <pt x="389" y="363" on="1"/>
      </contour>
      <contour>
        <pt x="174" y="633" on="1"/>
        <pt x="174" y="386" on="1"/>
        <pt x="308" y="386" on="1"/>
        <pt x="371" y="386" on="0"/>
        <pt x="449" y="452" on="0"/>
        <pt x="449" y="510" on="1"/>
        <pt x="449" y="576" on="0"/>
        <pt x="359" y="633" on="0"/>
        <pt x="271" y="633" on="1"/>
      </contour>
      <contour>
        <pt x="384" y="53" on="0"/>
        <pt x="479" y="118" on="0"/>
        <pt x="479" y="191" on="1"/>
        <pt x="479" y="264" on="0"/>
        <pt x="389" y="335" on="0"/>
        <pt x="315" y="335" on="1"/>
        <pt x="174" y="335" on="1"/>
        <pt x="174" y="53" on="1"/>
        <pt x="297" y="53" on="1"/>
      </contour>
    </TTGlyph>
    <TTGlyph name="Beta" xMin="110" yMin="0" xMax="547" yMax="686">
      <component glyphName="B" x="0" y="0" flags="0x0"/>
    </TTGlyph>
    <TTGlyph name="C" xMin="65" yMin="-11" xMax="529" yMax="697">
      <contour>
        <pt x="400" y="697" on="0"/>
        <pt x="480" y="666" on="0"/>
        <pt x="521" y="633" on="1"/>
        <pt x="486" y="591" on="1"/>
        <pt x="451" y="618" on="0"/>
        <pt x="387" y="642" on="0"/>
        <pt x="347" y="642" on="1"/>
        <pt x="251" y="642" on="0"/>
        <pt x="132" y="497" on="0"/>
        <pt x="132" y="343" on="1"/>
        <pt x="132" y="195" on="0"/>
        <pt x="250" y="45" on="0"/>
        <pt x="345" y="45" on="1"/>
        <pt x="392" y="45" on="0"/>
        <pt x="459" y="75" on="0"/>
        <pt x="495" y="103" on="1"/>
        <pt x="529" y="60" on="1"/>
        <pt x="452" y="-11" on="0"/>
        <pt x="343" y="-11" on="1"/>
        <pt x="262" y="-11" on="0"/>
        <pt x="136" y="71" on="0"/>
        <pt x="65" y="231" on="0"/>
        <pt x="65" y="343" on="1"/>
        <pt x="65" y="457" on="0"/>
        <pt x="139" y="616" on="0"/>
        <pt x="265" y="697" on="0"/>
        <pt x="343" y="697" on="1"/>
      </contour>
    </TTGlyph>
    <TTGlyph name="Cacute" xMin="65" yMin="-11" xMax="529" yMax="891">
      <component glyphName="C" x="0" y="0" flags="0x0"/>
      <component glyphName="acutecomb.case" x="476" y="0" flags="0x0"/>
    </TTGlyph>
    <TTGlyph name="Cacute.loclPLK" xMin="65" yMin="-11" xMax="529" yMax="911">
      <component glyphName="C" x="0" y="0" flags="0x0"/>
      <component glyphName="acute.case.loclPLK" x="210" y="0" flags="0x0"/>
    </TTGlyph>
    <TTGlyph name="Ccaron" xMin="65" yMin="-11" xMax="529" yMax="890">
      <component glyphName="C" x="0" y="0" flags="0x0"/>
      <component glyphName="uni030C.case" x="519" y="0" flags="0x0"/>
    </TTGlyph>
    <TTGlyph name="Ccedilla" xMin="65" yMin="-229" xMax="529" yMax="697">
      <contour>
        <pt x="408" y="-67" on="0"/>
        <pt x="453" y="-108" on="0"/>
        <pt x="453" y="-141" on="1"/>
        <pt x="453" y="-182" on="0"/>
        <pt x="391" y="-229" on="0"/>
        <pt x="345" y="-229" on="1"/>
        <pt x="296" y="-229" on="0"/>
        <pt x="264" y="-207" on="1"/>
        <pt x="283" y="-169" on="1"/>
        <pt x="311" y="-185" on="0"/>
        <pt x="344" y="-185" on="1"/>
        <pt x="368" y="-185" on="0"/>
        <pt x="398" y="-163" on="0"/>
        <pt x="398" y="-141" on="1"/>
        <pt x="398" y="-118" on="0"/>
        <pt x="356" y="-97" on="0"/>
        <pt x="309" y="-96" on="1"/>
        <pt x="317" y="-10" on="1"/>
        <pt x="243" y="-4" on="0"/>
        <pt x="129" y="82" on="0"/>
        <pt x="65" y="237" on="0"/>
        <pt x="65" y="343" on="1"/>
        <pt x="65" y="457" on="0"/>
        <pt x="139" y="616" on="0"/>
        <pt x="265" y="697" on="0"/>
        <pt x="343" y="697" on="1"/>
        <pt x="400" y="697" on="0"/>
        <pt x="480" y="666" on="0"/>
        <pt x="521" y="633" on="1"/>
        <pt x="486" y="591" on="1"/>
        <pt x="451" y="618" on="0"/>
        <pt x="387" y="642" on="0"/>
        <pt x="347" y="642" on="1"/>
        <pt x="251" y="642" on="0"/>
        <pt x="132" y="497" on="0"/>
        <pt x="132" y="343" on="1"/>
        <pt x="132" y="195" on="0"/>
        <pt x="250" y="45" on="0"/>
        <pt x="345" y="45" on="1"/>
        <pt x="392" y="45" on="0"/>
        <pt x="459" y="75" on="0"/>
        <pt x="495" y="103" on="1"/>
        <pt x="529" y="60" on="1"/>
        <pt x="461" y="-4" on="0"/>
        <pt x="361" y="-11" on="1"/>
        <pt x="361" y="-63" on="1"/>
      </contour>
    </TTGlyph>
    <TTGlyph name="Ccircumflex" xMin="65" yMin="-11" xMax="529" yMax="896">
      <component glyphName="C" x="0" y="0" flags="0x0"/>
      <component glyphName="uni0302.case" x="524" y="0" flags="0x0"/>
    </TTGlyph>
    <TTGlyph name="Cdotaccent" xMin="65" yMin="-11" xMax="529" yMax="882">
      <component glyphName="C" x="0" y="0" flags="0x0"/>
      <component glyphName="uni0307.case" x="418" y="0" flags="0x0"/>
    </TTGlyph>
    <TTGlyph name="Chi" xMin="10" yMin="0" xMax="507" yMax="686">
      <component glyphName="X" x="0" y="0" flags="0x0"/>
    </TTGlyph>
    <TTGlyph name="D" xMin="110" yMin="0" xMax="569" yMax="686">
      <contour>
        <pt x="391" y="686" on="0"/>
        <pt x="569" y="541" on="0"/>
        <pt x="569" y="348" on="1"/>
        <pt x="569" y="155" on="0"/>
        <pt x="388" y="0" on="0"/>
        <pt x="259" y="0" on="1"/>
        <pt x="110" y="0" on="1"/>
        <pt x="110" y="686" on="1"/>
        <pt x="246" y="686" on="1"/>
      </contour>
      <contour>
        <pt x="174" y="632" on="1"/>
        <pt x="174" y="53" on="1"/>
        <pt x="263" y="53" on="1"/>
        <pt x="501" y="53" on="0"/>
        <pt x="501" y="348" on="1"/>
        <pt x="501" y="465" on="0"/>
        <pt x="432" y="590" on="0"/>
        <pt x="326" y="632" on="0"/>
        <pt x="256" y="632" on="1"/>
      </contour>
    </TTGlyph>
    <TTGlyph name="Dcaron" xMin="110" yMin="0" xMax="569" yMax="890">
      <component glyphName="D" x="0" y="0" flags="0x0"/>
      <component glyphName="uni030C.case" x="474" y="0" flags="0x0"/>
    </TTGlyph>
    <TTGlyph name="Dcroat" xMin="22" yMin="0" xMax="574" yMax="686">
      <component glyphName="Eth" x="0" y="0" flags="0x0"/>
    </TTGlyph>
    <TTGlyph name="Delta" xMin="15" yMin="0" xMax="561" yMax="686">
      <contour>
        <pt x="561" y="0" on="1"/>
        <pt x="15" y="0" on="1"/>
        <pt x="248" y="686" on="1"/>
        <pt x="329" y="686" on="1"/>
      </contour>
      <contour>
        <pt x="96" y="54" on="1"/>
        <pt x="477" y="54" on="1"/>
        <pt x="288" y="632" on="1"/>
      </contour>
    </TTGlyph>
    <TTGlyph name="E" xMin="110" yMin="0" xMax="467" yMax="686">
      <contour>
        <pt x="453" y="632" on="1"/>
        <pt x="174" y="632" on="1"/>
        <pt x="174" y="381" on="1"/>
        <pt x="415" y="381" on="1"/>
        <pt x="415" y="328" on="1"/>
        <pt x="174" y="328" on="1"/>
        <pt x="174" y="53" on="1"/>
        <pt x="467" y="53" on="1"/>
        <pt x="467" y="0" on="1"/>
        <pt x="110" y="0" on="1"/>
        <pt x="110" y="686" on="1"/>
        <pt x="460" y="686" on="1"/>
      </contour>
    </TTGlyph>
    <TTGlyph name="Eacute" xMin="110" yMin="0" xMax="467" yMax="891">
      <component glyphName="E" x="0" y="0" flags="0x0"/>
      <component glyphName="acutecomb.case" x="420" y="0" flags="0x0"/>
    </TTGlyph>
    <TTGlyph name="Ebreve" xMin="110" yMin="0" xMax="467" yMax="876">
      <component glyphName="E" x="0" y="0" flags="0x0"/>
      <component glyphName="uni0306.case" x="442" y="0" flags="0x0"/>
    </TTGlyph>
    <TTGlyph name="Ecaron" xMin="110" yMin="0" xMax="467" yMax="890">
      <component glyphName="E" x="0" y="0" flags="0x0"/>
      <component glyphName="uni030C.case" x="463" y="0" flags="0x0"/>
    </TTGlyph>
    <TTGlyph name="Ecircumflex" xMin="110" yMin="0" xMax="467" yMax="896">
      <component glyphName="E" x="0" y="0" flags="0x0"/>
      <component glyphName="uni0302.case" x="468" y="0" flags="0x0"/>
    </TTGlyph>
    <TTGlyph name="Edieresis" xMin="110" yMin="0" xMax="467" yMax="871">
      <component glyphName="E" x="0" y="0" flags="0x0"/>
      <component glyphName="uni0308.case" x="457" y="0" flags="0x0"/>
    </TTGlyph>
    <TTGlyph name="Edotaccent" xMin="110" yMin="0" xMax="467" yMax="882">
      <component glyphName="E" x="0" y="0" flags="0x0"/>
      <component glyphName="uni0307.case" x="363" y="0" flags="0x0"/>
    </TTGlyph>
    <TTGlyph name="Egrave" xMin="110" yMin="0" xMax="467" yMax="891">
      <component glyphName="E" x="0" y="0" flags="0x0"/>
      <component glyphName="gravecomb.case" x="415" y="0" flags="0x0"/>
    </TTGlyph>
    <TTGlyph name="Emacron" xMin="110" yMin="0" xMax="467" yMax="850">
      <component glyphName="E" x="0" y="0" flags="0x0"/>
      <component glyphName="uni0304.case" x="437" y="0" flags="0x0"/>
    </TTGlyph>
    <TTGlyph name="Eng" xMin="110" yMin="-206" xMax="564" yMax="686">
      <contour>
        <pt x="564" y="-69" on="1"/>
        <pt x="564" y="-136" on="0"/>
        <pt x="495" y="-206" on="0"/>
        <pt x="436" y="-206" on="1"/>
        <pt x="378" y="-206" on="0"/>
        <pt x="332" y="-172" on="1"/>
        <pt x="358" y="-130" on="1"/>
        <pt x="377" y="-141" on="0"/>
        <pt x="410" y="-153" on="0"/>
        <pt x="433" y="-153" on="1"/>
        <pt x="500" y="-153" on="0"/>
        <pt x="500" y="-71" on="1"/>
        <pt x="500" y="0" on="1"/>
        <pt x="480" y="0" on="1"/>
        <pt x="161" y="615" on="1"/>
        <pt x="170" y="529" on="0"/>
        <pt x="170" y="375" on="1"/>
        <pt x="170" y="0" on="1"/>
        <pt x="110" y="0" on="1"/>
        <pt x="110" y="686" on="1"/>
        <pt x="193" y="686" on="1"/>
        <pt x="512" y="70" on="1"/>
        <pt x="504" y="182" on="0"/>
        <pt x="504" y="274" on="1"/>
        <pt x="504" y="686" on="1"/>
        <pt x="564" y="686" on="1"/>
      </contour>
    </TTGlyph>
    <TTGlyph name="Eng.ss01" xMin="110" yMin="-206" xMax="562" yMax="697">
      <contour>
        <pt x="562" y="-136" on="0"/>
        <pt x="493" y="-206" on="0"/>
        <pt x="433" y="-206" on="1"/>
        <pt x="376" y="-206" on="0"/>
        <pt x="330" y="-172" on="1"/>
        <pt x="356" y="-130" on="1"/>
        <pt x="375" y="-141" on="0"/>
        <pt x="408" y="-153" on="0"/>
        <pt x="431" y="-153" on="1"/>
        <pt x="498" y="-153" on="0"/>
        <pt x="498" y="-71" on="1"/>
        <pt x="498" y="488" on="1"/>
        <pt x="498" y="642" on="0"/>
        <pt x="372" y="642" on="1"/>
        <pt x="310" y="642" on="0"/>
        <pt x="219" y="585" on="0"/>
        <pt x="174" y="531" on="1"/>
        <pt x="174" y="0" on="1"/>
        <pt x="110" y="0" on="1"/>
        <pt x="110" y="686" on="1"/>
        <pt x="165" y="686" on="1"/>
        <pt x="171" y="591" on="1"/>
        <pt x="261" y="697" on="0"/>
        <pt x="382" y="697" on="1"/>
        <pt x="470" y="697" on="0"/>
        <pt x="562" y="592" on="0"/>
        <pt x="562" y="500" on="1"/>
        <pt x="562" y="-69" on="1"/>
      </contour>
    </TTGlyph>
    <TTGlyph name="Eogonek" xMin="110" yMin="-219" xMax="467" yMax="686">
      <contour>
        <pt x="467" y="53" on="1"/>
        <pt x="467" y="0" on="1"/>
        <pt x="435" y="0" on="1"/>
        <pt x="368" y="-30" on="0"/>
        <pt x="313" y="-83" on="0"/>
        <pt x="313" y="-117" on="1"/>
        <pt x="313" y="-169" on="0"/>
        <pt x="375" y="-169" on="1"/>
        <pt x="402" y="-169" on="0"/>
        <pt x="433" y="-162" on="1"/>
        <pt x="427" y="-213" on="1"/>
        <pt x="397" y="-219" on="0"/>
        <pt x="368" y="-219" on="1"/>
        <pt x="315" y="-219" on="0"/>
        <pt x="255" y="-167" on="0"/>
        <pt x="255" y="-127" on="1"/>
        <pt x="255" y="-87" on="0"/>
        <pt x="306" y="-26" on="0"/>
        <pt x="359" y="0" on="1"/>
        <pt x="110" y="0" on="1"/>
        <pt x="110" y="686" on="1"/>
        <pt x="460" y="686" on="1"/>
        <pt x="453" y="632" on="1"/>
        <pt x="174" y="632" on="1"/>
        <pt x="174" y="381" on="1"/>
        <pt x="415" y="381" on="1"/>
        <pt x="415" y="328" on="1"/>
        <pt x="174" y="328" on="1"/>
        <pt x="174" y="53" on="1"/>
      </contour>
    </TTGlyph>
    <TTGlyph name="Epsilon" xMin="110" yMin="0" xMax="467" yMax="686">
      <contour>
        <pt x="453" y="632" on="1"/>
        <pt x="174" y="632" on="1"/>
        <pt x="174" y="381" on="1"/>
        <pt x="415" y="381" on="1"/>
        <pt x="415" y="328" on="1"/>
        <pt x="174" y="328" on="1"/>
        <pt x="174" y="53" on="1"/>
        <pt x="467" y="53" on="1"/>
        <pt x="467" y="0" on="1"/>
        <pt x="110" y="0" on="1"/>
        <pt x="110" y="686" on="1"/>
        <pt x="460" y="686" on="1"/>
      </contour>
    </TTGlyph>
    <TTGlyph name="Epsilontonos" xMin="30" yMin="0" xMax="539" yMax="699">
      <component glyphName="tonos.case" x="0" y="0" flags="0x0"/>
      <component glyphName="E" x="72" y="0" flags="0x0"/>
    </TTGlyph>
    <TTGlyph name="Eta" xMin="110" yMin="0" xMax="562" yMax="686">
      <contour>
        <pt x="498" y="334" on="1"/>
        <pt x="174" y="334" on="1"/>
        <pt x="174" y="0" on="1"/>
        <pt x="110" y="0" on="1"/>
        <pt x="110" y="686" on="1"/>
        <pt x="174" y="686" on="1"/>
        <pt x="174" y="388" on="1"/>
        <pt x="498" y="388" on="1"/>
        <pt x="498" y="686" on="1"/>
        <pt x="562" y="686" on="1"/>
        <pt x="562" y="0" on="1"/>
        <pt x="498" y="0" on="1"/>
      </contour>
    </TTGlyph>
    <TTGlyph name="Etatonos" xMin="30" yMin="0" xMax="634" yMax="699">
      <component glyphName="tonos.case" x="0" y="0" flags="0x0"/>
      <component glyphName="H" x="72" y="0" flags="0x0"/>
    </TTGlyph>
    <TTGlyph name="Eth" xMin="22" yMin="0" xMax="574" yMax="686">
      <contour>
        <pt x="397" y="686" on="0"/>
        <pt x="574" y="541" on="0"/>
        <pt x="574" y="348" on="1"/>
        <pt x="574" y="155" on="0"/>
        <pt x="394" y="0" on="0"/>
        <pt x="264" y="0" on="1"/>
        <pt x="115" y="0" on="1"/>
        <pt x="115" y="327" on="1"/>
        <pt x="22" y="327" on="1"/>
        <pt x="22" y="378" on="1"/>
        <pt x="115" y="378" on="1"/>
        <pt x="115" y="686" on="1"/>
        <pt x="252" y="686" on="1"/>
      </contour>
      <contour>
        <pt x="507" y="53" on="0"/>
        <pt x="507" y="348" on="1"/>
        <pt x="507" y="465" on="0"/>
        <pt x="438" y="590" on="0"/>
        <pt x="332" y="632" on="0"/>
        <pt x="262" y="632" on="1"/>
        <pt x="179" y="632" on="1"/>
        <pt x="179" y="378" on="1"/>
        <pt x="352" y="378" on="1"/>
        <pt x="352" y="327" on="1"/>
        <pt x="179" y="327" on="1"/>
        <pt x="179" y="53" on="1"/>
        <pt x="269" y="53" on="1"/>
      </contour>
    </TTGlyph>
    <TTGlyph name="Euro" xMin="33" yMin="-11" xMax="535" yMax="697">
      <contour>
        <pt x="297" y="643" on="0"/>
        <pt x="202" y="544" on="0"/>
        <pt x="183" y="443" on="1"/>
        <pt x="453" y="443" on="1"/>
        <pt x="442" y="397" on="1"/>
        <pt x="179" y="397" on="1"/>
        <pt x="179" y="296" on="1"/>
        <pt x="422" y="296" on="1"/>
        <pt x="412" y="251" on="1"/>
        <pt x="181" y="251" on="1"/>
        <pt x="194" y="142" on="0"/>
        <pt x="289" y="43" on="0"/>
        <pt x="369" y="43" on="1"/>
        <pt x="409" y="43" on="0"/>
        <pt x="471" y="64" on="0"/>
        <pt x="508" y="85" on="1"/>
        <pt x="508" y="28" on="1"/>
        <pt x="440" y="-11" on="0"/>
        <pt x="361" y="-11" on="1"/>
        <pt x="259" y="-11" on="0"/>
        <pt x="133" y="121" on="0"/>
        <pt x="116" y="251" on="1"/>
        <pt x="33" y="251" on="1"/>
        <pt x="44" y="296" on="1"/>
        <pt x="114" y="296" on="1"/>
        <pt x="114" y="397" on="1"/>
        <pt x="33" y="397" on="1"/>
        <pt x="44" y="443" on="1"/>
        <pt x="117" y="443" on="1"/>
        <pt x="139" y="565" on="0"/>
        <pt x="271" y="697" on="0"/>
        <pt x="365" y="697" on="1"/>
        <pt x="413" y="697" on="0"/>
        <pt x="494" y="670" on="0"/>
        <pt x="535" y="642" on="1"/>
        <pt x="510" y="597" on="1"/>
        <pt x="471" y="622" on="0"/>
        <pt x="407" y="643" on="0"/>
        <pt x="366" y="643" on="1"/>
      </contour>
    </TTGlyph>
    <TTGlyph name="Euro.lf" xMin="35" yMin="-11" xMax="537" yMax="677">
      <contour>
        <pt x="300" y="623" on="0"/>
        <pt x="205" y="528" on="0"/>
        <pt x="186" y="433" on="1"/>
        <pt x="455" y="433" on="1"/>
        <pt x="444" y="387" on="1"/>
        <pt x="181" y="387" on="1"/>
        <pt x="181" y="286" on="1"/>
        <pt x="424" y="286" on="1"/>
        <pt x="414" y="241" on="1"/>
        <pt x="183" y="241" on="1"/>
        <pt x="197" y="139" on="0"/>
        <pt x="291" y="43" on="0"/>
        <pt x="371" y="43" on="1"/>
        <pt x="411" y="43" on="0"/>
        <pt x="473" y="64" on="0"/>
        <pt x="510" y="85" on="1"/>
        <pt x="510" y="28" on="1"/>
        <pt x="442" y="-11" on="0"/>
        <pt x="363" y="-11" on="1"/>
        <pt x="262" y="-11" on="0"/>
        <pt x="135" y="117" on="0"/>
        <pt x="118" y="241" on="1"/>
        <pt x="35" y="241" on="1"/>
        <pt x="46" y="286" on="1"/>
        <pt x="116" y="286" on="1"/>
        <pt x="116" y="387" on="1"/>
        <pt x="35" y="387" on="1"/>
        <pt x="46" y="433" on="1"/>
        <pt x="119" y="433" on="1"/>
        <pt x="142" y="549" on="0"/>
        <pt x="274" y="677" on="0"/>
        <pt x="367" y="677" on="1"/>
        <pt x="414" y="677" on="0"/>
        <pt x="496" y="650" on="0"/>
        <pt x="537" y="622" on="1"/>
        <pt x="512" y="577" on="1"/>
        <pt x="473" y="602" on="0"/>
        <pt x="409" y="623" on="0"/>
        <pt x="368" y="623" on="1"/>
      </contour>
    </TTGlyph>
    <TTGlyph name="Euro.osf" xMin="35" yMin="-11" xMax="537" yMax="677">
      <component glyphName="Euro.lf" x="0" y="0" flags="0x0"/>
    </TTGlyph>
    <TTGlyph name="Euro.tosf" xMin="51" yMin="-11" xMax="544" yMax="677">
      <contour>
        <pt x="312" y="623" on="0"/>
        <pt x="220" y="528" on="0"/>
        <pt x="202" y="433" on="1"/>
        <pt x="465" y="433" on="1"/>
        <pt x="454" y="387" on="1"/>
        <pt x="197" y="387" on="1"/>
        <pt x="197" y="286" on="1"/>
        <pt x="434" y="286" on="1"/>
        <pt x="424" y="241" on="1"/>
        <pt x="199" y="241" on="1"/>
        <pt x="213" y="138" on="0"/>
        <pt x="304" y="43" on="0"/>
        <pt x="382" y="43" on="1"/>
        <pt x="421" y="43" on="0"/>
        <pt x="480" y="64" on="0"/>
        <pt x="517" y="85" on="1"/>
        <pt x="517" y="28" on="1"/>
        <pt x="483" y="9" on="0"/>
        <pt x="415" y="-11" on="0"/>
        <pt x="374" y="-11" on="1"/>
        <pt x="274" y="-11" on="0"/>
        <pt x="151" y="117" on="0"/>
        <pt x="134" y="241" on="1"/>
        <pt x="51" y="241" on="1"/>
        <pt x="62" y="286" on="1"/>
        <pt x="132" y="286" on="1"/>
        <pt x="132" y="387" on="1"/>
        <pt x="51" y="387" on="1"/>
        <pt x="62" y="433" on="1"/>
        <pt x="135" y="433" on="1"/>
        <pt x="158" y="549" on="0"/>
        <pt x="286" y="677" on="0"/>
        <pt x="378" y="677" on="1"/>
        <pt x="425" y="677" on="0"/>
        <pt x="504" y="650" on="0"/>
        <pt x="544" y="622" on="1"/>
        <pt x="518" y="577" on="1"/>
        <pt x="480" y="602" on="0"/>
        <pt x="419" y="623" on="0"/>
        <pt x="379" y="623" on="1"/>
      </contour>
    </TTGlyph>
    <TTGlyph name="F" xMin="110" yMin="0" xMax="454" yMax="686">
      <contour>
        <pt x="447" y="632" on="1"/>
        <pt x="174" y="632" on="1"/>
        <pt x="174" y="369" on="1"/>
        <pt x="410" y="369" on="1"/>
        <pt x="410" y="317" on="1"/>
        <pt x="174" y="317" on="1"/>
        <pt x="174" y="0" on="1"/>
        <pt x="110" y="0" on="1"/>
        <pt x="110" y="686" on="1"/>
        <pt x="454" y="686" on="1"/>
      </contour>
    </TTGlyph>
    <TTGlyph name="G" xMin="65" yMin="-11" xMax="554" yMax="697">
      <contour>
        <pt x="410" y="697" on="0"/>
        <pt x="499" y="664" on="0"/>
        <pt x="543" y="628" on="1"/>
        <pt x="505" y="588" on="1"/>
        <pt x="469" y="617" on="0"/>
        <pt x="398" y="642" on="0"/>
        <pt x="351" y="642" on="1"/>
        <pt x="294" y="642" on="0"/>
        <pt x="194" y="581" on="0"/>
        <pt x="132" y="447" on="0"/>
        <pt x="132" y="345" on="1"/>
        <pt x="132" y="192" on="0"/>
        <pt x="245" y="43" on="0"/>
        <pt x="348" y="43" on="1"/>
        <pt x="429" y="43" on="0"/>
        <pt x="490" y="79" on="1"/>
        <pt x="490" y="317" on="1"/>
        <pt x="358" y="317" on="1"/>
        <pt x="351" y="371" on="1"/>
        <pt x="554" y="371" on="1"/>
        <pt x="554" y="46" on="1"/>
        <pt x="459" y="-11" on="0"/>
        <pt x="345" y="-11" on="1"/>
        <pt x="216" y="-11" on="0"/>
        <pt x="65" y="171" on="0"/>
        <pt x="65" y="345" on="1"/>
        <pt x="65" y="457" on="0"/>
        <pt x="145" y="617" on="0"/>
        <pt x="275" y="697" on="0"/>
        <pt x="350" y="697" on="1"/>
      </contour>
    </TTGlyph>
    <TTGlyph name="Gamma" xMin="110" yMin="0" xMax="498" yMax="686">
      <component glyphName="uni0413" x="0" y="0" flags="0x0"/>
    </TTGlyph>
    <TTGlyph name="Gbreve" xMin="65" yMin="-11" xMax="554" yMax="876">
      <component glyphName="G" x="0" y="0" flags="0x0"/>
      <component glyphName="uni0306.case" x="505" y="0" flags="0x0"/>
    </TTGlyph>
    <TTGlyph name="Gcaron" xMin="65" yMin="-11" xMax="554" yMax="890">
      <component glyphName="G" x="0" y="0" flags="0x0"/>
      <component glyphName="uni030C.case" x="526" y="0" flags="0x0"/>
    </TTGlyph>
    <TTGlyph name="Gcircumflex" xMin="65" yMin="-11" xMax="554" yMax="896">
      <component glyphName="G" x="0" y="0" flags="0x0"/>
      <component glyphName="uni0302.case" x="532" y="0" flags="0x0"/>
    </TTGlyph>
    <TTGlyph name="Gcommaaccent" xMin="65" yMin="-281" xMax="554" yMax="697">
      <component glyphName="G" x="0" y="0" flags="0x0"/>
      <component glyphName="uni0326.case" x="416" y="0" flags="0x0"/>
    </TTGlyph>
    <TTGlyph name="Gdotaccent" xMin="65" yMin="-11" xMax="554" yMax="882">
      <component glyphName="G" x="0" y="0" flags="0x0"/>
      <component glyphName="uni0307.case" x="426" y="0" flags="0x0"/>
    </TTGlyph>
    <TTGlyph name="H" xMin="110" yMin="0" xMax="562" yMax="686">
      <contour>
        <pt x="498" y="334" on="1"/>
        <pt x="174" y="334" on="1"/>
        <pt x="174" y="0" on="1"/>
        <pt x="110" y="0" on="1"/>
        <pt x="110" y="686" on="1"/>
        <pt x="174" y="686" on="1"/>
        <pt x="174" y="388" on="1"/>
        <pt x="498" y="388" on="1"/>
        <pt x="498" y="686" on="1"/>
        <pt x="562" y="686" on="1"/>
        <pt x="562" y="0" on="1"/>
        <pt x="498" y="0" on="1"/>
      </contour>
    </TTGlyph>
    <TTGlyph name="Hbar" xMin="46" yMin="0" xMax="630" yMax="686">
      <contour>
        <pt x="630" y="513" on="1"/>
        <pt x="564" y="513" on="1"/>
        <pt x="564" y="0" on="1"/>
        <pt x="500" y="0" on="1"/>
        <pt x="500" y="334" on="1"/>
        <pt x="176" y="334" on="1"/>
        <pt x="176" y="0" on="1"/>
        <pt x="112" y="0" on="1"/>
        <pt x="112" y="513" on="1"/>
        <pt x="46" y="513" on="1"/>
        <pt x="46" y="560" on="1"/>
        <pt x="112" y="560" on="1"/>
        <pt x="112" y="686" on="1"/>
        <pt x="176" y="686" on="1"/>
        <pt x="176" y="560" on="1"/>
        <pt x="500" y="560" on="1"/>
        <pt x="500" y="686" on="1"/>
        <pt x="564" y="686" on="1"/>
        <pt x="564" y="560" on="1"/>
        <pt x="630" y="560" on="1"/>
      </contour>
      <contour>
        <pt x="500" y="513" on="1"/>
        <pt x="176" y="513" on="1"/>
        <pt x="176" y="388" on="1"/>
        <pt x="500" y="388" on="1"/>
      </contour>
    </TTGlyph>
    <TTGlyph name="Hcircumflex" xMin="110" yMin="0" xMax="562" yMax="896">
      <component glyphName="H" x="0" y="0" flags="0x0"/>
      <component glyphName="uni0302.case" x="514" y="0" flags="0x0"/>
    </TTGlyph>
    <TTGlyph name="I" xMin="110" yMin="0" xMax="174" yMax="686">
      <contour>
        <pt x="174" y="0" on="1"/>
        <pt x="110" y="0" on="1"/>
        <pt x="110" y="686" on="1"/>
        <pt x="174" y="686" on="1"/>
      </contour>
    </TTGlyph>
    <TTGlyph name="IJ" xMin="110" yMin="-121" xMax="471" yMax="686">
      <component glyphName="I" x="0" y="0" flags="0x0"/>
      <component glyphName="J" x="283" y="0" flags="0x0"/>
    </TTGlyph>
    <TTGlyph name="Iacute" xMin="32" yMin="0" xMax="249" yMax="891">
      <component glyphName="I" x="0" y="0" flags="0x0"/>
      <component glyphName="acutecomb.case" x="272" y="0" flags="0x0"/>
    </TTGlyph>
    <TTGlyph name="Ibreve" xMin="8" yMin="0" xMax="274" yMax="876">
      <component glyphName="I" x="0" y="0" flags="0x0"/>
      <component glyphName="uni0306.case" x="294" y="0" flags="0x0"/>
    </TTGlyph>
    <TTGlyph name="Icircumflex" xMin="-9" yMin="0" xMax="291" yMax="896">
      <component glyphName="I" x="0" y="0" flags="0x0"/>
      <component glyphName="uni0302.case" x="321" y="0" flags="0x0"/>
    </TTGlyph>
    <TTGlyph name="Idieresis" xMin="3" yMin="0" xMax="279" yMax="871">
      <component glyphName="I" x="0" y="0" flags="0x0"/>
      <component glyphName="uni0308.case" x="309" y="0" flags="0x0"/>
    </TTGlyph>
    <TTGlyph name="Idotaccent" xMin="95" yMin="0" xMax="187" yMax="882">
      <component glyphName="I" x="0" y="0" flags="0x0"/>
      <component glyphName="uni0307.case" x="215" y="0" flags="0x0"/>
    </TTGlyph>
    <TTGlyph name="Igrave" xMin="27" yMin="0" xMax="244" yMax="891">
      <component glyphName="I" x="0" y="0" flags="0x0"/>
      <component glyphName="gravecomb.case" x="267" y="0" flags="0x0"/>
    </TTGlyph>
    <TTGlyph name="Imacron" xMin="19" yMin="0" xMax="263" yMax="850">
      <component glyphName="I" x="0" y="0" flags="0x0"/>
      <component glyphName="uni0304.case" x="289" y="0" flags="0x0"/>
    </TTGlyph>
    <TTGlyph name="Iogonek" xMin="-6" yMin="-219" xMax="174" yMax="686">
      <contour>
        <pt x="52" y="-169" on="0"/>
        <pt x="114" y="-169" on="1"/>
        <pt x="141" y="-169" on="0"/>
        <pt x="172" y="-162" on="1"/>
        <pt x="166" y="-213" on="1"/>
        <pt x="136" y="-219" on="0"/>
        <pt x="107" y="-219" on="1"/>
        <pt x="54" y="-219" on="0"/>
        <pt x="-6" y="-167" on="0"/>
        <pt x="-6" y="-127" on="1"/>
        <pt x="-6" y="-85" on="0"/>
        <pt x="51" y="-21" on="0"/>
        <pt x="110" y="6" on="1"/>
        <pt x="110" y="686" on="1"/>
        <pt x="174" y="686" on="1"/>
        <pt x="174" y="0" on="1"/>
        <pt x="107" y="-30" on="0"/>
        <pt x="52" y="-83" on="0"/>
        <pt x="52" y="-117" on="1"/>
      </contour>
    </TTGlyph>
    <TTGlyph name="Iota" xMin="110" yMin="0" xMax="174" yMax="686">
      <contour>
        <pt x="174" y="0" on="1"/>
        <pt x="110" y="0" on="1"/>
        <pt x="110" y="686" on="1"/>
        <pt x="174" y="686" on="1"/>
      </contour>
    </TTGlyph>
    <TTGlyph name="Iotadieresis" xMin="3" yMin="0" xMax="279" yMax="871">
      <component glyphName="I" x="0" y="0" flags="0x0"/>
      <component glyphName="uni0308.case" x="309" y="0" flags="0x0"/>
    </TTGlyph>
    <TTGlyph name="Iotatonos" xMin="30" yMin="0" xMax="246" yMax="699">
      <component glyphName="tonos.case" x="0" y="0" flags="0x0"/>
      <component glyphName="I" x="72" y="0" flags="0x0"/>
    </TTGlyph>
    <TTGlyph name="Itilde" xMin="-11" yMin="0" xMax="293" yMax="886">
      <component glyphName="I" x="0" y="0" flags="0x0"/>
      <component glyphName="tildecomb.case" x="317" y="0" flags="0x0"/>
    </TTGlyph>
    <TTGlyph name="J" xMin="12" yMin="-121" xMax="188" yMax="686">
      <contour>
        <pt x="188" y="92" on="1"/>
        <pt x="188" y="31" on="0"/>
        <pt x="156" y="-48" on="0"/>
        <pt x="88" y="-99" on="0"/>
        <pt x="30" y="-121" on="1"/>
        <pt x="12" y="-74" on="1"/>
        <pt x="58" y="-54" on="0"/>
        <pt x="106" y="-11" on="0"/>
        <pt x="124" y="47" on="0"/>
        <pt x="124" y="95" on="1"/>
        <pt x="124" y="686" on="1"/>
        <pt x="188" y="686" on="1"/>
      </contour>
    </TTGlyph>
    <TTGlyph name="Jcircumflex" xMin="5" yMin="-121" xMax="305" yMax="896">
      <component glyphName="J" x="0" y="0" flags="0x0"/>
      <component glyphName="uni0302.case" x="335" y="0" flags="0x0"/>
    </TTGlyph>
    <TTGlyph name="K" xMin="110" yMin="0" xMax="552" yMax="686">
      <contour>
        <pt x="174" y="0" on="1"/>
        <pt x="110" y="0" on="1"/>
        <pt x="110" y="686" on="1"/>
        <pt x="174" y="686" on="1"/>
      </contour>
      <contour>
        <pt x="253" y="371" on="1"/>
        <pt x="552" y="0" on="1"/>
        <pt x="473" y="0" on="1"/>
        <pt x="178" y="368" on="1"/>
        <pt x="461" y="686" on="1"/>
        <pt x="535" y="686" on="1"/>
      </contour>
    </TTGlyph>
    <TTGlyph name="Kappa" xMin="110" yMin="0" xMax="552" yMax="686">
      <component glyphName="K" x="0" y="0" flags="0x0"/>
    </TTGlyph>
    <TTGlyph name="Kcommaaccent" xMin="110" yMin="-281" xMax="552" yMax="686">
      <component glyphName="K" x="0" y="0" flags="0x0"/>
      <component glyphName="uni0326.case" x="383" y="0" flags="0x0"/>
    </TTGlyph>
    <TTGlyph name="L" xMin="110" yMin="0" xMax="460" yMax="686">
      <contour>
        <pt x="174" y="57" on="1"/>
        <pt x="460" y="57" on="1"/>
        <pt x="451" y="0" on="1"/>
        <pt x="110" y="0" on="1"/>
        <pt x="110" y="686" on="1"/>
        <pt x="174" y="686" on="1"/>
      </contour>
    </TTGlyph>
    <TTGlyph name="Lacute" xMin="33" yMin="0" xMax="460" yMax="891">
      <component glyphName="L" x="0" y="0" flags="0x0"/>
      <component glyphName="acutecomb.case" x="273" y="0" flags="0x0"/>
    </TTGlyph>
    <TTGlyph name="Lambda" xMin="15" yMin="0" xMax="551" yMax="686">
      <contour>
        <pt x="551" y="0" on="1"/>
        <pt x="483" y="0" on="1"/>
        <pt x="282" y="633" on="1"/>
        <pt x="80" y="0" on="1"/>
        <pt x="15" y="0" on="1"/>
        <pt x="243" y="686" on="1"/>
        <pt x="323" y="686" on="1"/>
      </contour>
    </TTGlyph>
    <TTGlyph name="Lcaron" xMin="110" yMin="0" xMax="460" yMax="692">
      <component glyphName="L" x="0" y="0" flags="0x0"/>
      <component glyphName="caron.alt" x="172" y="0" flags="0x0"/>
    </TTGlyph>
    <TTGlyph name="Lcommaaccent" xMin="110" yMin="-281" xMax="460" yMax="686">
      <component glyphName="L" x="0" y="0" flags="0x0"/>
      <component glyphName="uni0326.case" x="358" y="0" flags="0x0"/>
    </TTGlyph>
    <TTGlyph name="Ldot" xMin="110" yMin="0" xMax="460" yMax="686">
      <component glyphName="L" x="0" y="0" flags="0x0"/>
      <component glyphName="uni0307" x="448" y="-341" flags="0x0"/>
    </TTGlyph>
    <TTGlyph name="Lslash" xMin="32" yMin="0" xMax="471" yMax="686">
      <contour>
        <pt x="471" y="57" on="1"/>
        <pt x="462" y="0" on="1"/>
        <pt x="121" y="0" on="1"/>
        <pt x="121" y="278" on="1"/>
        <pt x="58" y="239" on="1"/>
        <pt x="32" y="281" on="1"/>
        <pt x="121" y="336" on="1"/>
        <pt x="121" y="686" on="1"/>
        <pt x="185" y="686" on="1"/>
        <pt x="185" y="376" on="1"/>
        <pt x="363" y="487" on="1"/>
        <pt x="389" y="445" on="1"/>
        <pt x="185" y="318" on="1"/>
        <pt x="185" y="57" on="1"/>
      </contour>
    </TTGlyph>
    <TTGlyph name="M" xMin="68" yMin="0" xMax="703" yMax="686">
      <contour>
        <pt x="703" y="0" on="1"/>
        <pt x="641" y="0" on="1"/>
        <pt x="610" y="326" on="1"/>
        <pt x="589" y="552" on="0"/>
        <pt x="586" y="622" on="1"/>
        <pt x="416" y="80" on="1"/>
        <pt x="356" y="80" on="1"/>
        <pt x="180" y="623" on="1"/>
        <pt x="177" y="527" on="0"/>
        <pt x="158" y="327" on="1"/>
        <pt x="129" y="0" on="1"/>
        <pt x="68" y="0" on="1"/>
        <pt x="132" y="686" on="1"/>
        <pt x="220" y="686" on="1"/>
        <pt x="387" y="156" on="1"/>
        <pt x="549" y="686" on="1"/>
        <pt x="638" y="686" on="1"/>
      </contour>
    </TTGlyph>
    <TTGlyph name="Mu" xMin="68" yMin="0" xMax="703" yMax="686">
      <component glyphName="M" x="0" y="0" flags="0x0"/>
    </TTGlyph>
    <TTGlyph name="N" xMin="110" yMin="0" xMax="564" yMax="686">
      <contour>
        <pt x="564" y="0" on="1"/>
        <pt x="480" y="0" on="1"/>
        <pt x="161" y="615" on="1"/>
        <pt x="170" y="529" on="0"/>
        <pt x="170" y="375" on="1"/>
        <pt x="170" y="0" on="1"/>
        <pt x="110" y="0" on="1"/>
        <pt x="110" y="686" on="1"/>
        <pt x="193" y="686" on="1"/>
        <pt x="512" y="70" on="1"/>
        <pt x="504" y="182" on="0"/>
        <pt x="504" y="274" on="1"/>
        <pt x="504" y="686" on="1"/>
        <pt x="564" y="686" on="1"/>
      </contour>
    </TTGlyph>
    <TTGlyph name="Nacute" xMin="110" yMin="0" xMax="564" yMax="891">
      <component glyphName="N" x="0" y="0" flags="0x0"/>
      <component glyphName="acutecomb.case" x="477" y="0" flags="0x0"/>
    </TTGlyph>
    <TTGlyph name="Nacute.loclPLK" xMin="110" yMin="0" xMax="564" yMax="911">
      <component glyphName="N" x="0" y="0" flags="0x0"/>
      <component glyphName="acute.case.loclPLK" x="211" y="0" flags="0x0"/>
    </TTGlyph>
    <TTGlyph name="Ncaron" xMin="110" yMin="0" xMax="564" yMax="890">
      <component glyphName="N" x="0" y="0" flags="0x0"/>
      <component glyphName="uni030C.case" x="520" y="0" flags="0x0"/>
    </TTGlyph>
    <TTGlyph name="Ncommaaccent" xMin="110" yMin="-281" xMax="564" yMax="686">
      <component glyphName="N" x="0" y="0" flags="0x0"/>
      <component glyphName="uni0326.case" x="413" y="0" flags="0x0"/>
    </TTGlyph>
    <TTGlyph name="Ntilde" xMin="110" yMin="0" xMax="564" yMax="886">
      <component glyphName="N" x="0" y="0" flags="0x0"/>
      <component glyphName="tildecomb.case" x="522" y="0" flags="0x0"/>
    </TTGlyph>
    <TTGlyph name="Nu" xMin="110" yMin="0" xMax="564" yMax="686">
      <component glyphName="N" x="0" y="0" flags="0x0"/>
    </TTGlyph>
    <TTGlyph name="O" xMin="65" yMin="-11" xMax="626" yMax="697">
      <contour>
        <pt x="430" y="697" on="0"/>
        <pt x="556" y="615" on="0"/>
        <pt x="626" y="456" on="0"/>
        <pt x="626" y="342" on="1"/>
        <pt x="626" y="231" on="0"/>
        <pt x="557" y="72" on="0"/>
        <pt x="431" y="-11" on="0"/>
        <pt x="346" y="-11" on="1"/>
        <pt x="262" y="-11" on="0"/>
        <pt x="135" y="71" on="0"/>
        <pt x="65" y="229" on="0"/>
        <pt x="65" y="341" on="1"/>
        <pt x="65" y="452" on="0"/>
        <pt x="136" y="613" on="0"/>
        <pt x="263" y="697" on="0"/>
        <pt x="346" y="697" on="1"/>
      </contour>
      <contour>
        <pt x="246" y="642" on="0"/>
        <pt x="132" y="491" on="0"/>
        <pt x="132" y="341" on="1"/>
        <pt x="132" y="193" on="0"/>
        <pt x="248" y="43" on="0"/>
        <pt x="346" y="43" on="1"/>
        <pt x="447" y="43" on="0"/>
        <pt x="559" y="192" on="0"/>
        <pt x="559" y="342" on="1"/>
        <pt x="559" y="493" on="0"/>
        <pt x="447" y="642" on="0"/>
        <pt x="346" y="642" on="1"/>
      </contour>
    </TTGlyph>
    <TTGlyph name="OE" xMin="65" yMin="-11" xMax="826" yMax="697">
      <contour>
        <pt x="826" y="0" on="1"/>
        <pt x="403" y="0" on="1"/>
        <pt x="368" y="-11" on="0"/>
        <pt x="334" y="-11" on="1"/>
        <pt x="256" y="-11" on="0"/>
        <pt x="134" y="71" on="0"/>
        <pt x="65" y="230" on="0"/>
        <pt x="65" y="341" on="1"/>
        <pt x="65" y="452" on="0"/>
        <pt x="134" y="613" on="0"/>
        <pt x="256" y="697" on="0"/>
        <pt x="334" y="697" on="1"/>
        <pt x="371" y="697" on="0"/>
        <pt x="406" y="686" on="1"/>
        <pt x="819" y="686" on="1"/>
        <pt x="811" y="632" on="1"/>
        <pt x="497" y="632" on="1"/>
        <pt x="545" y="594" on="0"/>
        <pt x="601" y="466" on="0"/>
        <pt x="605" y="381" on="1"/>
        <pt x="774" y="381" on="1"/>
        <pt x="774" y="328" on="1"/>
        <pt x="606" y="328" on="1"/>
        <pt x="604" y="234" on="0"/>
        <pt x="546" y="95" on="0"/>
        <pt x="494" y="53" on="1"/>
        <pt x="826" y="53" on="1"/>
      </contour>
      <contour>
        <pt x="132" y="194" on="0"/>
        <pt x="245" y="43" on="0"/>
        <pt x="336" y="43" on="1"/>
        <pt x="430" y="43" on="0"/>
        <pt x="539" y="194" on="0"/>
        <pt x="539" y="346" on="1"/>
        <pt x="539" y="493" on="0"/>
        <pt x="430" y="642" on="0"/>
        <pt x="336" y="642" on="1"/>
        <pt x="243" y="642" on="0"/>
        <pt x="132" y="490" on="0"/>
        <pt x="132" y="341" on="1"/>
      </contour>
    </TTGlyph>
    <TTGlyph name="Oacute" xMin="65" yMin="-11" xMax="626" yMax="891">
      <component glyphName="O" x="0" y="0" flags="0x0"/>
      <component glyphName="acutecomb.case" x="477" y="0" flags="0x0"/>
    </TTGlyph>
    <TTGlyph name="Oacute.loclPLK" xMin="65" yMin="-11" xMax="626" yMax="911">
      <component glyphName="O" x="0" y="0" flags="0x0"/>
      <component glyphName="acute.case.loclPLK" x="211" y="0" flags="0x0"/>
    </TTGlyph>
    <TTGlyph name="Obreve" xMin="65" yMin="-11" xMax="626" yMax="876">
      <component glyphName="O" x="0" y="0" flags="0x0"/>
      <component glyphName="uni0306.case" x="498" y="0" flags="0x0"/>
    </TTGlyph>
    <TTGlyph name="Ocircumflex" xMin="65" yMin="-11" xMax="626" yMax="896">
      <component glyphName="O" x="0" y="0" flags="0x0"/>
      <component glyphName="uni0302.case" x="525" y="0" flags="0x0"/>
    </TTGlyph>
    <TTGlyph name="Odieresis" xMin="65" yMin="-11" xMax="626" yMax="871">
      <component glyphName="O" x="0" y="0" flags="0x0"/>
      <component glyphName="uni0308.case" x="513" y="0" flags="0x0"/>
    </TTGlyph>
    <TTGlyph name="Ograve" xMin="65" yMin="-11" xMax="626" yMax="891">
      <component glyphName="O" x="0" y="0" flags="0x0"/>
      <component glyphName="gravecomb.case" x="471" y="0" flags="0x0"/>
    </TTGlyph>
    <TTGlyph name="Ohorn" xMin="65" yMin="-11" xMax="638" yMax="770">
      <contour>
        <pt x="638" y="651" on="0"/>
        <pt x="596" y="601" on="0"/>
        <pt x="557" y="595" on="1"/>
        <pt x="626" y="502" on="0"/>
        <pt x="626" y="342" on="1"/>
        <pt x="626" y="231" on="0"/>
        <pt x="557" y="72" on="0"/>
        <pt x="431" y="-11" on="0"/>
        <pt x="346" y="-11" on="1"/>
        <pt x="262" y="-11" on="0"/>
        <pt x="135" y="71" on="0"/>
        <pt x="65" y="229" on="0"/>
        <pt x="65" y="341" on="1"/>
        <pt x="65" y="452" on="0"/>
        <pt x="136" y="613" on="0"/>
        <pt x="263" y="697" on="0"/>
        <pt x="346" y="697" on="1"/>
        <pt x="454" y="697" on="0"/>
        <pt x="527" y="629" on="1"/>
        <pt x="557" y="633" on="0"/>
        <pt x="585" y="661" on="0"/>
        <pt x="585" y="686" on="1"/>
        <pt x="585" y="723" on="0"/>
        <pt x="571" y="758" on="1"/>
        <pt x="619" y="770" on="1"/>
        <pt x="638" y="736" on="0"/>
        <pt x="638" y="689" on="1"/>
      </contour>
      <contour>
        <pt x="447" y="43" on="0"/>
        <pt x="559" y="192" on="0"/>
        <pt x="559" y="342" on="1"/>
        <pt x="559" y="493" on="0"/>
        <pt x="447" y="642" on="0"/>
        <pt x="346" y="642" on="1"/>
        <pt x="246" y="642" on="0"/>
        <pt x="132" y="491" on="0"/>
        <pt x="132" y="341" on="1"/>
        <pt x="132" y="193" on="0"/>
        <pt x="248" y="43" on="0"/>
        <pt x="346" y="43" on="1"/>
      </contour>
    </TTGlyph>
    <TTGlyph name="Ohungarumlaut" xMin="65" yMin="-11" xMax="626" yMax="940">
      <component glyphName="O" x="0" y="0" flags="0x0"/>
      <component glyphName="uni030B.case" x="552" y="0" flags="0x0"/>
    </TTGlyph>
    <TTGlyph name="Omacron" xMin="65" yMin="-11" xMax="626" yMax="850">
      <component glyphName="O" x="0" y="0" flags="0x0"/>
      <component glyphName="uni0304.case" x="493" y="0" flags="0x0"/>
    </TTGlyph>
    <TTGlyph name="Omega" xMin="65" yMin="0" xMax="626" yMax="697">
      <contour>
        <pt x="431" y="697" on="0"/>
        <pt x="557" y="616" on="0"/>
        <pt x="626" y="459" on="0"/>
        <pt x="626" y="347" on="1"/>
        <pt x="626" y="230" on="0"/>
        <pt x="558" y="94" on="0"/>
        <pt x="484" y="56" on="1"/>
        <pt x="604" y="56" on="1"/>
        <pt x="604" y="0" on="1"/>
        <pt x="404" y="0" on="1"/>
        <pt x="404" y="55" on="1"/>
        <pt x="482" y="84" on="0"/>
        <pt x="559" y="225" on="0"/>
        <pt x="559" y="347" on="1"/>
        <pt x="559" y="495" on="0"/>
        <pt x="447" y="642" on="0"/>
        <pt x="346" y="642" on="1"/>
        <pt x="247" y="642" on="0"/>
        <pt x="132" y="493" on="0"/>
        <pt x="132" y="346" on="1"/>
        <pt x="132" y="223" on="0"/>
        <pt x="210" y="86" on="0"/>
        <pt x="287" y="55" on="1"/>
        <pt x="287" y="0" on="1"/>
        <pt x="86" y="0" on="1"/>
        <pt x="86" y="56" on="1"/>
        <pt x="204" y="56" on="1"/>
        <pt x="131" y="94" on="0"/>
        <pt x="65" y="230" on="0"/>
        <pt x="65" y="346" on="1"/>
        <pt x="65" y="455" on="0"/>
        <pt x="136" y="614" on="0"/>
        <pt x="263" y="697" on="0"/>
        <pt x="346" y="697" on="1"/>
      </contour>
    </TTGlyph>
    <TTGlyph name="Omegatonos" xMin="30" yMin="0" xMax="688" yMax="699">
      <component glyphName="tonos.case" x="0" y="0" flags="0x0"/>
      <component glyphName="Omega" x="62" y="0" flags="0x0"/>
    </TTGlyph>
    <TTGlyph name="Omicron" xMin="65" yMin="-11" xMax="626" yMax="697">
      <contour>
        <pt x="430" y="697" on="0"/>
        <pt x="556" y="615" on="0"/>
        <pt x="626" y="456" on="0"/>
        <pt x="626" y="342" on="1"/>
        <pt x="626" y="231" on="0"/>
        <pt x="557" y="72" on="0"/>
        <pt x="431" y="-11" on="0"/>
        <pt x="346" y="-11" on="1"/>
        <pt x="262" y="-11" on="0"/>
        <pt x="135" y="71" on="0"/>
        <pt x="65" y="229" on="0"/>
        <pt x="65" y="341" on="1"/>
        <pt x="65" y="452" on="0"/>
        <pt x="136" y="613" on="0"/>
        <pt x="263" y="697" on="0"/>
        <pt x="346" y="697" on="1"/>
      </contour>
      <contour>
        <pt x="246" y="642" on="0"/>
        <pt x="132" y="491" on="0"/>
        <pt x="132" y="341" on="1"/>
        <pt x="132" y="193" on="0"/>
        <pt x="248" y="43" on="0"/>
        <pt x="346" y="43" on="1"/>
        <pt x="447" y="43" on="0"/>
        <pt x="559" y="192" on="0"/>
        <pt x="559" y="342" on="1"/>
        <pt x="559" y="493" on="0"/>
        <pt x="447" y="642" on="0"/>
        <pt x="346" y="642" on="1"/>
      </contour>
    </TTGlyph>
    <TTGlyph name="Omicrontonos" xMin="30" yMin="-11" xMax="688" yMax="699">
      <component glyphName="tonos.case" x="0" y="0" flags="0x0"/>
      <component glyphName="O" x="62" y="0" flags="0x0"/>
    </TTGlyph>
    <TTGlyph name="Oslash" xMin="65" yMin="-121" xMax="626" yMax="811">
      <contour>
        <pt x="545" y="631" on="0"/>
        <pt x="626" y="465" on="0"/>
        <pt x="626" y="342" on="1"/>
        <pt x="626" y="231" on="0"/>
        <pt x="557" y="72" on="0"/>
        <pt x="431" y="-11" on="0"/>
        <pt x="346" y="-11" on="1"/>
        <pt x="303" y="-11" on="0"/>
        <pt x="269" y="-1" on="1"/>
        <pt x="236" y="-121" on="1"/>
        <pt x="180" y="-106" on="1"/>
        <pt x="219" y="18" on="1"/>
        <pt x="146" y="56" on="0"/>
        <pt x="65" y="220" on="0"/>
        <pt x="65" y="341" on="1"/>
        <pt x="65" y="452" on="0"/>
        <pt x="136" y="613" on="0"/>
        <pt x="263" y="697" on="0"/>
        <pt x="346" y="697" on="1"/>
        <pt x="386" y="697" on="0"/>
        <pt x="420" y="688" on="1"/>
        <pt x="455" y="811" on="1"/>
        <pt x="511" y="796" on="1"/>
        <pt x="471" y="669" on="1"/>
      </contour>
      <contour>
        <pt x="132" y="236" on="0"/>
        <pt x="189" y="101" on="0"/>
        <pt x="241" y="70" on="1"/>
        <pt x="409" y="634" on="1"/>
        <pt x="382" y="642" on="0"/>
        <pt x="346" y="642" on="1"/>
        <pt x="246" y="642" on="0"/>
        <pt x="132" y="491" on="0"/>
        <pt x="132" y="341" on="1"/>
      </contour>
      <contour>
        <pt x="447" y="43" on="0"/>
        <pt x="559" y="192" on="0"/>
        <pt x="559" y="342" on="1"/>
        <pt x="559" y="554" on="0"/>
        <pt x="449" y="618" on="1"/>
        <pt x="281" y="52" on="1"/>
        <pt x="311" y="43" on="0"/>
        <pt x="346" y="43" on="1"/>
      </contour>
    </TTGlyph>
    <TTGlyph name="Oslashacute" xMin="65" yMin="-121" xMax="626" yMax="904">
      <component glyphName="Oslash" x="0" y="0" flags="0x0"/>
      <component glyphName="acutecomb.case" x="470" y="13" flags="0x0"/>
    </TTGlyph>
    <TTGlyph name="Otilde" xMin="65" yMin="-11" xMax="626" yMax="886">
      <component glyphName="O" x="0" y="0" flags="0x0"/>
      <component glyphName="tildecomb.case" x="521" y="0" flags="0x0"/>
    </TTGlyph>
    <TTGlyph name="P" xMin="110" yMin="0" xMax="528" yMax="686">
      <contour>
        <pt x="396" y="686" on="0"/>
        <pt x="528" y="584" on="0"/>
        <pt x="528" y="479" on="1"/>
        <pt x="528" y="369" on="0"/>
        <pt x="389" y="265" on="0"/>
        <pt x="271" y="265" on="1"/>
        <pt x="174" y="265" on="1"/>
        <pt x="174" y="0" on="1"/>
        <pt x="110" y="0" on="1"/>
        <pt x="110" y="686" on="1"/>
        <pt x="273" y="686" on="1"/>
      </contour>
      <contour>
        <pt x="362" y="318" on="0"/>
        <pt x="461" y="390" on="0"/>
        <pt x="461" y="478" on="1"/>
        <pt x="461" y="561" on="0"/>
        <pt x="365" y="633" on="0"/>
        <pt x="272" y="633" on="1"/>
        <pt x="174" y="633" on="1"/>
        <pt x="174" y="318" on="1"/>
        <pt x="270" y="318" on="1"/>
      </contour>
    </TTGlyph>
    <TTGlyph name="Phi" xMin="40" yMin="0" xMax="753" yMax="686">
      <contour>
        <pt x="753" y="215" on="0"/>
        <pt x="586" y="75" on="0"/>
        <pt x="428" y="70" on="1"/>
        <pt x="428" y="0" on="1"/>
        <pt x="365" y="0" on="1"/>
        <pt x="365" y="70" on="1"/>
        <pt x="206" y="75" on="0"/>
        <pt x="40" y="220" on="0"/>
        <pt x="40" y="343" on="1"/>
        <pt x="40" y="471" on="0"/>
        <pt x="207" y="610" on="0"/>
        <pt x="365" y="615" on="1"/>
        <pt x="365" y="686" on="1"/>
        <pt x="428" y="686" on="1"/>
        <pt x="428" y="615" on="1"/>
        <pt x="587" y="610" on="0"/>
        <pt x="753" y="467" on="0"/>
        <pt x="753" y="345" on="1"/>
      </contour>
      <contour>
        <pt x="106" y="237" on="0"/>
        <pt x="238" y="124" on="0"/>
        <pt x="367" y="120" on="1"/>
        <pt x="367" y="565" on="1"/>
        <pt x="235" y="558" on="0"/>
        <pt x="106" y="451" on="0"/>
        <pt x="106" y="343" on="1"/>
      </contour>
      <contour>
        <pt x="558" y="127" on="0"/>
        <pt x="687" y="235" on="0"/>
        <pt x="687" y="345" on="1"/>
        <pt x="687" y="448" on="0"/>
        <pt x="555" y="561" on="0"/>
        <pt x="426" y="565" on="1"/>
        <pt x="426" y="120" on="1"/>
      </contour>
    </TTGlyph>
    <TTGlyph name="Pi" xMin="110" yMin="0" xMax="557" yMax="686">
      <component glyphName="uni041F" x="0" y="0" flags="0x0"/>
    </TTGlyph>
    <TTGlyph name="Psi" xMin="40" yMin="0" xMax="633" yMax="686">
      <contour>
        <pt x="633" y="686" on="1"/>
        <pt x="633" y="428" on="1"/>
        <pt x="633" y="321" on="0"/>
        <pt x="497" y="207" on="0"/>
        <pt x="368" y="199" on="1"/>
        <pt x="368" y="0" on="1"/>
        <pt x="304" y="0" on="1"/>
        <pt x="304" y="199" on="1"/>
        <pt x="173" y="207" on="0"/>
        <pt x="40" y="321" on="0"/>
        <pt x="40" y="426" on="1"/>
        <pt x="40" y="686" on="1"/>
        <pt x="103" y="686" on="1"/>
        <pt x="103" y="431" on="1"/>
        <pt x="103" y="345" on="0"/>
        <pt x="202" y="257" on="0"/>
        <pt x="305" y="253" on="1"/>
        <pt x="305" y="686" on="1"/>
        <pt x="367" y="686" on="1"/>
        <pt x="367" y="253" on="1"/>
        <pt x="469" y="258" on="0"/>
        <pt x="570" y="346" on="0"/>
        <pt x="570" y="431" on="1"/>
        <pt x="570" y="686" on="1"/>
      </contour>
    </TTGlyph>
    <TTGlyph name="Q" xMin="65" yMin="-94" xMax="651" yMax="697">
      <contour>
        <pt x="512" y="24" on="0"/>
        <pt x="612" y="-9" on="0"/>
        <pt x="651" y="-40" on="1"/>
        <pt x="609" y="-94" on="1"/>
        <pt x="554" y="-45" on="0"/>
        <pt x="438" y="-9" on="0"/>
        <pt x="344" y="-9" on="1"/>
        <pt x="261" y="-9" on="0"/>
        <pt x="135" y="72" on="0"/>
        <pt x="65" y="229" on="0"/>
        <pt x="65" y="341" on="1"/>
        <pt x="65" y="452" on="0"/>
        <pt x="136" y="613" on="0"/>
        <pt x="263" y="697" on="0"/>
        <pt x="346" y="697" on="1"/>
        <pt x="430" y="697" on="0"/>
        <pt x="556" y="615" on="0"/>
        <pt x="626" y="456" on="0"/>
        <pt x="626" y="342" on="1"/>
        <pt x="626" y="93" on="0"/>
        <pt x="455" y="25" on="1"/>
      </contour>
      <contour>
        <pt x="132" y="193" on="0"/>
        <pt x="248" y="43" on="0"/>
        <pt x="346" y="43" on="1"/>
        <pt x="447" y="43" on="0"/>
        <pt x="559" y="192" on="0"/>
        <pt x="559" y="342" on="1"/>
        <pt x="559" y="493" on="0"/>
        <pt x="447" y="642" on="0"/>
        <pt x="346" y="642" on="1"/>
        <pt x="246" y="642" on="0"/>
        <pt x="132" y="491" on="0"/>
        <pt x="132" y="341" on="1"/>
      </contour>
    </TTGlyph>
    <TTGlyph name="R" xMin="110" yMin="0" xMax="559" yMax="686">
      <contour>
        <pt x="307" y="306" on="1"/>
        <pt x="174" y="306" on="1"/>
        <pt x="174" y="0" on="1"/>
        <pt x="110" y="0" on="1"/>
        <pt x="110" y="686" on="1"/>
        <pt x="278" y="686" on="1"/>
        <pt x="523" y="686" on="0"/>
        <pt x="523" y="498" on="1"/>
        <pt x="523" y="424" on="0"/>
        <pt x="446" y="336" on="0"/>
        <pt x="371" y="317" on="1"/>
        <pt x="559" y="0" on="1"/>
        <pt x="482" y="0" on="1"/>
      </contour>
      <contour>
        <pt x="286" y="357" on="1"/>
        <pt x="456" y="357" on="0"/>
        <pt x="456" y="498" on="1"/>
        <pt x="456" y="567" on="0"/>
        <pt x="371" y="633" on="0"/>
        <pt x="275" y="633" on="1"/>
        <pt x="174" y="633" on="1"/>
        <pt x="174" y="357" on="1"/>
      </contour>
    </TTGlyph>
    <TTGlyph name="Racute" xMin="110" yMin="0" xMax="559" yMax="891">
      <component glyphName="R" x="0" y="0" flags="0x0"/>
      <component glyphName="acutecomb.case" x="426" y="0" flags="0x0"/>
    </TTGlyph>
    <TTGlyph name="Rcaron" xMin="110" yMin="0" xMax="559" yMax="890">
      <component glyphName="R" x="0" y="0" flags="0x0"/>
      <component glyphName="uni030C.case" x="469" y="0" flags="0x0"/>
    </TTGlyph>
    <TTGlyph name="Rcommaaccent" xMin="110" yMin="-281" xMax="559" yMax="686">
      <component glyphName="R" x="0" y="0" flags="0x0"/>
      <component glyphName="uni0326.case" x="383" y="0" flags="0x0"/>
    </TTGlyph>
    <TTGlyph name="Rho" xMin="110" yMin="0" xMax="528" yMax="686">
      <contour>
        <pt x="396" y="686" on="0"/>
        <pt x="528" y="584" on="0"/>
        <pt x="528" y="479" on="1"/>
        <pt x="528" y="369" on="0"/>
        <pt x="389" y="265" on="0"/>
        <pt x="271" y="265" on="1"/>
        <pt x="174" y="265" on="1"/>
        <pt x="174" y="0" on="1"/>
        <pt x="110" y="0" on="1"/>
        <pt x="110" y="686" on="1"/>
        <pt x="273" y="686" on="1"/>
      </contour>
      <contour>
        <pt x="362" y="318" on="0"/>
        <pt x="461" y="390" on="0"/>
        <pt x="461" y="478" on="1"/>
        <pt x="461" y="561" on="0"/>
        <pt x="365" y="633" on="0"/>
        <pt x="272" y="633" on="1"/>
        <pt x="174" y="633" on="1"/>
        <pt x="174" y="318" on="1"/>
        <pt x="270" y="318" on="1"/>
      </contour>
    </TTGlyph>
    <TTGlyph name="S" xMin="37" yMin="-11" xMax="488" yMax="697">
      <contour>
        <pt x="331" y="697" on="0"/>
        <pt x="423" y="660" on="0"/>
        <pt x="466" y="621" on="1"/>
        <pt x="430" y="580" on="1"/>
        <pt x="392" y="613" on="0"/>
        <pt x="317" y="642" on="0"/>
        <pt x="270" y="642" on="1"/>
        <pt x="207" y="642" on="0"/>
        <pt x="130" y="581" on="0"/>
        <pt x="130" y="529" on="1"/>
        <pt x="130" y="494" on="0"/>
        <pt x="158" y="447" on="0"/>
        <pt x="226" y="410" on="0"/>
        <pt x="288" y="391" on="1"/>
        <pt x="356" y="371" on="0"/>
        <pt x="441" y="323" on="0"/>
        <pt x="488" y="247" on="0"/>
        <pt x="488" y="188" on="1"/>
        <pt x="488" y="129" on="0"/>
        <pt x="431" y="39" on="0"/>
        <pt x="327" y="-11" on="0"/>
        <pt x="258" y="-11" on="1"/>
        <pt x="128" y="-11" on="0"/>
        <pt x="37" y="75" on="1"/>
        <pt x="74" y="116" on="1"/>
        <pt x="115" y="80" on="0"/>
        <pt x="201" y="43" on="0"/>
        <pt x="257" y="43" on="1"/>
        <pt x="330" y="43" on="0"/>
        <pt x="421" y="119" on="0"/>
        <pt x="421" y="186" on="1"/>
        <pt x="421" y="227" on="0"/>
        <pt x="391" y="280" on="0"/>
        <pt x="323" y="318" on="0"/>
        <pt x="261" y="337" on="1"/>
        <pt x="156" y="369" on="0"/>
        <pt x="65" y="454" on="0"/>
        <pt x="65" y="527" on="1"/>
        <pt x="65" y="576" on="0"/>
        <pt x="116" y="653" on="0"/>
        <pt x="208" y="697" on="0"/>
        <pt x="268" y="697" on="1"/>
      </contour>
    </TTGlyph>
    <TTGlyph name="Sacute" xMin="37" yMin="-11" xMax="488" yMax="891">
      <component glyphName="S" x="0" y="0" flags="0x0"/>
      <component glyphName="acutecomb.case" x="403" y="0" flags="0x0"/>
    </TTGlyph>
    <TTGlyph name="Sacute.loclPLK" xMin="37" yMin="-11" xMax="488" yMax="911">
      <component glyphName="S" x="0" y="0" flags="0x0"/>
      <component glyphName="acute.case.loclPLK" x="137" y="0" flags="0x0"/>
    </TTGlyph>
    <TTGlyph name="Scaron" xMin="37" yMin="-11" xMax="488" yMax="890">
      <component glyphName="S" x="0" y="0" flags="0x0"/>
      <component glyphName="uni030C.case" x="446" y="0" flags="0x0"/>
    </TTGlyph>
    <TTGlyph name="Scedilla" xMin="37" yMin="-229" xMax="488" yMax="697">
      <contour>
        <pt x="488" y="105" on="0"/>
        <pt x="376" y="-3" on="0"/>
        <pt x="282" y="-10" on="1"/>
        <pt x="282" y="-63" on="1"/>
        <pt x="329" y="-67" on="0"/>
        <pt x="374" y="-108" on="0"/>
        <pt x="374" y="-141" on="1"/>
        <pt x="374" y="-182" on="0"/>
        <pt x="312" y="-229" on="0"/>
        <pt x="266" y="-229" on="1"/>
        <pt x="217" y="-229" on="0"/>
        <pt x="185" y="-207" on="1"/>
        <pt x="204" y="-169" on="1"/>
        <pt x="232" y="-185" on="0"/>
        <pt x="265" y="-185" on="1"/>
        <pt x="289" y="-185" on="0"/>
        <pt x="319" y="-163" on="0"/>
        <pt x="319" y="-141" on="1"/>
        <pt x="319" y="-118" on="0"/>
        <pt x="277" y="-97" on="0"/>
        <pt x="230" y="-96" on="1"/>
        <pt x="238" y="-11" on="1"/>
        <pt x="121" y="-4" on="0"/>
        <pt x="37" y="75" on="1"/>
        <pt x="74" y="116" on="1"/>
        <pt x="115" y="80" on="0"/>
        <pt x="201" y="43" on="0"/>
        <pt x="257" y="43" on="1"/>
        <pt x="330" y="43" on="0"/>
        <pt x="421" y="119" on="0"/>
        <pt x="421" y="186" on="1"/>
        <pt x="421" y="227" on="0"/>
        <pt x="391" y="280" on="0"/>
        <pt x="323" y="318" on="0"/>
        <pt x="261" y="337" on="1"/>
        <pt x="156" y="369" on="0"/>
        <pt x="65" y="454" on="0"/>
        <pt x="65" y="527" on="1"/>
        <pt x="65" y="576" on="0"/>
        <pt x="116" y="653" on="0"/>
        <pt x="208" y="697" on="0"/>
        <pt x="268" y="697" on="1"/>
        <pt x="331" y="697" on="0"/>
        <pt x="423" y="660" on="0"/>
        <pt x="466" y="621" on="1"/>
        <pt x="430" y="580" on="1"/>
        <pt x="392" y="613" on="0"/>
        <pt x="317" y="642" on="0"/>
        <pt x="270" y="642" on="1"/>
        <pt x="207" y="642" on="0"/>
        <pt x="130" y="581" on="0"/>
        <pt x="130" y="529" on="1"/>
        <pt x="130" y="494" on="0"/>
        <pt x="158" y="447" on="0"/>
        <pt x="226" y="410" on="0"/>
        <pt x="288" y="391" on="1"/>
        <pt x="356" y="371" on="0"/>
        <pt x="441" y="323" on="0"/>
        <pt x="488" y="247" on="0"/>
        <pt x="488" y="188" on="1"/>
      </contour>
    </TTGlyph>
    <TTGlyph name="Scircumflex" xMin="37" yMin="-11" xMax="488" yMax="896">
      <component glyphName="S" x="0" y="0" flags="0x0"/>
      <component glyphName="uni0302.case" x="452" y="0" flags="0x0"/>
    </TTGlyph>
    <TTGlyph name="Scommaaccent" xMin="37" yMin="-281" xMax="488" yMax="697">
      <component glyphName="S" x="0" y="0" flags="0x0"/>
      <component glyphName="uni0326.case" x="340" y="0" flags="0x0"/>
    </TTGlyph>
    <TTGlyph name="Sigma" xMin="45" yMin="0" xMax="450" yMax="686">
      <contour>
        <pt x="450" y="631" on="1"/>
        <pt x="122" y="631" on="1"/>
        <pt x="334" y="359" on="1"/>
        <pt x="334" y="321" on="1"/>
        <pt x="122" y="54" on="1"/>
        <pt x="450" y="54" on="1"/>
        <pt x="450" y="0" on="1"/>
        <pt x="45" y="0" on="1"/>
        <pt x="45" y="48" on="1"/>
        <pt x="275" y="339" on="1"/>
        <pt x="45" y="638" on="1"/>
        <pt x="45" y="686" on="1"/>
        <pt x="450" y="686" on="1"/>
      </contour>
    </TTGlyph>
    <TTGlyph name="T" xMin="15" yMin="0" xMax="488" yMax="686">
      <contour>
        <pt x="480" y="629" on="1"/>
        <pt x="281" y="629" on="1"/>
        <pt x="281" y="0" on="1"/>
        <pt x="217" y="0" on="1"/>
        <pt x="217" y="629" on="1"/>
        <pt x="15" y="629" on="1"/>
        <pt x="15" y="686" on="1"/>
        <pt x="488" y="686" on="1"/>
      </contour>
    </TTGlyph>
    <TTGlyph name="Tau" xMin="15" yMin="0" xMax="488" yMax="686">
      <component glyphName="T" x="0" y="0" flags="0x0"/>
    </TTGlyph>
    <TTGlyph name="Tbar" xMin="15" yMin="-1" xMax="488" yMax="685">
      <contour>
        <pt x="281" y="628" on="1"/>
        <pt x="281" y="385" on="1"/>
        <pt x="405" y="385" on="1"/>
        <pt x="405" y="335" on="1"/>
        <pt x="281" y="335" on="1"/>
        <pt x="281" y="-1" on="1"/>
        <pt x="217" y="-1" on="1"/>
        <pt x="217" y="335" on="1"/>
        <pt x="93" y="335" on="1"/>
        <pt x="93" y="385" on="1"/>
        <pt x="217" y="385" on="1"/>
        <pt x="217" y="628" on="1"/>
        <pt x="15" y="628" on="1"/>
        <pt x="15" y="685" on="1"/>
        <pt x="488" y="685" on="1"/>
        <pt x="480" y="628" on="1"/>
      </contour>
    </TTGlyph>
    <TTGlyph name="Tcaron" xMin="15" yMin="0" xMax="488" yMax="890">
      <component glyphName="T" x="0" y="0" flags="0x0"/>
      <component glyphName="uni030C.case" x="423" y="0" flags="0x0"/>
    </TTGlyph>
    <TTGlyph name="Theta" xMin="65" yMin="-11" xMax="626" yMax="697">
      <contour>
        <pt x="430" y="697" on="0"/>
        <pt x="556" y="615" on="0"/>
        <pt x="626" y="456" on="0"/>
        <pt x="626" y="342" on="1"/>
        <pt x="626" y="231" on="0"/>
        <pt x="557" y="72" on="0"/>
        <pt x="431" y="-11" on="0"/>
        <pt x="346" y="-11" on="1"/>
        <pt x="262" y="-11" on="0"/>
        <pt x="135" y="71" on="0"/>
        <pt x="65" y="229" on="0"/>
        <pt x="65" y="341" on="1"/>
        <pt x="65" y="452" on="0"/>
        <pt x="136" y="613" on="0"/>
        <pt x="263" y="697" on="0"/>
        <pt x="346" y="697" on="1"/>
      </contour>
      <contour>
        <pt x="246" y="642" on="0"/>
        <pt x="132" y="491" on="0"/>
        <pt x="132" y="341" on="1"/>
        <pt x="132" y="193" on="0"/>
        <pt x="248" y="43" on="0"/>
        <pt x="346" y="43" on="1"/>
        <pt x="447" y="43" on="0"/>
        <pt x="559" y="192" on="0"/>
        <pt x="559" y="342" on="1"/>
        <pt x="559" y="493" on="0"/>
        <pt x="447" y="642" on="0"/>
        <pt x="346" y="642" on="1"/>
      </contour>
      <contour>
        <pt x="473" y="326" on="1"/>
        <pt x="217" y="326" on="1"/>
        <pt x="217" y="377" on="1"/>
        <pt x="473" y="377" on="1"/>
      </contour>
    </TTGlyph>
    <TTGlyph name="Thorn" xMin="110" yMin="0" xMax="528" yMax="686">
      <contour>
        <pt x="396" y="564" on="0"/>
        <pt x="528" y="461" on="0"/>
        <pt x="528" y="355" on="1"/>
        <pt x="528" y="241" on="0"/>
        <pt x="390" y="135" on="0"/>
        <pt x="271" y="135" on="1"/>
        <pt x="174" y="135" on="1"/>
        <pt x="174" y="0" on="1"/>
        <pt x="110" y="0" on="1"/>
        <pt x="110" y="686" on="1"/>
        <pt x="174" y="686" on="1"/>
        <pt x="174" y="564" on="1"/>
        <pt x="273" y="564" on="1"/>
      </contour>
      <contour>
        <pt x="362" y="188" on="0"/>
        <pt x="461" y="262" on="0"/>
        <pt x="461" y="354" on="1"/>
        <pt x="461" y="438" on="0"/>
        <pt x="365" y="512" on="0"/>
        <pt x="272" y="512" on="1"/>
        <pt x="174" y="512" on="1"/>
        <pt x="174" y="188" on="1"/>
        <pt x="270" y="188" on="1"/>
      </contour>
    </TTGlyph>
    <TTGlyph name="U" xMin="100" yMin="-11" xMax="553" yMax="686">
      <contour>
        <pt x="553" y="215" on="1"/>
        <pt x="553" y="113" on="0"/>
        <pt x="436" y="-11" on="0"/>
        <pt x="326" y="-11" on="1"/>
        <pt x="215" y="-11" on="0"/>
        <pt x="100" y="112" on="0"/>
        <pt x="100" y="215" on="1"/>
        <pt x="100" y="686" on="1"/>
        <pt x="164" y="686" on="1"/>
        <pt x="164" y="220" on="1"/>
        <pt x="164" y="135" on="0"/>
        <pt x="244" y="44" on="0"/>
        <pt x="326" y="44" on="1"/>
        <pt x="409" y="44" on="0"/>
        <pt x="489" y="136" on="0"/>
        <pt x="489" y="220" on="1"/>
        <pt x="489" y="686" on="1"/>
        <pt x="553" y="686" on="1"/>
      </contour>
    </TTGlyph>
    <TTGlyph name="Uacute" xMin="100" yMin="-11" xMax="553" yMax="891">
      <component glyphName="U" x="0" y="0" flags="0x0"/>
      <component glyphName="acutecomb.case" x="458" y="0" flags="0x0"/>
    </TTGlyph>
    <TTGlyph name="Ubreve" xMin="100" yMin="-11" xMax="553" yMax="876">
      <component glyphName="U" x="0" y="0" flags="0x0"/>
      <component glyphName="uni0306.case" x="480" y="0" flags="0x0"/>
    </TTGlyph>
    <TTGlyph name="Ucircumflex" xMin="100" yMin="-11" xMax="553" yMax="896">
      <component glyphName="U" x="0" y="0" flags="0x0"/>
      <component glyphName="uni0302.case" x="506" y="0" flags="0x0"/>
    </TTGlyph>
    <TTGlyph name="Udieresis" xMin="100" yMin="-11" xMax="553" yMax="871">
      <component glyphName="U" x="0" y="0" flags="0x0"/>
      <component glyphName="uni0308.case" x="494" y="0" flags="0x0"/>
    </TTGlyph>
    <TTGlyph name="Ugrave" xMin="100" yMin="-11" xMax="553" yMax="891">
      <component glyphName="U" x="0" y="0" flags="0x0"/>
      <component glyphName="gravecomb.case" x="453" y="0" flags="0x0"/>
    </TTGlyph>
    <TTGlyph name="Uhorn" xMin="100" yMin="-11" xMax="658" yMax="770">
      <component glyphName="U" x="0" y="0" flags="0x0"/>
      <component glyphName="uni031B.case" x="688" y="0" flags="0x0"/>
    </TTGlyph>
    <TTGlyph name="Uhungarumlaut" xMin="100" yMin="-11" xMax="553" yMax="940">
      <component glyphName="U" x="0" y="0" flags="0x0"/>
      <component glyphName="uni030B.case" x="534" y="0" flags="0x0"/>
    </TTGlyph>
    <TTGlyph name="Umacron" xMin="100" yMin="-11" xMax="553" yMax="850">
      <component glyphName="U" x="0" y="0" flags="0x0"/>
      <component glyphName="uni0304.case" x="474" y="0" flags="0x0"/>
    </TTGlyph>
    <TTGlyph name="Uogonek" xMin="100" yMin="-219" xMax="553" yMax="686">
      <contour>
        <pt x="553" y="686" on="1"/>
        <pt x="553" y="215" on="1"/>
        <pt x="553" y="134" on="0"/>
        <pt x="478" y="20" on="0"/>
        <pt x="407" y="-1" on="1"/>
        <pt x="341" y="-30" on="0"/>
        <pt x="286" y="-83" on="0"/>
        <pt x="286" y="-117" on="1"/>
        <pt x="286" y="-169" on="0"/>
        <pt x="349" y="-169" on="1"/>
        <pt x="375" y="-169" on="0"/>
        <pt x="406" y="-162" on="1"/>
        <pt x="400" y="-213" on="1"/>
        <pt x="370" y="-219" on="0"/>
        <pt x="341" y="-219" on="1"/>
        <pt x="288" y="-219" on="0"/>
        <pt x="228" y="-167" on="0"/>
        <pt x="228" y="-127" on="1"/>
        <pt x="228" y="-53" on="0"/>
        <pt x="322" y="-11" on="1"/>
        <pt x="213" y="-10" on="0"/>
        <pt x="100" y="113" on="0"/>
        <pt x="100" y="215" on="1"/>
        <pt x="100" y="686" on="1"/>
        <pt x="164" y="686" on="1"/>
        <pt x="164" y="220" on="1"/>
        <pt x="164" y="135" on="0"/>
        <pt x="244" y="44" on="0"/>
        <pt x="326" y="44" on="1"/>
        <pt x="409" y="44" on="0"/>
        <pt x="489" y="136" on="0"/>
        <pt x="489" y="220" on="1"/>
        <pt x="489" y="686" on="1"/>
      </contour>
    </TTGlyph>
    <TTGlyph name="Upsilon" xMin="12" yMin="0" xMax="514" yMax="686">
      <contour>
        <pt x="296" y="268" on="1"/>
        <pt x="296" y="0" on="1"/>
        <pt x="231" y="0" on="1"/>
        <pt x="231" y="267" on="1"/>
        <pt x="12" y="686" on="1"/>
        <pt x="83" y="686" on="1"/>
        <pt x="265" y="323" on="1"/>
        <pt x="446" y="686" on="1"/>
        <pt x="514" y="686" on="1"/>
      </contour>
    </TTGlyph>
    <TTGlyph name="Upsilondieresis" xMin="12" yMin="0" xMax="514" yMax="871">
      <component glyphName="Y" x="0" y="0" flags="0x0"/>
      <component glyphName="uni0308.case" x="431" y="0" flags="0x0"/>
    </TTGlyph>
    <TTGlyph name="Upsilontonos" xMin="30" yMin="0" xMax="666" yMax="699">
      <component glyphName="tonos.case" x="0" y="0" flags="0x0"/>
      <component glyphName="Y" x="152" y="0" flags="0x0"/>
    </TTGlyph>
    <TTGlyph name="Uring" xMin="100" yMin="-11" xMax="553" yMax="948">
      <component glyphName="U" x="0" y="0" flags="0x0"/>
      <component glyphName="uni030A.case" x="455" y="0" flags="0x0"/>
    </TTGlyph>
    <TTGlyph name="Utilde" xMin="100" yMin="-11" xMax="553" yMax="886">
      <component glyphName="U" x="0" y="0" flags="0x0"/>
      <component glyphName="tildecomb.case" x="502" y="0" flags="0x0"/>
    </TTGlyph>
    <TTGlyph name="V" xMin="15" yMin="0" xMax="532" yMax="686">
      <contour>
        <pt x="310" y="0" on="1"/>
        <pt x="238" y="0" on="1"/>
        <pt x="15" y="686" on="1"/>
        <pt x="84" y="686" on="1"/>
        <pt x="275" y="67" on="1"/>
        <pt x="467" y="686" on="1"/>
        <pt x="532" y="686" on="1"/>
      </contour>
    </TTGlyph>
    <TTGlyph name="W" xMin="30" yMin="0" xMax="782" yMax="686">
      <contour>
        <pt x="632" y="0" on="1"/>
        <pt x="552" y="0" on="1"/>
        <pt x="405" y="613" on="1"/>
        <pt x="258" y="0" on="1"/>
        <pt x="179" y="0" on="1"/>
        <pt x="30" y="686" on="1"/>
        <pt x="94" y="686" on="1"/>
        <pt x="222" y="58" on="1"/>
        <pt x="370" y="686" on="1"/>
        <pt x="441" y="686" on="1"/>
        <pt x="592" y="58" on="1"/>
        <pt x="721" y="686" on="1"/>
        <pt x="782" y="686" on="1"/>
      </contour>
    </TTGlyph>
    <TTGlyph name="Wacute" xMin="30" yMin="0" xMax="782" yMax="891">
      <component glyphName="W" x="0" y="0" flags="0x0"/>
      <component glyphName="acutecomb.case" x="537" y="0" flags="0x0"/>
    </TTGlyph>
    <TTGlyph name="Wcircumflex" xMin="30" yMin="0" xMax="782" yMax="896">
      <component glyphName="W" x="0" y="0" flags="0x0"/>
      <component glyphName="uni0302.case" x="585" y="0" flags="0x0"/>
    </TTGlyph>
    <TTGlyph name="Wdieresis" xMin="30" yMin="0" xMax="782" yMax="871">
      <component glyphName="W" x="0" y="0" flags="0x0"/>
      <component glyphName="uni0308.case" x="573" y="0" flags="0x0"/>
    </TTGlyph>
    <TTGlyph name="Wgrave" xMin="30" yMin="0" xMax="782" yMax="891">
      <component glyphName="W" x="0" y="0" flags="0x0"/>
      <component glyphName="gravecomb.case" x="532" y="0" flags="0x0"/>
    </TTGlyph>
    <TTGlyph name="X" xMin="10" yMin="0" xMax="507" yMax="686">
      <contour>
        <pt x="507" y="0" on="1"/>
        <pt x="435" y="0" on="1"/>
        <pt x="256" y="327" on="1"/>
        <pt x="79" y="0" on="1"/>
        <pt x="10" y="0" on="1"/>
        <pt x="218" y="368" on="1"/>
        <pt x="30" y="686" on="1"/>
        <pt x="102" y="686" on="1"/>
        <pt x="257" y="410" on="1"/>
        <pt x="411" y="686" on="1"/>
        <pt x="480" y="686" on="1"/>
        <pt x="294" y="371" on="1"/>
      </contour>
    </TTGlyph>
    <TTGlyph name="Xi" xMin="50" yMin="0" xMax="449" yMax="686">
      <contour>
        <pt x="431" y="627" on="1"/>
        <pt x="50" y="627" on="1"/>
        <pt x="50" y="686" on="1"/>
        <pt x="440" y="686" on="1"/>
      </contour>
      <contour>
        <pt x="386" y="325" on="1"/>
        <pt x="109" y="325" on="1"/>
        <pt x="109" y="383" on="1"/>
        <pt x="386" y="383" on="1"/>
      </contour>
      <contour>
        <pt x="449" y="0" on="1"/>
        <pt x="50" y="0" on="1"/>
        <pt x="50" y="60" on="1"/>
        <pt x="449" y="60" on="1"/>
      </contour>
    </TTGlyph>
    <TTGlyph name="Y" xMin="12" yMin="0" xMax="514" yMax="686">
      <contour>
        <pt x="296" y="268" on="1"/>
        <pt x="296" y="0" on="1"/>
        <pt x="231" y="0" on="1"/>
        <pt x="231" y="267" on="1"/>
        <pt x="12" y="686" on="1"/>
        <pt x="83" y="686" on="1"/>
        <pt x="265" y="323" on="1"/>
        <pt x="446" y="686" on="1"/>
        <pt x="514" y="686" on="1"/>
      </contour>
    </TTGlyph>
    <TTGlyph name="Yacute" xMin="12" yMin="0" xMax="514" yMax="891">
      <component glyphName="Y" x="0" y="0" flags="0x0"/>
      <component glyphName="acutecomb.case" x="394" y="0" flags="0x0"/>
    </TTGlyph>
    <TTGlyph name="Ycircumflex" xMin="12" yMin="0" xMax="514" yMax="896">
      <component glyphName="Y" x="0" y="0" flags="0x0"/>
      <component glyphName="uni0302.case" x="442" y="0" flags="0x0"/>
    </TTGlyph>
    <TTGlyph name="Ydieresis" xMin="12" yMin="0" xMax="514" yMax="871">
      <component glyphName="Y" x="0" y="0" flags="0x0"/>
      <component glyphName="uni0308.case" x="431" y="0" flags="0x0"/>
    </TTGlyph>
    <TTGlyph name="Ygrave" xMin="12" yMin="0" xMax="514" yMax="891">
      <component glyphName="Y" x="0" y="0" flags="0x0"/>
      <component glyphName="gravecomb.case" x="389" y="0" flags="0x0"/>
    </TTGlyph>
    <TTGlyph name="Z" xMin="35" yMin="0" xMax="469" yMax="686">
      <contour>
        <pt x="469" y="633" on="1"/>
        <pt x="107" y="56" on="1"/>
        <pt x="463" y="56" on="1"/>
        <pt x="456" y="0" on="1"/>
        <pt x="35" y="0" on="1"/>
        <pt x="35" y="53" on="1"/>
        <pt x="399" y="630" on="1"/>
        <pt x="72" y="630" on="1"/>
        <pt x="72" y="686" on="1"/>
        <pt x="469" y="686" on="1"/>
      </contour>
    </TTGlyph>
    <TTGlyph name="Zacute" xMin="35" yMin="0" xMax="469" yMax="891">
      <component glyphName="Z" x="0" y="0" flags="0x0"/>
      <component glyphName="acutecomb.case" x="395" y="0" flags="0x0"/>
    </TTGlyph>
    <TTGlyph name="Zacute.loclPLK" xMin="35" yMin="0" xMax="469" yMax="911">
      <component glyphName="Z" x="0" y="0" flags="0x0"/>
      <component glyphName="acute.case.loclPLK" x="129" y="0" flags="0x0"/>
    </TTGlyph>
    <TTGlyph name="Zcaron" xMin="35" yMin="0" xMax="469" yMax="890">
      <component glyphName="Z" x="0" y="0" flags="0x0"/>
      <component glyphName="uni030C.case" x="438" y="0" flags="0x0"/>
    </TTGlyph>
    <TTGlyph name="Zdotaccent" xMin="35" yMin="0" xMax="469" yMax="882">
      <component glyphName="Z" x="0" y="0" flags="0x0"/>
      <component glyphName="uni0307.case" x="338" y="0" flags="0x0"/>
    </TTGlyph>
    <TTGlyph name="Zeta" xMin="35" yMin="0" xMax="469" yMax="686">
      <component glyphName="Z" x="0" y="0" flags="0x0"/>
    </TTGlyph>
    <TTGlyph name="a" xMin="55" yMin="-11" xMax="478" yMax="535">
      <contour>
        <pt x="434" y="76" on="0"/>
        <pt x="455" y="41" on="0"/>
        <pt x="478" y="32" on="1"/>
        <pt x="463" y="-11" on="1"/>
        <pt x="427" y="-4" on="0"/>
        <pt x="386" y="36" on="0"/>
        <pt x="379" y="75" on="1"/>
        <pt x="324" y="-11" on="0"/>
        <pt x="218" y="-11" on="1"/>
        <pt x="142" y="-11" on="0"/>
        <pt x="55" y="75" on="0"/>
        <pt x="55" y="146" on="1"/>
        <pt x="55" y="228" on="0"/>
        <pt x="171" y="315" on="0"/>
        <pt x="274" y="315" on="1"/>
        <pt x="372" y="315" on="1"/>
        <pt x="372" y="364" on="1"/>
        <pt x="372" y="426" on="0"/>
        <pt x="315" y="482" on="0"/>
        <pt x="252" y="482" on="1"/>
        <pt x="192" y="482" on="0"/>
        <pt x="110" y="452" on="1"/>
        <pt x="94" y="500" on="1"/>
        <pt x="186" y="535" on="0"/>
        <pt x="261" y="535" on="1"/>
        <pt x="434" y="535" on="0"/>
        <pt x="434" y="368" on="1"/>
        <pt x="434" y="117" on="1"/>
      </contour>
      <contour>
        <pt x="277" y="38" on="0"/>
        <pt x="347" y="85" on="0"/>
        <pt x="372" y="131" on="1"/>
        <pt x="372" y="271" on="1"/>
        <pt x="283" y="271" on="1"/>
        <pt x="204" y="271" on="0"/>
        <pt x="121" y="209" on="0"/>
        <pt x="121" y="148" on="1"/>
        <pt x="121" y="95" on="0"/>
        <pt x="177" y="38" on="0"/>
        <pt x="229" y="38" on="1"/>
      </contour>
    </TTGlyph>
    <TTGlyph name="a.sc" xMin="15" yMin="0" xMax="484" yMax="562">
      <contour>
        <pt x="369" y="149" on="1"/>
        <pt x="128" y="149" on="1"/>
        <pt x="78" y="0" on="1"/>
        <pt x="15" y="0" on="1"/>
        <pt x="211" y="562" on="1"/>
        <pt x="288" y="562" on="1"/>
        <pt x="484" y="0" on="1"/>
        <pt x="418" y="0" on="1"/>
      </contour>
      <contour>
        <pt x="352" y="199" on="1"/>
        <pt x="249" y="511" on="1"/>
        <pt x="145" y="199" on="1"/>
      </contour>
    </TTGlyph>
    <TTGlyph name="aacute" xMin="55" yMin="-11" xMax="478" yMax="785">
      <component glyphName="a" x="0" y="0" flags="0x0"/>
      <component glyphName="acutecomb" x="393" y="0" flags="0x0"/>
    </TTGlyph>
    <TTGlyph name="aacute.sc" xMin="15" yMin="0" xMax="484" yMax="815">
      <component glyphName="a.sc" x="0" y="0" flags="0x0"/>
      <component glyphName="acutecomb.sc" x="112" y="0" flags="0x0"/>
    </TTGlyph>
    <TTGlyph name="abreve" xMin="55" yMin="-11" xMax="478" yMax="774">
      <component glyphName="a" x="0" y="0" flags="0x0"/>
      <component glyphName="uni0306" x="421" y="0" flags="0x0"/>
    </TTGlyph>
    <TTGlyph name="abreve.sc" xMin="15" yMin="0" xMax="484" yMax="804">
      <component glyphName="a.sc" x="0" y="0" flags="0x0"/>
      <component glyphName="uni0306.sc" x="86" y="0" flags="0x0"/>
    </TTGlyph>
    <TTGlyph name="abrevecy.sc" xMin="15" yMin="0" xMax="484" yMax="787">
      <component glyphName="a.sc" x="0" y="0" flags="0x0"/>
      <component glyphName="brevecy.sc" x="86" y="0" flags="0x0"/>
    </TTGlyph>
    <TTGlyph name="acircumflex" xMin="55" yMin="-11" xMax="478" yMax="781">
      <component glyphName="a" x="0" y="0" flags="0x0"/>
      <component glyphName="uni0302" x="439" y="0" flags="0x0"/>
    </TTGlyph>
    <TTGlyph name="acircumflex.sc" xMin="15" yMin="0" xMax="484" yMax="811">
      <component glyphName="a.sc" x="0" y="0" flags="0x0"/>
      <component glyphName="uni0302.sc" x="70" y="0" flags="0x0"/>
    </TTGlyph>
    <TTGlyph name="acute" xMin="30" yMin="644" xMax="247" yMax="785">
      <contour>
        <pt x="247" y="729" on="1"/>
        <pt x="50" y="644" on="1"/>
        <pt x="30" y="680" on="1"/>
        <pt x="219" y="785" on="1"/>
      </contour>
    </TTGlyph>
    <TTGlyph name="acute.case" xMin="30" yMin="758" xMax="247" yMax="891">
      <contour>
        <pt x="247" y="835" on="1"/>
        <pt x="47" y="758" on="1"/>
        <pt x="30" y="793" on="1"/>
        <pt x="219" y="891" on="1"/>
      </contour>
    </TTGlyph>
    <TTGlyph name="acute.case.loclPLK" xMin="93" yMin="732" xMax="246" yMax="911">
      <contour>
        <pt x="246" y="877" on="1"/>
        <pt x="125" y="732" on="1"/>
        <pt x="93" y="752" on="1"/>
        <pt x="195" y="911" on="1"/>
      </contour>
    </TTGlyph>
    <TTGlyph name="acute.loclPLK" xMin="93" yMin="577" xMax="247" yMax="764">
      <contour>
        <pt x="247" y="731" on="1"/>
        <pt x="125" y="577" on="1"/>
        <pt x="93" y="598" on="1"/>
        <pt x="196" y="764" on="1"/>
      </contour>
    </TTGlyph>
    <TTGlyph name="acute.sc" xMin="30" yMin="674" xMax="247" yMax="815">
      <component glyphName="acutecomb" x="278" y="30" flags="0x0"/>
    </TTGlyph>
    <TTGlyph name="acute.sc.loclPLK" xMin="93" yMin="619" xMax="247" yMax="805">
      <contour>
        <pt x="247" y="772" on="1"/>
        <pt x="125" y="619" on="1"/>
        <pt x="93" y="639" on="1"/>
        <pt x="196" y="805" on="1"/>
      </contour>
    </TTGlyph>
    <TTGlyph name="acutecomb" xMin="-248" yMin="644" xMax="-31" yMax="785">
      <contour>
        <pt x="-31" y="729" on="1"/>
        <pt x="-228" y="644" on="1"/>
        <pt x="-248" y="680" on="1"/>
        <pt x="-59" y="785" on="1"/>
      </contour>
    </TTGlyph>
    <TTGlyph name="acutecomb.case" xMin="-240" yMin="758" xMax="-23" yMax="891">
      <contour>
        <pt x="-23" y="835" on="1"/>
        <pt x="-223" y="758" on="1"/>
        <pt x="-240" y="793" on="1"/>
        <pt x="-51" y="891" on="1"/>
      </contour>
    </TTGlyph>
    <TTGlyph name="acutecomb.sc" xMin="30" yMin="674" xMax="247" yMax="815">
      <contour>
        <pt x="247" y="759" on="1"/>
        <pt x="50" y="674" on="1"/>
        <pt x="30" y="710" on="1"/>
        <pt x="219" y="815" on="1"/>
      </contour>
    </TTGlyph>
    <TTGlyph name="adieresis" xMin="55" yMin="-11" xMax="478" yMax="745">
      <component glyphName="a" x="0" y="0" flags="0x0"/>
      <component glyphName="uni0308" x="426" y="0" flags="0x0"/>
    </TTGlyph>
    <TTGlyph name="adieresis.sc" xMin="15" yMin="0" xMax="484" yMax="775">
      <component glyphName="a.sc" x="0" y="0" flags="0x0"/>
      <component glyphName="uni0308.sc" x="81" y="0" flags="0x0"/>
    </TTGlyph>
    <TTGlyph name="ae" xMin="55" yMin="-11" xMax="789" yMax="535">
      <contour>
        <pt x="789" y="258" on="0"/>
        <pt x="787" y="238" on="1"/>
        <pt x="439" y="238" on="1"/>
        <pt x="444" y="138" on="0"/>
        <pt x="530" y="41" on="0"/>
        <pt x="600" y="41" on="1"/>
        <pt x="640" y="41" on="0"/>
        <pt x="704" y="65" on="0"/>
        <pt x="740" y="92" on="1"/>
        <pt x="769" y="53" on="1"/>
        <pt x="730" y="22" on="0"/>
        <pt x="647" y="-11" on="0"/>
        <pt x="596" y="-11" on="1"/>
        <pt x="533" y="-11" on="0"/>
        <pt x="437" y="44" on="0"/>
        <pt x="409" y="95" on="1"/>
        <pt x="369" y="38" on="0"/>
        <pt x="279" y="-11" on="0"/>
        <pt x="219" y="-11" on="1"/>
        <pt x="143" y="-11" on="0"/>
        <pt x="55" y="75" on="0"/>
        <pt x="55" y="146" on="1"/>
        <pt x="55" y="227" on="0"/>
        <pt x="172" y="316" on="0"/>
        <pt x="275" y="316" on="1"/>
        <pt x="373" y="316" on="1"/>
        <pt x="373" y="364" on="1"/>
        <pt x="373" y="426" on="0"/>
        <pt x="317" y="482" on="0"/>
        <pt x="253" y="482" on="1"/>
        <pt x="193" y="482" on="0"/>
        <pt x="111" y="452" on="1"/>
        <pt x="95" y="500" on="1"/>
        <pt x="189" y="535" on="0"/>
        <pt x="262" y="535" on="1"/>
        <pt x="327" y="535" on="0"/>
        <pt x="405" y="484" on="0"/>
        <pt x="422" y="436" on="1"/>
        <pt x="477" y="535" on="0"/>
        <pt x="587" y="535" on="1"/>
        <pt x="685" y="535" on="0"/>
        <pt x="789" y="400" on="0"/>
        <pt x="789" y="281" on="1"/>
      </contour>
      <contour>
        <pt x="727" y="300" on="1"/>
        <pt x="727" y="386" on="0"/>
        <pt x="657" y="483" on="0"/>
        <pt x="587" y="483" on="1"/>
        <pt x="522" y="483" on="0"/>
        <pt x="443" y="385" on="0"/>
        <pt x="439" y="285" on="1"/>
        <pt x="727" y="285" on="1"/>
      </contour>
      <contour>
        <pt x="278" y="38" on="0"/>
        <pt x="353" y="88" on="0"/>
        <pt x="389" y="142" on="1"/>
        <pt x="373" y="196" on="0"/>
        <pt x="373" y="257" on="1"/>
        <pt x="373" y="271" on="1"/>
        <pt x="284" y="271" on="1"/>
        <pt x="205" y="271" on="0"/>
        <pt x="122" y="209" on="0"/>
        <pt x="122" y="148" on="1"/>
        <pt x="122" y="95" on="0"/>
        <pt x="179" y="38" on="0"/>
        <pt x="230" y="38" on="1"/>
      </contour>
    </TTGlyph>
    <TTGlyph name="ae.sc" xMin="-2" yMin="0" xMax="646" yMax="562">
      <contour>
        <pt x="646" y="50" on="1"/>
        <pt x="646" y="0" on="1"/>
        <pt x="399" y="0" on="1"/>
        <pt x="361" y="146" on="1"/>
        <pt x="121" y="146" on="1"/>
        <pt x="62" y="0" on="1"/>
        <pt x="-2" y="0" on="1"/>
        <pt x="231" y="562" on="1"/>
        <pt x="606" y="562" on="1"/>
        <pt x="599" y="512" on="1"/>
        <pt x="327" y="512" on="1"/>
        <pt x="378" y="315" on="1"/>
        <pt x="599" y="315" on="1"/>
        <pt x="599" y="266" on="1"/>
        <pt x="390" y="266" on="1"/>
        <pt x="446" y="50" on="1"/>
      </contour>
      <contour>
        <pt x="348" y="197" on="1"/>
        <pt x="267" y="513" on="1"/>
        <pt x="141" y="197" on="1"/>
      </contour>
    </TTGlyph>
    <TTGlyph name="aeacute" xMin="55" yMin="-11" xMax="789" yMax="785">
      <component glyphName="ae" x="0" y="0" flags="0x0"/>
      <component glyphName="acutecomb" x="559" y="0" flags="0x0"/>
    </TTGlyph>
    <TTGlyph name="aeacute.sc" xMin="-2" yMin="0" xMax="646" yMax="815">
      <component glyphName="ae.sc" x="0" y="0" flags="0x0"/>
      <component glyphName="acutecomb.sc" x="262" y="0" flags="0x0"/>
    </TTGlyph>
    <TTGlyph name="agrave" xMin="55" yMin="-11" xMax="478" yMax="785">
      <component glyphName="a" x="0" y="0" flags="0x0"/>
      <component glyphName="gravecomb" x="402" y="0" flags="0x0"/>
    </TTGlyph>
    <TTGlyph name="agrave.sc" xMin="15" yMin="0" xMax="484" yMax="815">
      <component glyphName="a.sc" x="0" y="0" flags="0x0"/>
      <component glyphName="gravecomb.sc" x="113" y="0" flags="0x0"/>
    </TTGlyph>
    <TTGlyph name="alpha" xMin="63" yMin="-11" xMax="536" yMax="535">
      <contour>
        <pt x="328" y="535" on="0"/>
        <pt x="409" y="450" on="0"/>
        <pt x="428" y="345" on="1"/>
        <pt x="464" y="524" on="1"/>
        <pt x="523" y="524" on="1"/>
        <pt x="464" y="260" on="1"/>
        <pt x="494" y="95" on="1"/>
        <pt x="498" y="73" on="0"/>
        <pt x="518" y="50" on="0"/>
        <pt x="536" y="44" on="1"/>
        <pt x="515" y="-9" on="1"/>
        <pt x="485" y="-3" on="0"/>
        <pt x="444" y="36" on="0"/>
        <pt x="438" y="72" on="1"/>
        <pt x="423" y="173" on="1"/>
        <pt x="401" y="82" on="0"/>
        <pt x="315" y="-11" on="0"/>
        <pt x="248" y="-11" on="1"/>
        <pt x="159" y="-11" on="0"/>
        <pt x="63" y="126" on="0"/>
        <pt x="63" y="261" on="1"/>
        <pt x="63" y="384" on="0"/>
        <pt x="166" y="535" on="0"/>
        <pt x="258" y="535" on="1"/>
      </contour>
      <contour>
        <pt x="201" y="484" on="0"/>
        <pt x="129" y="367" on="0"/>
        <pt x="129" y="261" on="1"/>
        <pt x="129" y="149" on="0"/>
        <pt x="193" y="40" on="0"/>
        <pt x="253" y="40" on="1"/>
        <pt x="306" y="40" on="0"/>
        <pt x="385" y="139" on="0"/>
        <pt x="409" y="267" on="1"/>
        <pt x="393" y="351" on="0"/>
        <pt x="353" y="446" on="0"/>
        <pt x="299" y="484" on="0"/>
        <pt x="261" y="484" on="1"/>
      </contour>
    </TTGlyph>
    <TTGlyph name="alpha.sc" xMin="15" yMin="0" xMax="484" yMax="562">
      <component glyphName="a.sc" x="0" y="0" flags="0x0"/>
    </TTGlyph>
    <TTGlyph name="alphadasiaoxiaprosgegrammeni.sc" xMin="15" yMin="0" xMax="484" yMax="562">
      <component glyphName="a.sc" x="0" y="0" flags="0x0"/>
    </TTGlyph>
    <TTGlyph name="alphadasiaperispomeniprosgegram" xMin="15" yMin="0" xMax="484" yMax="562">
      <component glyphName="a.sc" x="0" y="0" flags="0x0"/>
    </TTGlyph>
    <TTGlyph name="alphadasiaprosgegrammeni.sc" xMin="15" yMin="0" xMax="484" yMax="562">
      <component glyphName="a.sc" x="0" y="0" flags="0x0"/>
    </TTGlyph>
    <TTGlyph name="alphadasiavariaprosgegrammeni.s" xMin="15" yMin="0" xMax="484" yMax="562">
      <component glyphName="a.sc" x="0" y="0" flags="0x0"/>
    </TTGlyph>
    <TTGlyph name="alphaprosgegrammeni.sc" xMin="15" yMin="0" xMax="484" yMax="562">
      <component glyphName="a.sc" x="0" y="0" flags="0x0"/>
    </TTGlyph>
    <TTGlyph name="alphapsilioxiaprosgegrammeni.sc" xMin="15" yMin="0" xMax="484" yMax="562">
      <component glyphName="a.sc" x="0" y="0" flags="0x0"/>
    </TTGlyph>
    <TTGlyph name="alphapsiliperispomeniprosgegram" xMin="15" yMin="0" xMax="484" yMax="562">
      <component glyphName="a.sc" x="0" y="0" flags="0x0"/>
    </TTGlyph>
    <TTGlyph name="alphapsiliprosgegrammeni.sc" xMin="15" yMin="0" xMax="484" yMax="562">
      <component glyphName="a.sc" x="0" y="0" flags="0x0"/>
    </TTGlyph>
    <TTGlyph name="alphapsilivariaprosgegrammeni.s" xMin="15" yMin="0" xMax="484" yMax="562">
      <component glyphName="a.sc" x="0" y="0" flags="0x0"/>
    </TTGlyph>
    <TTGlyph name="alphatonos" xMin="63" yMin="-11" xMax="536" yMax="779">
      <component glyphName="alpha" x="0" y="0" flags="0x0"/>
      <component glyphName="tonos" x="227" y="0" flags="0x0"/>
    </TTGlyph>
    <TTGlyph name="alphatonos.sc" xMin="15" yMin="0" xMax="484" yMax="562">
      <component glyphName="a.sc" x="0" y="0" flags="0x0"/>
    </TTGlyph>
    <TTGlyph name="amacron" xMin="55" yMin="-11" xMax="478" yMax="724">
      <component glyphName="a" x="0" y="0" flags="0x0"/>
      <component glyphName="uni0304" x="410" y="0" flags="0x0"/>
    </TTGlyph>
    <TTGlyph name="amacron.sc" xMin="15" yMin="0" xMax="484" yMax="754">
      <component glyphName="a.sc" x="0" y="0" flags="0x0"/>
      <component glyphName="uni0304.sc" x="97" y="0" flags="0x0"/>
    </TTGlyph>
    <TTGlyph name="ampersand" xMin="89" yMin="-11" xMax="680" yMax="697">
      <contour>
        <pt x="376" y="697" on="0"/>
        <pt x="470" y="613" on="0"/>
        <pt x="470" y="548" on="1"/>
        <pt x="470" y="491" on="0"/>
        <pt x="395" y="407" on="0"/>
        <pt x="318" y="364" on="1"/>
        <pt x="519" y="175" on="1"/>
        <pt x="561" y="260" on="0"/>
        <pt x="584" y="363" on="1"/>
        <pt x="643" y="346" on="1"/>
        <pt x="613" y="231" on="0"/>
        <pt x="558" y="139" on="1"/>
        <pt x="680" y="25" on="1"/>
        <pt x="634" y="-11" on="1"/>
        <pt x="524" y="93" on="1"/>
        <pt x="482" y="43" on="0"/>
        <pt x="375" y="-11" on="0"/>
        <pt x="301" y="-11" on="1"/>
        <pt x="241" y="-11" on="0"/>
        <pt x="144" y="34" on="0"/>
        <pt x="89" y="118" on="0"/>
        <pt x="89" y="172" on="1"/>
        <pt x="89" y="236" on="0"/>
        <pt x="161" y="328" on="0"/>
        <pt x="232" y="371" on="1"/>
        <pt x="178" y="422" on="0"/>
        <pt x="132" y="495" on="0"/>
        <pt x="132" y="544" on="1"/>
        <pt x="132" y="587" on="0"/>
        <pt x="173" y="657" on="0"/>
        <pt x="250" y="697" on="0"/>
        <pt x="301" y="697" on="1"/>
      </contour>
      <contour>
        <pt x="252" y="648" on="0"/>
        <pt x="194" y="589" on="0"/>
        <pt x="194" y="545" on="1"/>
        <pt x="194" y="508" on="0"/>
        <pt x="230" y="447" on="0"/>
        <pt x="281" y="399" on="1"/>
        <pt x="346" y="434" on="0"/>
        <pt x="408" y="502" on="0"/>
        <pt x="408" y="545" on="1"/>
        <pt x="408" y="594" on="0"/>
        <pt x="349" y="648" on="0"/>
        <pt x="302" y="648" on="1"/>
      </contour>
      <contour>
        <pt x="210" y="300" on="0"/>
        <pt x="153" y="223" on="0"/>
        <pt x="153" y="173" on="1"/>
        <pt x="153" y="113" on="0"/>
        <pt x="239" y="40" on="0"/>
        <pt x="306" y="40" on="1"/>
        <pt x="364" y="40" on="0"/>
        <pt x="449" y="84" on="0"/>
        <pt x="486" y="128" on="1"/>
        <pt x="269" y="336" on="1"/>
      </contour>
    </TTGlyph>
    <TTGlyph name="ampersand.ss03" xMin="55" yMin="-12" xMax="847" yMax="616">
      <contour>
        <pt x="847" y="460" on="1"/>
        <pt x="847" y="407" on="1"/>
        <pt x="742" y="407" on="1"/>
        <pt x="730" y="281" on="0"/>
        <pt x="632" y="92" on="0"/>
        <pt x="463" y="-12" on="0"/>
        <pt x="350" y="-12" on="1"/>
        <pt x="208" y="-12" on="0"/>
        <pt x="55" y="156" on="0"/>
        <pt x="55" y="313" on="1"/>
        <pt x="55" y="402" on="0"/>
        <pt x="117" y="540" on="0"/>
        <pt x="228" y="616" on="0"/>
        <pt x="299" y="616" on="1"/>
        <pt x="350" y="616" on="0"/>
        <pt x="427" y="576" on="0"/>
        <pt x="469" y="506" on="0"/>
        <pt x="469" y="463" on="1"/>
        <pt x="469" y="366" on="0"/>
        <pt x="293" y="254" on="0"/>
        <pt x="123" y="246" on="1"/>
        <pt x="136" y="143" on="0"/>
        <pt x="249" y="43" on="0"/>
        <pt x="350" y="43" on="1"/>
        <pt x="488" y="43" on="0"/>
        <pt x="664" y="230" on="0"/>
        <pt x="681" y="407" on="1"/>
        <pt x="575" y="407" on="1"/>
        <pt x="575" y="460" on="1"/>
      </contour>
      <contour>
        <pt x="244" y="562" on="0"/>
        <pt x="163" y="499" on="0"/>
        <pt x="119" y="386" on="0"/>
        <pt x="119" y="314" on="1"/>
        <pt x="119" y="296" on="1"/>
        <pt x="403" y="310" on="0"/>
        <pt x="403" y="464" on="1"/>
        <pt x="403" y="509" on="0"/>
        <pt x="350" y="562" on="0"/>
        <pt x="298" y="562" on="1"/>
      </contour>
    </TTGlyph>
    <TTGlyph name="anoteleia" xMin="55" yMin="268" xMax="156" yMax="368">
      <component glyphName="periodcentered" x="0" y="0" flags="0x0"/>
    </TTGlyph>
    <TTGlyph name="aogonek" xMin="55" yMin="-230" xMax="478" yMax="535">
      <contour>
        <pt x="397" y="-41" on="0"/>
        <pt x="342" y="-94" on="0"/>
        <pt x="342" y="-128" on="1"/>
        <pt x="342" y="-180" on="0"/>
        <pt x="404" y="-180" on="1"/>
        <pt x="431" y="-180" on="0"/>
        <pt x="462" y="-173" on="1"/>
        <pt x="456" y="-224" on="1"/>
        <pt x="426" y="-230" on="0"/>
        <pt x="397" y="-230" on="1"/>
        <pt x="344" y="-230" on="0"/>
        <pt x="284" y="-178" on="0"/>
        <pt x="284" y="-138" on="1"/>
        <pt x="284" y="-92" on="0"/>
        <pt x="352" y="-24" on="0"/>
        <pt x="422" y="4" on="1"/>
        <pt x="388" y="25" on="0"/>
        <pt x="379" y="75" on="1"/>
        <pt x="324" y="-11" on="0"/>
        <pt x="218" y="-11" on="1"/>
        <pt x="142" y="-11" on="0"/>
        <pt x="55" y="75" on="0"/>
        <pt x="55" y="146" on="1"/>
        <pt x="55" y="228" on="0"/>
        <pt x="171" y="315" on="0"/>
        <pt x="274" y="315" on="1"/>
        <pt x="372" y="315" on="1"/>
        <pt x="372" y="364" on="1"/>
        <pt x="372" y="426" on="0"/>
        <pt x="315" y="482" on="0"/>
        <pt x="252" y="482" on="1"/>
        <pt x="192" y="482" on="0"/>
        <pt x="110" y="452" on="1"/>
        <pt x="94" y="500" on="1"/>
        <pt x="186" y="535" on="0"/>
        <pt x="261" y="535" on="1"/>
        <pt x="434" y="535" on="0"/>
        <pt x="434" y="368" on="1"/>
        <pt x="434" y="117" on="1"/>
        <pt x="434" y="76" on="0"/>
        <pt x="455" y="41" on="0"/>
        <pt x="478" y="32" on="1"/>
        <pt x="464" y="-10" on="1"/>
        <pt x="464" y="-11" on="1"/>
      </contour>
      <contour>
        <pt x="277" y="38" on="0"/>
        <pt x="347" y="85" on="0"/>
        <pt x="372" y="131" on="1"/>
        <pt x="372" y="271" on="1"/>
        <pt x="283" y="271" on="1"/>
        <pt x="204" y="271" on="0"/>
        <pt x="121" y="209" on="0"/>
        <pt x="121" y="148" on="1"/>
        <pt x="121" y="95" on="0"/>
        <pt x="177" y="38" on="0"/>
        <pt x="229" y="38" on="1"/>
      </contour>
    </TTGlyph>
    <TTGlyph name="aogonek.sc" xMin="15" yMin="-219" xMax="484" yMax="562">
      <contour>
        <pt x="401" y="-30" on="0"/>
        <pt x="346" y="-83" on="0"/>
        <pt x="346" y="-117" on="1"/>
        <pt x="346" y="-169" on="0"/>
        <pt x="408" y="-169" on="1"/>
        <pt x="435" y="-169" on="0"/>
        <pt x="467" y="-162" on="1"/>
        <pt x="461" y="-213" on="1"/>
        <pt x="431" y="-219" on="0"/>
        <pt x="402" y="-219" on="1"/>
        <pt x="348" y="-219" on="0"/>
        <pt x="289" y="-168" on="0"/>
        <pt x="289" y="-127" on="1"/>
        <pt x="289" y="-83" on="0"/>
        <pt x="350" y="-17" on="0"/>
        <pt x="415" y="10" on="1"/>
        <pt x="369" y="149" on="1"/>
        <pt x="128" y="149" on="1"/>
        <pt x="78" y="0" on="1"/>
        <pt x="15" y="0" on="1"/>
        <pt x="211" y="562" on="1"/>
        <pt x="288" y="562" on="1"/>
        <pt x="484" y="0" on="1"/>
        <pt x="468" y="0" on="1"/>
      </contour>
      <contour>
        <pt x="352" y="199" on="1"/>
        <pt x="249" y="511" on="1"/>
        <pt x="145" y="199" on="1"/>
      </contour>
    </TTGlyph>
    <TTGlyph name="approxequal" xMin="91" yMin="181" xMax="465" yMax="291">
      <component glyphName="asciitilde.lf" x="41" y="-81" flags="0x0"/>
      <component glyphName="asciitilde.lf" x="41" y="91" flags="0x0"/>
    </TTGlyph>
    <TTGlyph name="approxequal.lf" xMin="50" yMin="181" xMax="424" yMax="291">
      <component glyphName="asciitilde.lf" x="0" y="-81" flags="0x0"/>
      <component glyphName="asciitilde.lf" x="0" y="91" flags="0x0"/>
    </TTGlyph>
    <TTGlyph name="approxequal.osf" xMin="50" yMin="181" xMax="424" yMax="291">
      <component glyphName="asciitilde.lf" x="0" y="-81" flags="0x0"/>
      <component glyphName="asciitilde.lf" x="0" y="91" flags="0x0"/>
    </TTGlyph>
    <TTGlyph name="approxequal.tosf" xMin="93" yMin="181" xMax="467" yMax="291">
      <component glyphName="asciitilde.lf" x="43" y="-81" flags="0x0"/>
      <component glyphName="asciitilde.lf" x="43" y="91" flags="0x0"/>
    </TTGlyph>
    <TTGlyph name="aring" xMin="55" yMin="-11" xMax="478" yMax="822">
      <component glyphName="a" x="0" y="0" flags="0x0"/>
      <component glyphName="uni030A" x="387" y="0" flags="0x0"/>
    </TTGlyph>
    <TTGlyph name="aring.sc" xMin="15" yMin="0" xMax="484" yMax="852">
      <component glyphName="a.sc" x="0" y="0" flags="0x0"/>
      <component glyphName="uni030A.sc" x="119" y="0" flags="0x0"/>
    </TTGlyph>
    <TTGlyph name="aringacute" xMin="55" yMin="-11" xMax="478" yMax="918">
      <contour>
        <pt x="171" y="785" on="1"/>
        <pt x="154" y="820" on="1"/>
        <pt x="343" y="918" on="1"/>
        <pt x="371" y="862" on="1"/>
      </contour>
      <contour>
        <pt x="160" y="723" on="0"/>
        <pt x="216" y="777" on="0"/>
        <pt x="260" y="777" on="1"/>
        <pt x="305" y="777" on="0"/>
        <pt x="361" y="724" on="0"/>
        <pt x="361" y="682" on="1"/>
        <pt x="361" y="640" on="0"/>
        <pt x="305" y="587" on="0"/>
        <pt x="260" y="587" on="1"/>
        <pt x="216" y="587" on="0"/>
        <pt x="160" y="641" on="0"/>
        <pt x="160" y="682" on="1"/>
      </contour>
      <contour>
        <pt x="315" y="710" on="0"/>
        <pt x="286" y="740" on="0"/>
        <pt x="260" y="740" on="1"/>
        <pt x="234" y="740" on="0"/>
        <pt x="206" y="710" on="0"/>
        <pt x="206" y="682" on="1"/>
        <pt x="206" y="655" on="0"/>
        <pt x="235" y="624" on="0"/>
        <pt x="260" y="624" on="1"/>
        <pt x="286" y="624" on="0"/>
        <pt x="315" y="655" on="0"/>
        <pt x="315" y="682" on="1"/>
      </contour>
      <contour>
        <pt x="434" y="76" on="0"/>
        <pt x="455" y="41" on="0"/>
        <pt x="478" y="32" on="1"/>
        <pt x="463" y="-11" on="1"/>
        <pt x="427" y="-4" on="0"/>
        <pt x="386" y="36" on="0"/>
        <pt x="379" y="75" on="1"/>
        <pt x="324" y="-11" on="0"/>
        <pt x="218" y="-11" on="1"/>
        <pt x="142" y="-11" on="0"/>
        <pt x="55" y="75" on="0"/>
        <pt x="55" y="146" on="1"/>
        <pt x="55" y="228" on="0"/>
        <pt x="171" y="315" on="0"/>
        <pt x="274" y="315" on="1"/>
        <pt x="372" y="315" on="1"/>
        <pt x="372" y="364" on="1"/>
        <pt x="372" y="426" on="0"/>
        <pt x="315" y="482" on="0"/>
        <pt x="252" y="482" on="1"/>
        <pt x="192" y="482" on="0"/>
        <pt x="110" y="452" on="1"/>
        <pt x="94" y="500" on="1"/>
        <pt x="186" y="535" on="0"/>
        <pt x="261" y="535" on="1"/>
        <pt x="434" y="535" on="0"/>
        <pt x="434" y="368" on="1"/>
        <pt x="434" y="117" on="1"/>
      </contour>
      <contour>
        <pt x="277" y="38" on="0"/>
        <pt x="347" y="85" on="0"/>
        <pt x="372" y="131" on="1"/>
        <pt x="372" y="271" on="1"/>
        <pt x="283" y="271" on="1"/>
        <pt x="204" y="271" on="0"/>
        <pt x="121" y="209" on="0"/>
        <pt x="121" y="148" on="1"/>
        <pt x="121" y="95" on="0"/>
        <pt x="177" y="38" on="0"/>
        <pt x="229" y="38" on="1"/>
      </contour>
    </TTGlyph>
    <TTGlyph name="aringacute.sc" xMin="15" yMin="0" xMax="484" yMax="939">
      <contour>
        <pt x="160" y="806" on="1"/>
        <pt x="143" y="841" on="1"/>
        <pt x="332" y="939" on="1"/>
        <pt x="360" y="883" on="1"/>
      </contour>
      <contour>
        <pt x="149" y="740" on="0"/>
        <pt x="205" y="794" on="0"/>
        <pt x="249" y="794" on="1"/>
        <pt x="294" y="794" on="0"/>
        <pt x="350" y="741" on="0"/>
        <pt x="350" y="699" on="1"/>
        <pt x="350" y="657" on="0"/>
        <pt x="294" y="604" on="0"/>
        <pt x="249" y="604" on="1"/>
        <pt x="205" y="604" on="0"/>
        <pt x="149" y="658" on="0"/>
        <pt x="149" y="699" on="1"/>
      </contour>
      <contour>
        <pt x="304" y="727" on="0"/>
        <pt x="275" y="757" on="0"/>
        <pt x="249" y="757" on="1"/>
        <pt x="223" y="757" on="0"/>
        <pt x="195" y="727" on="0"/>
        <pt x="195" y="699" on="1"/>
        <pt x="195" y="672" on="0"/>
        <pt x="224" y="641" on="0"/>
        <pt x="249" y="641" on="1"/>
        <pt x="275" y="641" on="0"/>
        <pt x="304" y="672" on="0"/>
        <pt x="304" y="699" on="1"/>
      </contour>
      <contour>
        <pt x="369" y="149" on="1"/>
        <pt x="128" y="149" on="1"/>
        <pt x="78" y="0" on="1"/>
        <pt x="15" y="0" on="1"/>
        <pt x="211" y="562" on="1"/>
        <pt x="288" y="562" on="1"/>
        <pt x="484" y="0" on="1"/>
        <pt x="418" y="0" on="1"/>
      </contour>
      <contour>
        <pt x="352" y="199" on="1"/>
        <pt x="249" y="511" on="1"/>
        <pt x="145" y="199" on="1"/>
      </contour>
    </TTGlyph>
    <TTGlyph name="arrowboth" xMin="134" yMin="40" xMax="1146" yMax="618">
      <contour>
        <pt x="1146" y="329" on="1"/>
        <pt x="887" y="40" on="1"/>
        <pt x="841" y="79" on="1"/>
        <pt x="980" y="233" on="1"/>
        <pt x="1018" y="275" on="0"/>
        <pt x="1054" y="302" on="1"/>
        <pt x="226" y="302" on="1"/>
        <pt x="262" y="275" on="0"/>
        <pt x="300" y="233" on="1"/>
        <pt x="439" y="79" on="1"/>
        <pt x="393" y="40" on="1"/>
        <pt x="134" y="329" on="1"/>
        <pt x="393" y="618" on="1"/>
        <pt x="439" y="579" on="1"/>
        <pt x="300" y="425" on="1"/>
        <pt x="259" y="380" on="0"/>
        <pt x="226" y="356" on="1"/>
        <pt x="1054" y="356" on="1"/>
        <pt x="1021" y="380" on="0"/>
        <pt x="980" y="425" on="1"/>
        <pt x="841" y="579" on="1"/>
        <pt x="887" y="618" on="1"/>
      </contour>
    </TTGlyph>
    <TTGlyph name="arrowdown" xMin="150" yMin="-26" xMax="750" yMax="624">
      <contour>
        <pt x="480" y="63" on="1"/>
        <pt x="502" y="97" on="0"/>
        <pt x="548" y="138" on="1"/>
        <pt x="712" y="284" on="1"/>
        <pt x="750" y="242" on="1"/>
        <pt x="450" y="-26" on="1"/>
        <pt x="150" y="242" on="1"/>
        <pt x="188" y="284" on="1"/>
        <pt x="352" y="138" on="1"/>
        <pt x="398" y="97" on="0"/>
        <pt x="420" y="63" on="1"/>
        <pt x="420" y="624" on="1"/>
        <pt x="480" y="624" on="1"/>
      </contour>
    </TTGlyph>
    <TTGlyph name="arrowleft" xMin="134" yMin="40" xMax="761" yMax="618">
      <contour>
        <pt x="439" y="579" on="1"/>
        <pt x="300" y="425" on="1"/>
        <pt x="259" y="380" on="0"/>
        <pt x="226" y="356" on="1"/>
        <pt x="761" y="356" on="1"/>
        <pt x="761" y="302" on="1"/>
        <pt x="226" y="302" on="1"/>
        <pt x="262" y="275" on="0"/>
        <pt x="300" y="233" on="1"/>
        <pt x="439" y="79" on="1"/>
        <pt x="393" y="40" on="1"/>
        <pt x="134" y="329" on="1"/>
        <pt x="393" y="618" on="1"/>
      </contour>
    </TTGlyph>
    <TTGlyph name="arrowright" xMin="139" yMin="40" xMax="766" yMax="618">
      <component glyphName="arrowleft" x="900" y="0" scalex="-1.0" scaley="1.0" flags="0x0"/>
    </TTGlyph>
    <TTGlyph name="arrowup" xMin="150" yMin="0" xMax="750" yMax="650">
      <component glyphName="arrowdown" x="900" y="624" scale="-1.0" flags="0x0"/>
    </TTGlyph>
    <TTGlyph name="arrowupdn" xMin="150" yMin="-174" xMax="750" yMax="853">
      <contour>
        <pt x="750" y="586" on="1"/>
        <pt x="712" y="544" on="1"/>
        <pt x="548" y="690" on="1"/>
        <pt x="502" y="731" on="0"/>
        <pt x="480" y="765" on="1"/>
        <pt x="480" y="-85" on="1"/>
        <pt x="501" y="-53" on="0"/>
        <pt x="548" y="-11" on="1"/>
        <pt x="712" y="136" on="1"/>
        <pt x="750" y="94" on="1"/>
        <pt x="450" y="-174" on="1"/>
        <pt x="150" y="94" on="1"/>
        <pt x="188" y="136" on="1"/>
        <pt x="352" y="-11" on="1"/>
        <pt x="399" y="-53" on="0"/>
        <pt x="420" y="-85" on="1"/>
        <pt x="420" y="765" on="1"/>
        <pt x="398" y="731" on="0"/>
        <pt x="352" y="690" on="1"/>
        <pt x="188" y="544" on="1"/>
        <pt x="150" y="586" on="1"/>
        <pt x="450" y="853" on="1"/>
      </contour>
    </TTGlyph>
    <TTGlyph name="asciicircum" xMin="55" yMin="527" xMax="477" yMax="833">
      <contour>
        <pt x="477" y="527" on="1"/>
        <pt x="408" y="527" on="1"/>
        <pt x="266" y="774" on="1"/>
        <pt x="123" y="527" on="1"/>
        <pt x="55" y="527" on="1"/>
        <pt x="240" y="833" on="1"/>
        <pt x="292" y="833" on="1"/>
      </contour>
    </TTGlyph>
    <TTGlyph name="asciitilde" xMin="91" yMin="262" xMax="465" yMax="372">
      <component glyphName="asciitilde.lf" x="41" y="0" flags="0x0"/>
    </TTGlyph>
    <TTGlyph name="asciitilde.lf" xMin="50" yMin="262" xMax="424" yMax="372">
      <contour>
        <pt x="288" y="262" on="0"/>
        <pt x="247" y="279" on="0"/>
        <pt x="219" y="296" on="1"/>
        <pt x="198" y="309" on="0"/>
        <pt x="173" y="321" on="0"/>
        <pt x="160" y="321" on="1"/>
        <pt x="136" y="321" on="0"/>
        <pt x="106" y="297" on="0"/>
        <pt x="88" y="273" on="1"/>
        <pt x="50" y="294" on="1"/>
        <pt x="70" y="329" on="0"/>
        <pt x="123" y="372" on="0"/>
        <pt x="163" y="372" on="1"/>
        <pt x="187" y="372" on="0"/>
        <pt x="226" y="356" on="0"/>
        <pt x="255" y="339" on="1"/>
        <pt x="278" y="326" on="0"/>
        <pt x="303" y="314" on="0"/>
        <pt x="316" y="314" on="1"/>
        <pt x="339" y="314" on="0"/>
        <pt x="369" y="336" on="0"/>
        <pt x="386" y="359" on="1"/>
        <pt x="424" y="338" on="1"/>
        <pt x="403" y="303" on="0"/>
        <pt x="352" y="262" on="0"/>
        <pt x="313" y="262" on="1"/>
      </contour>
    </TTGlyph>
    <TTGlyph name="asciitilde.osf" xMin="50" yMin="262" xMax="424" yMax="372">
      <component glyphName="asciitilde.lf" x="0" y="0" flags="0x0"/>
    </TTGlyph>
    <TTGlyph name="asciitilde.tosf" xMin="93" yMin="262" xMax="467" yMax="372">
      <component glyphName="asciitilde.lf" x="43" y="0" flags="0x0"/>
    </TTGlyph>
    <TTGlyph name="asterisk" xMin="32" yMin="383" xMax="404" yMax="737">
      <contour>
        <pt x="252" y="540" on="1"/>
        <pt x="352" y="419" on="1"/>
        <pt x="302" y="383" on="1"/>
        <pt x="218" y="515" on="1"/>
        <pt x="134" y="383" on="1"/>
        <pt x="84" y="418" on="1"/>
        <pt x="185" y="540" on="1"/>
        <pt x="32" y="579" on="1"/>
        <pt x="50" y="635" on="1"/>
        <pt x="196" y="577" on="1"/>
        <pt x="188" y="737" on="1"/>
        <pt x="249" y="737" on="1"/>
        <pt x="240" y="578" on="1"/>
        <pt x="385" y="635" on="1"/>
        <pt x="404" y="579" on="1"/>
      </contour>
    </TTGlyph>
    <TTGlyph name="at" xMin="83" yMin="-206" xMax="937" yMax="697">
      <contour>
        <pt x="656" y="697" on="0"/>
        <pt x="842" y="591" on="0"/>
        <pt x="937" y="414" on="0"/>
        <pt x="937" y="308" on="1"/>
        <pt x="937" y="213" on="0"/>
        <pt x="891" y="80" on="0"/>
        <pt x="808" y="12" on="0"/>
        <pt x="754" y="12" on="1"/>
        <pt x="703" y="12" on="0"/>
        <pt x="641" y="73" on="0"/>
        <pt x="631" y="120" on="1"/>
        <pt x="584" y="14" on="0"/>
        <pt x="484" y="14" on="1"/>
        <pt x="435" y="14" on="0"/>
        <pt x="359" y="66" on="0"/>
        <pt x="315" y="164" on="0"/>
        <pt x="315" y="231" on="1"/>
        <pt x="315" y="314" on="0"/>
        <pt x="370" y="429" on="0"/>
        <pt x="465" y="485" on="0"/>
        <pt x="525" y="485" on="1"/>
        <pt x="600" y="485" on="0"/>
        <pt x="672" y="448" on="1"/>
        <pt x="672" y="190" on="1"/>
        <pt x="672" y="61" on="0"/>
        <pt x="753" y="61" on="1"/>
        <pt x="808" y="61" on="0"/>
        <pt x="874" y="178" on="0"/>
        <pt x="874" y="306" on="1"/>
        <pt x="874" y="404" on="0"/>
        <pt x="793" y="557" on="0"/>
        <pt x="636" y="644" on="0"/>
        <pt x="526" y="644" on="1"/>
        <pt x="413" y="644" on="0"/>
        <pt x="240" y="537" on="0"/>
        <pt x="146" y="354" on="0"/>
        <pt x="146" y="242" on="1"/>
        <pt x="146" y="123" on="0"/>
        <pt x="239" y="-55" on="0"/>
        <pt x="411" y="-153" on="0"/>
        <pt x="526" y="-153" on="1"/>
        <pt x="624" y="-153" on="0"/>
        <pt x="715" y="-120" on="1"/>
        <pt x="731" y="-170" on="1"/>
        <pt x="680" y="-188" on="0"/>
        <pt x="587" y="-206" on="0"/>
        <pt x="525" y="-206" on="1"/>
        <pt x="396" y="-206" on="0"/>
        <pt x="196" y="-97" on="0"/>
        <pt x="83" y="106" on="0"/>
        <pt x="83" y="242" on="1"/>
        <pt x="83" y="368" on="0"/>
        <pt x="195" y="576" on="0"/>
        <pt x="397" y="697" on="0"/>
        <pt x="526" y="697" on="1"/>
      </contour>
      <contour>
        <pt x="538" y="62" on="0"/>
        <pt x="600" y="124" on="0"/>
        <pt x="615" y="166" on="1"/>
        <pt x="615" y="418" on="1"/>
        <pt x="570" y="438" on="0"/>
        <pt x="527" y="438" on="1"/>
        <pt x="455" y="438" on="0"/>
        <pt x="377" y="331" on="0"/>
        <pt x="377" y="231" on="1"/>
        <pt x="377" y="148" on="0"/>
        <pt x="437" y="62" on="0"/>
        <pt x="491" y="62" on="1"/>
      </contour>
    </TTGlyph>
    <TTGlyph name="atilde" xMin="55" yMin="-11" xMax="478" yMax="760">
      <component glyphName="a" x="0" y="0" flags="0x0"/>
      <component glyphName="tildecomb" x="440" y="0" flags="0x0"/>
    </TTGlyph>
    <TTGlyph name="atilde.sc" xMin="15" yMin="0" xMax="484" yMax="790">
      <component glyphName="a.sc" x="0" y="0" flags="0x0"/>
      <component glyphName="tildecomb.sc" x="67" y="0" flags="0x0"/>
    </TTGlyph>
    <TTGlyph name="b" xMin="105" yMin="-11" xMax="514" yMax="744">
      <contour>
        <pt x="413" y="535" on="0"/>
        <pt x="514" y="394" on="0"/>
        <pt x="514" y="264" on="1"/>
        <pt x="514" y="137" on="0"/>
        <pt x="408" y="-11" on="0"/>
        <pt x="314" y="-11" on="1"/>
        <pt x="267" y="-11" on="0"/>
        <pt x="192" y="30" on="0"/>
        <pt x="165" y="65" on="1"/>
        <pt x="159" y="0" on="1"/>
        <pt x="105" y="0" on="1"/>
        <pt x="105" y="737" on="1"/>
        <pt x="167" y="744" on="1"/>
        <pt x="167" y="452" on="1"/>
        <pt x="228" y="535" on="0"/>
        <pt x="323" y="535" on="1"/>
      </contour>
      <contour>
        <pt x="372" y="40" on="0"/>
        <pt x="448" y="153" on="0"/>
        <pt x="448" y="264" on="1"/>
        <pt x="448" y="483" on="0"/>
        <pt x="310" y="483" on="1"/>
        <pt x="264" y="483" on="0"/>
        <pt x="196" y="436" on="0"/>
        <pt x="167" y="394" on="1"/>
        <pt x="167" y="121" on="1"/>
        <pt x="191" y="83" on="0"/>
        <pt x="261" y="40" on="0"/>
        <pt x="303" y="40" on="1"/>
      </contour>
    </TTGlyph>
    <TTGlyph name="b.sc" xMin="110" yMin="0" xMax="494" yMax="562">
      <contour>
        <pt x="418" y="290" on="0"/>
        <pt x="494" y="223" on="0"/>
        <pt x="494" y="157" on="1"/>
        <pt x="494" y="78" on="0"/>
        <pt x="379" y="0" on="0"/>
        <pt x="276" y="0" on="1"/>
        <pt x="110" y="0" on="1"/>
        <pt x="110" y="562" on="1"/>
        <pt x="246" y="562" on="1"/>
        <pt x="352" y="562" on="0"/>
        <pt x="467" y="491" on="0"/>
        <pt x="467" y="419" on="1"/>
        <pt x="467" y="367" on="0"/>
        <pt x="410" y="311" on="0"/>
        <pt x="361" y="298" on="1"/>
      </contour>
      <contour>
        <pt x="172" y="512" on="1"/>
        <pt x="172" y="319" on="1"/>
        <pt x="284" y="319" on="1"/>
        <pt x="338" y="319" on="0"/>
        <pt x="403" y="371" on="0"/>
        <pt x="403" y="417" on="1"/>
        <pt x="403" y="468" on="0"/>
        <pt x="327" y="512" on="0"/>
        <pt x="252" y="512" on="1"/>
      </contour>
      <contour>
        <pt x="429" y="50" on="0"/>
        <pt x="429" y="158" on="1"/>
        <pt x="429" y="216" on="0"/>
        <pt x="353" y="272" on="0"/>
        <pt x="290" y="272" on="1"/>
        <pt x="172" y="272" on="1"/>
        <pt x="172" y="50" on="1"/>
        <pt x="276" y="50" on="1"/>
      </contour>
    </TTGlyph>
    <TTGlyph name="backslash" xMin="117" yMin="-100" xMax="402" yMax="803">
      <contour>
        <pt x="402" y="-87" on="1"/>
        <pt x="349" y="-100" on="1"/>
        <pt x="117" y="790" on="1"/>
        <pt x="170" y="803" on="1"/>
      </contour>
    </TTGlyph>
    <TTGlyph name="bar" xMin="175" yMin="-101" xMax="232" yMax="805">
      <contour>
        <pt x="232" y="-101" on="1"/>
        <pt x="175" y="-101" on="1"/>
        <pt x="175" y="805" on="1"/>
        <pt x="232" y="805" on="1"/>
      </contour>
    </TTGlyph>
    <TTGlyph name="beta" xMin="105" yMin="-207" xMax="540" yMax="744">
      <contour>
        <pt x="422" y="397" on="0"/>
        <pt x="540" y="299" on="0"/>
        <pt x="540" y="201" on="1"/>
        <pt x="540" y="137" on="0"/>
        <pt x="481" y="40" on="0"/>
        <pt x="385" y="-11" on="0"/>
        <pt x="329" y="-11" on="1"/>
        <pt x="234" y="-11" on="0"/>
        <pt x="167" y="52" on="1"/>
        <pt x="167" y="-197" on="1"/>
        <pt x="105" y="-207" on="1"/>
        <pt x="105" y="541" on="1"/>
        <pt x="105" y="637" on="0"/>
        <pt x="211" y="744" on="0"/>
        <pt x="301" y="744" on="1"/>
        <pt x="383" y="744" on="0"/>
        <pt x="488" y="649" on="0"/>
        <pt x="489" y="568" on="1"/>
        <pt x="489" y="495" on="0"/>
        <pt x="405" y="411" on="0"/>
        <pt x="332" y="402" on="1"/>
      </contour>
      <contour>
        <pt x="388" y="41" on="0"/>
        <pt x="476" y="126" on="0"/>
        <pt x="476" y="199" on="1"/>
        <pt x="476" y="284" on="0"/>
        <pt x="371" y="374" on="0"/>
        <pt x="276" y="374" on="1"/>
        <pt x="228" y="374" on="1"/>
        <pt x="235" y="423" on="1"/>
        <pt x="281" y="423" on="1"/>
        <pt x="341" y="423" on="0"/>
        <pt x="429" y="490" on="0"/>
        <pt x="429" y="564" on="1"/>
        <pt x="429" y="628" on="0"/>
        <pt x="360" y="693" on="0"/>
        <pt x="302" y="693" on="1"/>
        <pt x="238" y="693" on="0"/>
        <pt x="167" y="617" on="0"/>
        <pt x="167" y="540" on="1"/>
        <pt x="167" y="107" on="1"/>
        <pt x="199" y="72" on="0"/>
        <pt x="271" y="41" on="0"/>
        <pt x="322" y="41" on="1"/>
      </contour>
    </TTGlyph>
    <TTGlyph name="beta.sc" xMin="110" yMin="0" xMax="494" yMax="562">
      <component glyphName="b.sc" x="0" y="0" flags="0x0"/>
    </TTGlyph>
    <TTGlyph name="braceleft" xMin="42" yMin="-130" xMax="263" yMax="829">
      <contour>
        <pt x="263" y="781" on="1"/>
        <pt x="216" y="781" on="0"/>
        <pt x="175" y="745" on="0"/>
        <pt x="175" y="704" on="1"/>
        <pt x="175" y="452" on="1"/>
        <pt x="175" y="403" on="0"/>
        <pt x="140" y="360" on="0"/>
        <pt x="100" y="349" on="1"/>
        <pt x="140" y="338" on="0"/>
        <pt x="175" y="296" on="0"/>
        <pt x="175" y="247" on="1"/>
        <pt x="175" y="-5" on="1"/>
        <pt x="175" y="-46" on="0"/>
        <pt x="216" y="-82" on="0"/>
        <pt x="263" y="-82" on="1"/>
        <pt x="263" y="-130" on="1"/>
        <pt x="187" y="-130" on="0"/>
        <pt x="117" y="-69" on="0"/>
        <pt x="117" y="-2" on="1"/>
        <pt x="117" y="249" on="1"/>
        <pt x="117" y="289" on="0"/>
        <pt x="80" y="323" on="0"/>
        <pt x="42" y="323" on="1"/>
        <pt x="42" y="375" on="1"/>
        <pt x="80" y="375" on="0"/>
        <pt x="117" y="410" on="0"/>
        <pt x="117" y="450" on="1"/>
        <pt x="117" y="701" on="1"/>
        <pt x="117" y="768" on="0"/>
        <pt x="187" y="829" on="0"/>
        <pt x="263" y="829" on="1"/>
      </contour>
    </TTGlyph>
    <TTGlyph name="braceleft.case" xMin="42" yMin="-140" xMax="263" yMax="819">
      <component glyphName="braceleft" x="0" y="-10" flags="0x0"/>
    </TTGlyph>
    <TTGlyph name="braceright" xMin="62" yMin="-130" xMax="283" yMax="829">
      <contour>
        <pt x="139" y="829" on="0"/>
        <pt x="208" y="768" on="0"/>
        <pt x="208" y="701" on="1"/>
        <pt x="208" y="450" on="1"/>
        <pt x="208" y="410" on="0"/>
        <pt x="245" y="375" on="0"/>
        <pt x="283" y="375" on="1"/>
        <pt x="283" y="323" on="1"/>
        <pt x="245" y="323" on="0"/>
        <pt x="208" y="289" on="0"/>
        <pt x="208" y="249" on="1"/>
        <pt x="208" y="-2" on="1"/>
        <pt x="208" y="-69" on="0"/>
        <pt x="139" y="-130" on="0"/>
        <pt x="62" y="-130" on="1"/>
        <pt x="62" y="-82" on="1"/>
        <pt x="110" y="-82" on="0"/>
        <pt x="150" y="-46" on="0"/>
        <pt x="150" y="-5" on="1"/>
        <pt x="150" y="247" on="1"/>
        <pt x="150" y="296" on="0"/>
        <pt x="185" y="338" on="0"/>
        <pt x="225" y="349" on="1"/>
        <pt x="185" y="360" on="0"/>
        <pt x="150" y="403" on="0"/>
        <pt x="150" y="452" on="1"/>
        <pt x="150" y="704" on="1"/>
        <pt x="150" y="745" on="0"/>
        <pt x="110" y="781" on="0"/>
        <pt x="62" y="781" on="1"/>
        <pt x="62" y="829" on="1"/>
      </contour>
    </TTGlyph>
    <TTGlyph name="braceright.case" xMin="62" yMin="-140" xMax="283" yMax="819">
      <component glyphName="braceright" x="0" y="-10" flags="0x0"/>
    </TTGlyph>
    <TTGlyph name="bracketleft" xMin="82" yMin="-113" xMax="253" yMax="808">
      <contour>
        <pt x="253" y="757" on="1"/>
        <pt x="140" y="757" on="1"/>
        <pt x="140" y="-62" on="1"/>
        <pt x="253" y="-62" on="1"/>
        <pt x="253" y="-113" on="1"/>
        <pt x="82" y="-113" on="1"/>
        <pt x="82" y="808" on="1"/>
        <pt x="253" y="808" on="1"/>
      </contour>
    </TTGlyph>
    <TTGlyph name="bracketleft.case" xMin="82" yMin="-123" xMax="253" yMax="798">
      <component glyphName="bracketleft" x="0" y="-10" flags="0x0"/>
    </TTGlyph>
    <TTGlyph name="bracketright" xMin="65" yMin="-113" xMax="236" yMax="808">
      <contour>
        <pt x="236" y="-113" on="1"/>
        <pt x="65" y="-113" on="1"/>
        <pt x="65" y="-62" on="1"/>
        <pt x="178" y="-62" on="1"/>
        <pt x="178" y="757" on="1"/>
        <pt x="65" y="757" on="1"/>
        <pt x="65" y="808" on="1"/>
        <pt x="236" y="808" on="1"/>
      </contour>
    </TTGlyph>
    <TTGlyph name="bracketright.case" xMin="65" yMin="-123" xMax="236" yMax="798">
      <component glyphName="bracketright" x="0" y="-10" flags="0x0"/>
    </TTGlyph>
    <TTGlyph name="breve" xMin="30" yMin="652" xMax="296" yMax="774">
      <contour>
        <pt x="109" y="652" on="0"/>
        <pt x="36" y="713" on="0"/>
        <pt x="30" y="765" on="1"/>
        <pt x="72" y="774" on="1"/>
        <pt x="92" y="702" on="0"/>
        <pt x="162" y="702" on="1"/>
        <pt x="197" y="702" on="0"/>
        <pt x="244" y="739" on="0"/>
        <pt x="254" y="774" on="1"/>
        <pt x="296" y="765" on="1"/>
        <pt x="289" y="713" on="0"/>
        <pt x="216" y="652" on="0"/>
        <pt x="162" y="652" on="1"/>
      </contour>
    </TTGlyph>
    <TTGlyph name="breve.case" xMin="30" yMin="764" xMax="296" yMax="876">
      <contour>
        <pt x="110" y="764" on="0"/>
        <pt x="36" y="822" on="0"/>
        <pt x="30" y="867" on="1"/>
        <pt x="72" y="876" on="1"/>
        <pt x="82" y="847" on="0"/>
        <pt x="128" y="814" on="0"/>
        <pt x="162" y="814" on="1"/>
        <pt x="196" y="814" on="0"/>
        <pt x="244" y="847" on="0"/>
        <pt x="254" y="876" on="1"/>
        <pt x="296" y="867" on="1"/>
        <pt x="289" y="822" on="0"/>
        <pt x="215" y="764" on="0"/>
        <pt x="162" y="764" on="1"/>
      </contour>
    </TTGlyph>
    <TTGlyph name="breve.sc" xMin="30" yMin="682" xMax="296" yMax="804">
      <component glyphName="uni0306" x="326" y="30" flags="0x0"/>
    </TTGlyph>
    <TTGlyph name="brevecy" xMin="30" yMin="652" xMax="296" yMax="757">
      <contour>
        <pt x="109" y="652" on="0"/>
        <pt x="36" y="703" on="0"/>
        <pt x="30" y="747" on="1"/>
        <pt x="72" y="757" on="1"/>
        <pt x="82" y="728" on="0"/>
        <pt x="126" y="702" on="0"/>
        <pt x="162" y="702" on="1"/>
        <pt x="236" y="702" on="0"/>
        <pt x="254" y="757" on="1"/>
        <pt x="296" y="747" on="1"/>
        <pt x="289" y="703" on="0"/>
        <pt x="216" y="652" on="0"/>
        <pt x="162" y="652" on="1"/>
      </contour>
    </TTGlyph>
    <TTGlyph name="brevecy.case" xMin="30" yMin="778" xMax="296" yMax="883">
      <contour>
        <pt x="109" y="778" on="0"/>
        <pt x="36" y="829" on="0"/>
        <pt x="30" y="873" on="1"/>
        <pt x="72" y="883" on="1"/>
        <pt x="82" y="854" on="0"/>
        <pt x="126" y="828" on="0"/>
        <pt x="162" y="828" on="1"/>
        <pt x="236" y="828" on="0"/>
        <pt x="254" y="883" on="1"/>
        <pt x="296" y="873" on="1"/>
        <pt x="289" y="829" on="0"/>
        <pt x="216" y="778" on="0"/>
        <pt x="162" y="778" on="1"/>
      </contour>
    </TTGlyph>
    <TTGlyph name="brevecy.sc" xMin="30" yMin="682" xMax="296" yMax="787">
      <contour>
        <pt x="109" y="682" on="0"/>
        <pt x="36" y="733" on="0"/>
        <pt x="30" y="777" on="1"/>
        <pt x="72" y="787" on="1"/>
        <pt x="82" y="758" on="0"/>
        <pt x="126" y="732" on="0"/>
        <pt x="162" y="732" on="1"/>
        <pt x="236" y="732" on="0"/>
        <pt x="254" y="787" on="1"/>
        <pt x="296" y="777" on="1"/>
        <pt x="289" y="733" on="0"/>
        <pt x="216" y="682" on="0"/>
        <pt x="162" y="682" on="1"/>
      </contour>
    </TTGlyph>
    <TTGlyph name="brokenbar" xMin="175" yMin="162" xMax="232" yMax="543">
      <contour>
        <pt x="232" y="543" on="1"/>
        <pt x="232" y="162" on="1"/>
        <pt x="175" y="162" on="1"/>
        <pt x="175" y="543" on="1"/>
      </contour>
    </TTGlyph>
    <TTGlyph name="bullet" xMin="67" yMin="267" xMax="224" yMax="424">
      <contour>
        <pt x="180" y="424" on="0"/>
        <pt x="224" y="379" on="0"/>
        <pt x="224" y="345" on="1"/>
        <pt x="224" y="312" on="0"/>
        <pt x="180" y="267" on="0"/>
        <pt x="146" y="267" on="1"/>
        <pt x="112" y="267" on="0"/>
        <pt x="67" y="312" on="0"/>
        <pt x="67" y="345" on="1"/>
        <pt x="67" y="379" on="0"/>
        <pt x="112" y="424" on="0"/>
        <pt x="146" y="424" on="1"/>
      </contour>
    </TTGlyph>
    <TTGlyph name="c" xMin="63" yMin="-11" xMax="438" yMax="535">
      <contour>
        <pt x="330" y="535" on="0"/>
        <pt x="401" y="509" on="0"/>
        <pt x="435" y="481" on="1"/>
        <pt x="404" y="441" on="1"/>
        <pt x="378" y="462" on="0"/>
        <pt x="322" y="482" on="0"/>
        <pt x="288" y="482" on="1"/>
        <pt x="215" y="482" on="0"/>
        <pt x="130" y="368" on="0"/>
        <pt x="130" y="259" on="1"/>
        <pt x="130" y="151" on="0"/>
        <pt x="215" y="43" on="0"/>
        <pt x="288" y="43" on="1"/>
        <pt x="322" y="43" on="0"/>
        <pt x="378" y="65" on="0"/>
        <pt x="407" y="86" on="1"/>
        <pt x="438" y="45" on="1"/>
        <pt x="373" y="-11" on="0"/>
        <pt x="287" y="-11" on="1"/>
        <pt x="184" y="-11" on="0"/>
        <pt x="63" y="132" on="0"/>
        <pt x="63" y="258" on="1"/>
        <pt x="63" y="342" on="0"/>
        <pt x="118" y="467" on="0"/>
        <pt x="219" y="535" on="0"/>
        <pt x="286" y="535" on="1"/>
      </contour>
    </TTGlyph>
    <TTGlyph name="c.sc" xMin="65" yMin="-10" xMax="471" yMax="571">
      <contour>
        <pt x="358" y="571" on="0"/>
        <pt x="429" y="545" on="0"/>
        <pt x="464" y="517" on="1"/>
        <pt x="431" y="478" on="1"/>
        <pt x="401" y="500" on="0"/>
        <pt x="347" y="520" on="0"/>
        <pt x="312" y="520" on="1"/>
        <pt x="231" y="520" on="0"/>
        <pt x="130" y="404" on="0"/>
        <pt x="130" y="282" on="1"/>
        <pt x="130" y="163" on="0"/>
        <pt x="230" y="43" on="0"/>
        <pt x="310" y="43" on="1"/>
        <pt x="350" y="43" on="0"/>
        <pt x="407" y="67" on="0"/>
        <pt x="438" y="91" on="1"/>
        <pt x="471" y="51" on="1"/>
        <pt x="406" y="-10" on="0"/>
        <pt x="308" y="-10" on="1"/>
        <pt x="237" y="-10" on="0"/>
        <pt x="127" y="58" on="0"/>
        <pt x="65" y="189" on="0"/>
        <pt x="65" y="282" on="1"/>
        <pt x="65" y="374" on="0"/>
        <pt x="130" y="504" on="0"/>
        <pt x="240" y="571" on="0"/>
        <pt x="308" y="571" on="1"/>
      </contour>
    </TTGlyph>
    <TTGlyph name="cacute" xMin="63" yMin="-11" xMax="438" yMax="785">
      <component glyphName="c" x="0" y="0" flags="0x0"/>
      <component glyphName="acutecomb" x="420" y="0" flags="0x0"/>
    </TTGlyph>
    <TTGlyph name="cacute.loclPLK" xMin="63" yMin="-11" xMax="438" yMax="764">
      <component glyphName="c" x="0" y="0" flags="0x0"/>
      <component glyphName="acute.loclPLK" x="151" y="0" flags="0x0"/>
    </TTGlyph>
    <TTGlyph name="cacute.sc" xMin="65" yMin="-10" xMax="471" yMax="815">
      <component glyphName="c.sc" x="0" y="0" flags="0x0"/>
      <component glyphName="acutecomb.sc" x="174" y="0" flags="0x0"/>
    </TTGlyph>
    <TTGlyph name="cacute.sc.loclPLK" xMin="65" yMin="-10" xMax="471" yMax="805">
      <component glyphName="c.sc" x="0" y="0" flags="0x0"/>
      <component glyphName="acute.sc.loclPLK" x="176" y="0" flags="0x0"/>
    </TTGlyph>
    <TTGlyph name="caron" xMin="30" yMin="632" xMax="330" yMax="771">
      <contour>
        <pt x="330" y="739" on="1"/>
        <pt x="200" y="632" on="1"/>
        <pt x="161" y="632" on="1"/>
        <pt x="30" y="739" on="1"/>
        <pt x="58" y="771" on="1"/>
        <pt x="180" y="686" on="1"/>
        <pt x="302" y="771" on="1"/>
      </contour>
    </TTGlyph>
    <TTGlyph name="caron.alt" xMin="65" yMin="519" xMax="142" yMax="692">
      <contour>
        <pt x="142" y="685" on="1"/>
        <pt x="102" y="519" on="1"/>
        <pt x="65" y="525" on="1"/>
        <pt x="84" y="692" on="1"/>
      </contour>
    </TTGlyph>
    <TTGlyph name="caron.case" xMin="30" yMin="756" xMax="330" yMax="890">
      <contour>
        <pt x="330" y="858" on="1"/>
        <pt x="200" y="756" on="1"/>
        <pt x="161" y="756" on="1"/>
        <pt x="30" y="858" on="1"/>
        <pt x="58" y="890" on="1"/>
        <pt x="180" y="810" on="1"/>
        <pt x="302" y="890" on="1"/>
      </contour>
    </TTGlyph>
    <TTGlyph name="caron.sc" xMin="30" yMin="662" xMax="330" yMax="801">
      <component glyphName="uni030C" x="360" y="30" flags="0x0"/>
    </TTGlyph>
    <TTGlyph name="ccaron" xMin="63" yMin="-11" xMax="438" yMax="771">
      <component glyphName="c" x="0" y="0" flags="0x0"/>
      <component glyphName="uni030C" x="466" y="0" flags="0x0"/>
    </TTGlyph>
    <TTGlyph name="ccaron.sc" xMin="65" yMin="-10" xMax="471" yMax="801">
      <component glyphName="c.sc" x="0" y="0" flags="0x0"/>
      <component glyphName="uni030C.sc" x="131" y="0" flags="0x0"/>
    </TTGlyph>
    <TTGlyph name="ccedilla" xMin="63" yMin="-229" xMax="438" yMax="535">
      <contour>
        <pt x="347" y="-67" on="0"/>
        <pt x="392" y="-108" on="0"/>
        <pt x="392" y="-141" on="1"/>
        <pt x="392" y="-182" on="0"/>
        <pt x="330" y="-229" on="0"/>
        <pt x="284" y="-229" on="1"/>
        <pt x="235" y="-229" on="0"/>
        <pt x="203" y="-207" on="1"/>
        <pt x="222" y="-169" on="1"/>
        <pt x="250" y="-185" on="0"/>
        <pt x="283" y="-185" on="1"/>
        <pt x="307" y="-185" on="0"/>
        <pt x="337" y="-163" on="0"/>
        <pt x="337" y="-141" on="1"/>
        <pt x="337" y="-118" on="0"/>
        <pt x="295" y="-97" on="0"/>
        <pt x="248" y="-96" on="1"/>
        <pt x="257" y="-9" on="1"/>
        <pt x="167" y="1" on="0"/>
        <pt x="63" y="141" on="0"/>
        <pt x="63" y="258" on="1"/>
        <pt x="63" y="342" on="0"/>
        <pt x="118" y="467" on="0"/>
        <pt x="219" y="535" on="0"/>
        <pt x="286" y="535" on="1"/>
        <pt x="330" y="535" on="0"/>
        <pt x="401" y="509" on="0"/>
        <pt x="435" y="481" on="1"/>
        <pt x="404" y="441" on="1"/>
        <pt x="378" y="462" on="0"/>
        <pt x="322" y="482" on="0"/>
        <pt x="288" y="482" on="1"/>
        <pt x="215" y="482" on="0"/>
        <pt x="130" y="368" on="0"/>
        <pt x="130" y="259" on="1"/>
        <pt x="130" y="151" on="0"/>
        <pt x="215" y="43" on="0"/>
        <pt x="288" y="43" on="1"/>
        <pt x="322" y="43" on="0"/>
        <pt x="378" y="65" on="0"/>
        <pt x="407" y="86" on="1"/>
        <pt x="438" y="45" on="1"/>
        <pt x="377" y="-7" on="0"/>
        <pt x="300" y="-11" on="1"/>
        <pt x="300" y="-63" on="1"/>
      </contour>
    </TTGlyph>
    <TTGlyph name="ccedilla.sc" xMin="65" yMin="-229" xMax="471" yMax="571">
      <contour>
        <pt x="369" y="-67" on="0"/>
        <pt x="414" y="-108" on="0"/>
        <pt x="414" y="-141" on="1"/>
        <pt x="414" y="-182" on="0"/>
        <pt x="352" y="-229" on="0"/>
        <pt x="306" y="-229" on="1"/>
        <pt x="257" y="-229" on="0"/>
        <pt x="225" y="-207" on="1"/>
        <pt x="244" y="-169" on="1"/>
        <pt x="272" y="-185" on="0"/>
        <pt x="305" y="-185" on="1"/>
        <pt x="329" y="-185" on="0"/>
        <pt x="359" y="-163" on="0"/>
        <pt x="359" y="-141" on="1"/>
        <pt x="359" y="-118" on="0"/>
        <pt x="317" y="-97" on="0"/>
        <pt x="270" y="-96" on="1"/>
        <pt x="279" y="-8" on="1"/>
        <pt x="182" y="2" on="0"/>
        <pt x="65" y="153" on="0"/>
        <pt x="65" y="282" on="1"/>
        <pt x="65" y="374" on="0"/>
        <pt x="130" y="504" on="0"/>
        <pt x="240" y="571" on="0"/>
        <pt x="308" y="571" on="1"/>
        <pt x="358" y="571" on="0"/>
        <pt x="429" y="545" on="0"/>
        <pt x="464" y="517" on="1"/>
        <pt x="431" y="478" on="1"/>
        <pt x="401" y="500" on="0"/>
        <pt x="347" y="520" on="0"/>
        <pt x="312" y="520" on="1"/>
        <pt x="231" y="520" on="0"/>
        <pt x="130" y="404" on="0"/>
        <pt x="130" y="282" on="1"/>
        <pt x="130" y="163" on="0"/>
        <pt x="230" y="43" on="0"/>
        <pt x="310" y="43" on="1"/>
        <pt x="350" y="43" on="0"/>
        <pt x="407" y="67" on="0"/>
        <pt x="438" y="91" on="1"/>
        <pt x="471" y="51" on="1"/>
        <pt x="413" y="-5" on="0"/>
        <pt x="322" y="-9" on="1"/>
        <pt x="322" y="-63" on="1"/>
      </contour>
    </TTGlyph>
    <TTGlyph name="ccircumflex" xMin="63" yMin="-11" xMax="438" yMax="781">
      <component glyphName="c" x="0" y="0" flags="0x0"/>
      <component glyphName="uni0302" x="466" y="0" flags="0x0"/>
    </TTGlyph>
    <TTGlyph name="ccircumflex.sc" xMin="65" yMin="-10" xMax="471" yMax="811">
      <component glyphName="c.sc" x="0" y="0" flags="0x0"/>
      <component glyphName="uni0302.sc" x="131" y="0" flags="0x0"/>
    </TTGlyph>
    <TTGlyph name="cdotaccent" xMin="63" yMin="-11" xMax="438" yMax="756">
      <component glyphName="c" x="0" y="0" flags="0x0"/>
      <component glyphName="uni0307" x="361" y="0" flags="0x0"/>
    </TTGlyph>
    <TTGlyph name="cdotaccent.sc" xMin="65" yMin="-10" xMax="471" yMax="786">
      <component glyphName="c.sc" x="0" y="0" flags="0x0"/>
      <component glyphName="uni0307.sc" x="235" y="0" flags="0x0"/>
    </TTGlyph>
    <TTGlyph name="cedilla" xMin="30" yMin="-229" xMax="219" yMax="16">
      <contour>
        <pt x="127" y="-63" on="1"/>
        <pt x="174" y="-67" on="0"/>
        <pt x="219" y="-108" on="0"/>
        <pt x="219" y="-141" on="1"/>
        <pt x="219" y="-182" on="0"/>
        <pt x="157" y="-229" on="0"/>
        <pt x="111" y="-229" on="1"/>
        <pt x="62" y="-229" on="0"/>
        <pt x="30" y="-207" on="1"/>
        <pt x="49" y="-169" on="1"/>
        <pt x="77" y="-185" on="0"/>
        <pt x="110" y="-185" on="1"/>
        <pt x="134" y="-185" on="0"/>
        <pt x="164" y="-163" on="0"/>
        <pt x="164" y="-141" on="1"/>
        <pt x="164" y="-118" on="0"/>
        <pt x="122" y="-97" on="0"/>
        <pt x="75" y="-96" on="1"/>
        <pt x="86" y="16" on="1"/>
        <pt x="127" y="16" on="1"/>
      </contour>
    </TTGlyph>
    <TTGlyph name="cedilla.case" xMin="30" yMin="-229" xMax="219" yMax="16">
      <component glyphName="uni0327" x="249" y="0" flags="0x0"/>
    </TTGlyph>
    <TTGlyph name="cedilla.sc" xMin="30" yMin="-229" xMax="219" yMax="16">
      <component glyphName="uni0327" x="249" y="0" flags="0x0"/>
    </TTGlyph>
    <TTGlyph name="cent" xMin="91" yMin="-151" xMax="465" yMax="681">
      <contour>
        <pt x="410" y="-3" on="0"/>
        <pt x="340" y="-10" on="1"/>
        <pt x="340" y="-151" on="1"/>
        <pt x="286" y="-151" on="1"/>
        <pt x="286" y="-10" on="1"/>
        <pt x="195" y="0" on="0"/>
        <pt x="91" y="141" on="0"/>
        <pt x="91" y="258" on="1"/>
        <pt x="91" y="376" on="0"/>
        <pt x="196" y="524" on="0"/>
        <pt x="287" y="534" on="1"/>
        <pt x="287" y="681" on="1"/>
        <pt x="340" y="681" on="1"/>
        <pt x="340" y="534" on="1"/>
        <pt x="408" y="527" on="0"/>
        <pt x="462" y="481" on="1"/>
        <pt x="431" y="441" on="1"/>
        <pt x="405" y="462" on="0"/>
        <pt x="350" y="482" on="0"/>
        <pt x="316" y="482" on="1"/>
        <pt x="243" y="482" on="0"/>
        <pt x="157" y="368" on="0"/>
        <pt x="157" y="259" on="1"/>
        <pt x="157" y="151" on="0"/>
        <pt x="242" y="43" on="0"/>
        <pt x="315" y="43" on="1"/>
        <pt x="349" y="43" on="0"/>
        <pt x="405" y="64" on="0"/>
        <pt x="435" y="86" on="1"/>
        <pt x="465" y="45" on="1"/>
      </contour>
    </TTGlyph>
    <TTGlyph name="cent.lf" xMin="63" yMin="-151" xMax="438" yMax="681">
      <contour>
        <pt x="382" y="-1" on="0"/>
        <pt x="313" y="-10" on="1"/>
        <pt x="313" y="-151" on="1"/>
        <pt x="259" y="-151" on="1"/>
        <pt x="259" y="-10" on="1"/>
        <pt x="168" y="0" on="0"/>
        <pt x="63" y="141" on="0"/>
        <pt x="63" y="258" on="1"/>
        <pt x="63" y="376" on="0"/>
        <pt x="169" y="523" on="0"/>
        <pt x="260" y="533" on="1"/>
        <pt x="260" y="681" on="1"/>
        <pt x="313" y="681" on="1"/>
        <pt x="313" y="533" on="1"/>
        <pt x="380" y="527" on="0"/>
        <pt x="435" y="481" on="1"/>
        <pt x="404" y="441" on="1"/>
        <pt x="378" y="462" on="0"/>
        <pt x="322" y="482" on="0"/>
        <pt x="288" y="482" on="1"/>
        <pt x="215" y="482" on="0"/>
        <pt x="130" y="368" on="0"/>
        <pt x="130" y="259" on="1"/>
        <pt x="130" y="151" on="0"/>
        <pt x="215" y="43" on="0"/>
        <pt x="288" y="43" on="1"/>
        <pt x="322" y="43" on="0"/>
        <pt x="378" y="65" on="0"/>
        <pt x="407" y="86" on="1"/>
        <pt x="438" y="45" on="1"/>
      </contour>
    </TTGlyph>
    <TTGlyph name="cent.osf" xMin="63" yMin="-151" xMax="438" yMax="681">
      <component glyphName="cent.lf" x="0" y="0" flags="0x0"/>
    </TTGlyph>
    <TTGlyph name="cent.tosf" xMin="91" yMin="-151" xMax="465" yMax="681">
      <component glyphName="cent" x="0" y="0" flags="0x0"/>
    </TTGlyph>
    <TTGlyph name="chi" xMin="2" yMin="-204" xMax="435" yMax="533">
      <contour>
        <pt x="435" y="-194" on="1"/>
        <pt x="373" y="-204" on="1"/>
        <pt x="222" y="131" on="1"/>
        <pt x="67" y="-203" on="1"/>
        <pt x="5" y="-196" on="1"/>
        <pt x="190" y="185" on="1"/>
        <pt x="129" y="322" on="0"/>
        <pt x="50" y="457" on="0"/>
        <pt x="2" y="510" on="1"/>
        <pt x="62" y="533" on="1"/>
        <pt x="106" y="482" on="0"/>
        <pt x="177" y="353" on="0"/>
        <pt x="224" y="233" on="1"/>
        <pt x="351" y="531" on="1"/>
        <pt x="416" y="524" on="1"/>
        <pt x="256" y="184" on="1"/>
      </contour>
    </TTGlyph>
    <TTGlyph name="chi.sc" xMin="10" yMin="0" xMax="447" yMax="562">
      <component glyphName="x.sc" x="0" y="0" flags="0x0"/>
    </TTGlyph>
    <TTGlyph name="circumflex" xMin="30" yMin="642" xMax="330" yMax="781">
      <contour>
        <pt x="30" y="674" on="1"/>
        <pt x="160" y="781" on="1"/>
        <pt x="199" y="781" on="1"/>
        <pt x="330" y="674" on="1"/>
        <pt x="302" y="642" on="1"/>
        <pt x="180" y="727" on="1"/>
        <pt x="57" y="642" on="1"/>
      </contour>
    </TTGlyph>
    <TTGlyph name="circumflex.case" xMin="30" yMin="762" xMax="330" yMax="896">
      <contour>
        <pt x="180" y="842" on="1"/>
        <pt x="58" y="762" on="1"/>
        <pt x="30" y="794" on="1"/>
        <pt x="161" y="896" on="1"/>
        <pt x="200" y="896" on="1"/>
        <pt x="330" y="794" on="1"/>
        <pt x="302" y="762" on="1"/>
      </contour>
    </TTGlyph>
    <TTGlyph name="circumflex.sc" xMin="30" yMin="672" xMax="330" yMax="811">
      <component glyphName="uni0302" x="360" y="30" flags="0x0"/>
    </TTGlyph>
    <TTGlyph name="colon" xMin="55" yMin="-11" xMax="156" yMax="89">
      <component glyphName="period" x="0" y="0" flags="0x0"/>
      <component glyphName="period" x="0" y="388" flags="0x0"/>
    </TTGlyph>
    <TTGlyph name="comma" xMin="38" yMin="-153" xMax="156" yMax="89">
      <contour>
        <pt x="127" y="89" on="0"/>
        <pt x="156" y="60" on="0"/>
        <pt x="156" y="39" on="1"/>
        <pt x="156" y="18" on="0"/>
        <pt x="141" y="-17" on="1"/>
        <pt x="83" y="-153" on="1"/>
        <pt x="38" y="-153" on="1"/>
        <pt x="78" y="-3" on="1"/>
        <pt x="67" y="3" on="0"/>
        <pt x="55" y="25" on="0"/>
        <pt x="55" y="39" on="1"/>
        <pt x="55" y="60" on="0"/>
        <pt x="83" y="89" on="0"/>
        <pt x="105" y="89" on="1"/>
      </contour>
    </TTGlyph>
    <TTGlyph name="copyright" xMin="107" yMin="132" xMax="703" yMax="737">
      <contour>
        <pt x="489" y="737" on="0"/>
        <pt x="624" y="658" on="0"/>
        <pt x="703" y="520" on="0"/>
        <pt x="703" y="434" on="1"/>
        <pt x="703" y="350" on="0"/>
        <pt x="624" y="212" on="0"/>
        <pt x="488" y="132" on="0"/>
        <pt x="406" y="132" on="1"/>
        <pt x="323" y="132" on="0"/>
        <pt x="186" y="211" on="0"/>
        <pt x="107" y="349" on="0"/>
        <pt x="107" y="434" on="1"/>
        <pt x="107" y="519" on="0"/>
        <pt x="186" y="658" on="0"/>
        <pt x="323" y="737" on="0"/>
        <pt x="406" y="737" on="1"/>
      </contour>
      <contour>
        <pt x="334" y="697" on="0"/>
        <pt x="219" y="628" on="0"/>
        <pt x="153" y="508" on="0"/>
        <pt x="153" y="434" on="1"/>
        <pt x="153" y="360" on="0"/>
        <pt x="219" y="241" on="0"/>
        <pt x="334" y="173" on="0"/>
        <pt x="406" y="173" on="1"/>
        <pt x="477" y="173" on="0"/>
        <pt x="592" y="241" on="0"/>
        <pt x="658" y="361" on="0"/>
        <pt x="658" y="434" on="1"/>
        <pt x="658" y="509" on="0"/>
        <pt x="592" y="629" on="0"/>
        <pt x="477" y="697" on="0"/>
        <pt x="406" y="697" on="1"/>
      </contour>
      <contour>
        <pt x="439" y="617" on="0"/>
        <pt x="487" y="600" on="0"/>
        <pt x="510" y="582" on="1"/>
        <pt x="484" y="546" on="1"/>
        <pt x="467" y="560" on="0"/>
        <pt x="432" y="572" on="0"/>
        <pt x="409" y="572" on="1"/>
        <pt x="368" y="572" on="0"/>
        <pt x="311" y="506" on="0"/>
        <pt x="311" y="436" on="1"/>
        <pt x="311" y="369" on="0"/>
        <pt x="365" y="299" on="0"/>
        <pt x="410" y="299" on="1"/>
        <pt x="435" y="299" on="0"/>
        <pt x="473" y="314" on="0"/>
        <pt x="493" y="329" on="1"/>
        <pt x="516" y="293" on="1"/>
        <pt x="468" y="253" on="0"/>
        <pt x="408" y="253" on="1"/>
        <pt x="340" y="253" on="0"/>
        <pt x="257" y="351" on="0"/>
        <pt x="257" y="436" on="1"/>
        <pt x="257" y="494" on="0"/>
        <pt x="299" y="576" on="0"/>
        <pt x="368" y="617" on="0"/>
        <pt x="407" y="617" on="1"/>
      </contour>
    </TTGlyph>
    <TTGlyph name="currency" xMin="45" yMin="100" xMax="511" yMax="581">
      <component glyphName="currency.lf" x="-2" y="0" flags="0x0"/>
    </TTGlyph>
    <TTGlyph name="currency.lf" xMin="47" yMin="100" xMax="513" yMax="581">
      <contour>
        <pt x="475" y="268" on="0"/>
        <pt x="435" y="216" on="1"/>
        <pt x="513" y="138" on="1"/>
        <pt x="475" y="100" on="1"/>
        <pt x="396" y="178" on="1"/>
        <pt x="346" y="144" on="0"/>
        <pt x="279" y="144" on="1"/>
        <pt x="214" y="144" on="0"/>
        <pt x="165" y="180" on="1"/>
        <pt x="85" y="100" on="1"/>
        <pt x="47" y="138" on="1"/>
        <pt x="127" y="218" on="1"/>
        <pt x="87" y="271" on="0"/>
        <pt x="87" y="341" on="1"/>
        <pt x="87" y="410" on="0"/>
        <pt x="126" y="463" on="1"/>
        <pt x="47" y="543" on="1"/>
        <pt x="85" y="581" on="1"/>
        <pt x="165" y="501" on="1"/>
        <pt x="212" y="537" on="0"/>
        <pt x="279" y="537" on="1"/>
        <pt x="347" y="537" on="0"/>
        <pt x="396" y="502" on="1"/>
        <pt x="475" y="581" on="1"/>
        <pt x="513" y="543" on="1"/>
        <pt x="435" y="465" on="1"/>
        <pt x="475" y="413" on="0"/>
        <pt x="475" y="341" on="1"/>
      </contour>
      <contour>
        <pt x="346" y="195" on="0"/>
        <pt x="415" y="274" on="0"/>
        <pt x="415" y="341" on="1"/>
        <pt x="415" y="409" on="0"/>
        <pt x="346" y="488" on="0"/>
        <pt x="281" y="488" on="1"/>
        <pt x="216" y="488" on="0"/>
        <pt x="147" y="409" on="0"/>
        <pt x="147" y="341" on="1"/>
        <pt x="147" y="274" on="0"/>
        <pt x="216" y="195" on="0"/>
        <pt x="281" y="195" on="1"/>
      </contour>
    </TTGlyph>
    <TTGlyph name="currency.osf" xMin="47" yMin="100" xMax="513" yMax="581">
      <component glyphName="currency.lf" x="0" y="0" flags="0x0"/>
    </TTGlyph>
    <TTGlyph name="currency.tosf" xMin="47" yMin="100" xMax="513" yMax="581">
      <component glyphName="currency.lf" x="0" y="0" flags="0x0"/>
    </TTGlyph>
    <TTGlyph name="d" xMin="68" yMin="-11" xMax="482" yMax="744">
      <contour>
        <pt x="482" y="737" on="1"/>
        <pt x="482" y="0" on="1"/>
        <pt x="428" y="0" on="1"/>
        <pt x="421" y="79" on="1"/>
        <pt x="396" y="37" on="0"/>
        <pt x="318" y="-11" on="0"/>
        <pt x="264" y="-11" on="1"/>
        <pt x="173" y="-11" on="0"/>
        <pt x="68" y="135" on="0"/>
        <pt x="68" y="260" on="1"/>
        <pt x="68" y="341" on="0"/>
        <pt x="118" y="465" on="0"/>
        <pt x="211" y="535" on="0"/>
        <pt x="274" y="535" on="1"/>
        <pt x="361" y="535" on="0"/>
        <pt x="420" y="464" on="1"/>
        <pt x="420" y="744" on="1"/>
      </contour>
      <contour>
        <pt x="324" y="40" on="0"/>
        <pt x="391" y="87" on="0"/>
        <pt x="420" y="135" on="1"/>
        <pt x="420" y="406" on="1"/>
        <pt x="366" y="483" on="0"/>
        <pt x="285" y="483" on="1"/>
        <pt x="216" y="483" on="0"/>
        <pt x="134" y="367" on="0"/>
        <pt x="134" y="261" on="1"/>
        <pt x="135" y="153" on="0"/>
        <pt x="209" y="40" on="0"/>
        <pt x="275" y="40" on="1"/>
      </contour>
    </TTGlyph>
    <TTGlyph name="d.sc" xMin="110" yMin="0" xMax="513" yMax="562">
      <contour>
        <pt x="358" y="562" on="0"/>
        <pt x="513" y="443" on="0"/>
        <pt x="513" y="286" on="1"/>
        <pt x="513" y="128" on="0"/>
        <pt x="356" y="0" on="0"/>
        <pt x="243" y="0" on="1"/>
        <pt x="110" y="0" on="1"/>
        <pt x="110" y="562" on="1"/>
        <pt x="233" y="562" on="1"/>
      </contour>
      <contour>
        <pt x="172" y="512" on="1"/>
        <pt x="172" y="50" on="1"/>
        <pt x="247" y="50" on="1"/>
        <pt x="448" y="50" on="0"/>
        <pt x="448" y="286" on="1"/>
        <pt x="448" y="420" on="0"/>
        <pt x="335" y="512" on="0"/>
        <pt x="241" y="512" on="1"/>
      </contour>
    </TTGlyph>
    <TTGlyph name="dagger" xMin="65" yMin="0" xMax="492" yMax="686">
      <contour>
        <pt x="308" y="533" on="1"/>
        <pt x="492" y="533" on="1"/>
        <pt x="492" y="480" on="1"/>
        <pt x="308" y="480" on="1"/>
        <pt x="308" y="0" on="1"/>
        <pt x="248" y="0" on="1"/>
        <pt x="248" y="480" on="1"/>
        <pt x="65" y="480" on="1"/>
        <pt x="65" y="533" on="1"/>
        <pt x="248" y="533" on="1"/>
        <pt x="248" y="686" on="1"/>
        <pt x="308" y="686" on="1"/>
      </contour>
    </TTGlyph>
    <TTGlyph name="dagger.lf" xMin="50" yMin="0" xMax="457" yMax="666">
      <contour>
        <pt x="284" y="513" on="1"/>
        <pt x="457" y="513" on="1"/>
        <pt x="457" y="460" on="1"/>
        <pt x="284" y="460" on="1"/>
        <pt x="284" y="0" on="1"/>
        <pt x="223" y="0" on="1"/>
        <pt x="223" y="460" on="1"/>
        <pt x="50" y="460" on="1"/>
        <pt x="50" y="513" on="1"/>
        <pt x="223" y="513" on="1"/>
        <pt x="223" y="666" on="1"/>
        <pt x="284" y="666" on="1"/>
      </contour>
    </TTGlyph>
    <TTGlyph name="dagger.osf" xMin="50" yMin="0" xMax="457" yMax="666">
      <component glyphName="dagger.lf" x="0" y="0" flags="0x0"/>
    </TTGlyph>
    <TTGlyph name="dagger.tosf" xMin="77" yMin="0" xMax="484" yMax="666">
      <component glyphName="dagger.lf" x="27" y="0" flags="0x0"/>
    </TTGlyph>
    <TTGlyph name="daggerdbl" xMin="63" yMin="0" xMax="492" yMax="686">
      <contour>
        <pt x="492" y="201" on="1"/>
        <pt x="306" y="201" on="1"/>
        <pt x="306" y="0" on="1"/>
        <pt x="246" y="0" on="1"/>
        <pt x="246" y="201" on="1"/>
        <pt x="65" y="201" on="1"/>
        <pt x="65" y="254" on="1"/>
        <pt x="246" y="254" on="1"/>
        <pt x="246" y="480" on="1"/>
        <pt x="63" y="480" on="1"/>
        <pt x="63" y="533" on="1"/>
        <pt x="246" y="533" on="1"/>
        <pt x="246" y="686" on="1"/>
        <pt x="306" y="686" on="1"/>
        <pt x="306" y="533" on="1"/>
        <pt x="490" y="533" on="1"/>
        <pt x="490" y="480" on="1"/>
        <pt x="306" y="480" on="1"/>
        <pt x="306" y="254" on="1"/>
        <pt x="492" y="254" on="1"/>
      </contour>
    </TTGlyph>
    <TTGlyph name="daggerdbl.lf" xMin="50" yMin="0" xMax="459" yMax="666">
      <contour>
        <pt x="459" y="172" on="1"/>
        <pt x="284" y="172" on="1"/>
        <pt x="284" y="0" on="1"/>
        <pt x="224" y="0" on="1"/>
        <pt x="224" y="172" on="1"/>
        <pt x="50" y="172" on="1"/>
        <pt x="50" y="225" on="1"/>
        <pt x="224" y="225" on="1"/>
        <pt x="224" y="460" on="1"/>
        <pt x="51" y="460" on="1"/>
        <pt x="51" y="513" on="1"/>
        <pt x="224" y="513" on="1"/>
        <pt x="224" y="666" on="1"/>
        <pt x="284" y="666" on="1"/>
        <pt x="284" y="513" on="1"/>
        <pt x="458" y="513" on="1"/>
        <pt x="458" y="460" on="1"/>
        <pt x="284" y="460" on="1"/>
        <pt x="284" y="225" on="1"/>
        <pt x="459" y="225" on="1"/>
      </contour>
    </TTGlyph>
    <TTGlyph name="daggerdbl.osf" xMin="50" yMin="0" xMax="459" yMax="666">
      <component glyphName="daggerdbl.lf" x="0" y="0" flags="0x0"/>
    </TTGlyph>
    <TTGlyph name="daggerdbl.tosf" xMin="75" yMin="0" xMax="484" yMax="666">
      <component glyphName="daggerdbl.lf" x="25" y="0" flags="0x0"/>
    </TTGlyph>
    <TTGlyph name="dcaron" xMin="68" yMin="-11" xMax="617" yMax="744">
      <component glyphName="d" x="0" y="0" flags="0x0"/>
      <component glyphName="caron.alt" x="475" y="51" flags="0x0"/>
    </TTGlyph>
    <TTGlyph name="dcaron.sc" xMin="110" yMin="0" xMax="513" yMax="801">
      <component glyphName="d.sc" x="0" y="0" flags="0x0"/>
      <component glyphName="uni030C.sc" x="97" y="0" flags="0x0"/>
    </TTGlyph>
    <TTGlyph name="dcroat" xMin="68" yMin="-11" xMax="559" yMax="744">
      <contour>
        <pt x="559" y="664" on="1"/>
        <pt x="559" y="615" on="1"/>
        <pt x="482" y="615" on="1"/>
        <pt x="482" y="0" on="1"/>
        <pt x="428" y="0" on="1"/>
        <pt x="421" y="79" on="1"/>
        <pt x="396" y="37" on="0"/>
        <pt x="318" y="-11" on="0"/>
        <pt x="264" y="-11" on="1"/>
        <pt x="173" y="-11" on="0"/>
        <pt x="68" y="135" on="0"/>
        <pt x="68" y="260" on="1"/>
        <pt x="68" y="341" on="0"/>
        <pt x="118" y="465" on="0"/>
        <pt x="211" y="535" on="0"/>
        <pt x="274" y="535" on="1"/>
        <pt x="361" y="535" on="0"/>
        <pt x="420" y="464" on="1"/>
        <pt x="420" y="615" on="1"/>
        <pt x="256" y="615" on="1"/>
        <pt x="256" y="664" on="1"/>
        <pt x="420" y="664" on="1"/>
        <pt x="420" y="744" on="1"/>
        <pt x="482" y="737" on="1"/>
        <pt x="482" y="664" on="1"/>
      </contour>
      <contour>
        <pt x="324" y="40" on="0"/>
        <pt x="391" y="87" on="0"/>
        <pt x="420" y="135" on="1"/>
        <pt x="420" y="406" on="1"/>
        <pt x="366" y="483" on="0"/>
        <pt x="285" y="483" on="1"/>
        <pt x="216" y="483" on="0"/>
        <pt x="134" y="367" on="0"/>
        <pt x="134" y="261" on="1"/>
        <pt x="135" y="153" on="0"/>
        <pt x="209" y="40" on="0"/>
        <pt x="275" y="40" on="1"/>
      </contour>
    </TTGlyph>
    <TTGlyph name="dcroat.sc" xMin="52" yMin="0" xMax="513" yMax="562">
      <component glyphName="eth.sc" x="0" y="0" flags="0x0"/>
    </TTGlyph>
    <TTGlyph name="degree" xMin="85" yMin="414" xMax="389" yMax="717">
      <component glyphName="degree.lf" x="18" y="20" flags="0x0"/>
    </TTGlyph>
    <TTGlyph name="degree.lf" xMin="67" yMin="394" xMax="371" yMax="697">
      <contour>
        <pt x="180" y="394" on="0"/>
        <pt x="110" y="430" on="0"/>
        <pt x="67" y="499" on="0"/>
        <pt x="67" y="545" on="1"/>
        <pt x="67" y="591" on="0"/>
        <pt x="110" y="660" on="0"/>
        <pt x="180" y="697" on="0"/>
        <pt x="219" y="697" on="1"/>
        <pt x="260" y="697" on="0"/>
        <pt x="330" y="660" on="0"/>
        <pt x="371" y="590" on="0"/>
        <pt x="371" y="544" on="1"/>
        <pt x="371" y="499" on="0"/>
        <pt x="330" y="430" on="0"/>
        <pt x="260" y="394" on="0"/>
        <pt x="219" y="394" on="1"/>
      </contour>
      <contour>
        <pt x="262" y="439" on="0"/>
        <pt x="317" y="496" on="0"/>
        <pt x="317" y="544" on="1"/>
        <pt x="317" y="593" on="0"/>
        <pt x="263" y="651" on="0"/>
        <pt x="219" y="651" on="1"/>
        <pt x="178" y="651" on="0"/>
        <pt x="122" y="594" on="0"/>
        <pt x="122" y="545" on="1"/>
        <pt x="122" y="497" on="0"/>
        <pt x="178" y="439" on="0"/>
        <pt x="219" y="439" on="1"/>
      </contour>
    </TTGlyph>
    <TTGlyph name="degree.osf" xMin="67" yMin="394" xMax="371" yMax="697">
      <component glyphName="degree.lf" x="0" y="0" flags="0x0"/>
    </TTGlyph>
    <TTGlyph name="degree.tosf" xMin="87" yMin="394" xMax="391" yMax="697">
      <component glyphName="degree.lf" x="20" y="0" flags="0x0"/>
    </TTGlyph>
    <TTGlyph name="delta" xMin="63" yMin="-11" xMax="506" yMax="744">
      <contour>
        <pt x="414" y="454" on="0"/>
        <pt x="506" y="340" on="0"/>
        <pt x="506" y="239" on="1"/>
        <pt x="506" y="126" on="0"/>
        <pt x="389" y="-11" on="0"/>
        <pt x="285" y="-11" on="1"/>
        <pt x="183" y="-11" on="0"/>
        <pt x="63" y="121" on="0"/>
        <pt x="63" y="238" on="1"/>
        <pt x="63" y="324" on="0"/>
        <pt x="147" y="443" on="0"/>
        <pt x="221" y="477" on="1"/>
        <pt x="166" y="503" on="0"/>
        <pt x="118" y="567" on="0"/>
        <pt x="118" y="612" on="1"/>
        <pt x="118" y="648" on="0"/>
        <pt x="158" y="708" on="0"/>
        <pt x="234" y="744" on="0"/>
        <pt x="285" y="744" on="1"/>
        <pt x="335" y="744" on="0"/>
        <pt x="414" y="720" on="0"/>
        <pt x="451" y="695" on="1"/>
        <pt x="418" y="655" on="1"/>
        <pt x="386" y="676" on="0"/>
        <pt x="329" y="693" on="0"/>
        <pt x="292" y="693" on="1"/>
        <pt x="238" y="693" on="0"/>
        <pt x="182" y="648" on="0"/>
        <pt x="182" y="611" on="1"/>
        <pt x="182" y="585" on="0"/>
        <pt x="203" y="550" on="0"/>
        <pt x="259" y="516" on="0"/>
        <pt x="313" y="495" on="1"/>
      </contour>
      <contour>
        <pt x="361" y="41" on="0"/>
        <pt x="439" y="141" on="0"/>
        <pt x="439" y="239" on="1"/>
        <pt x="439" y="298" on="0"/>
        <pt x="407" y="376" on="0"/>
        <pt x="333" y="433" on="0"/>
        <pt x="266" y="459" on="1"/>
        <pt x="129" y="392" on="0"/>
        <pt x="129" y="238" on="1"/>
        <pt x="129" y="142" on="0"/>
        <pt x="210" y="41" on="0"/>
        <pt x="285" y="41" on="1"/>
      </contour>
    </TTGlyph>
    <TTGlyph name="delta.sc" xMin="15" yMin="0" xMax="492" yMax="562">
      <contour>
        <pt x="492" y="0" on="1"/>
        <pt x="15" y="0" on="1"/>
        <pt x="216" y="562" on="1"/>
        <pt x="292" y="562" on="1"/>
      </contour>
      <contour>
        <pt x="93" y="51" on="1"/>
        <pt x="412" y="51" on="1"/>
        <pt x="253" y="512" on="1"/>
      </contour>
    </TTGlyph>
    <TTGlyph name="dieresis" xMin="30" yMin="662" xMax="306" yMax="745">
      <contour>
        <pt x="90" y="745" on="0"/>
        <pt x="114" y="721" on="0"/>
        <pt x="114" y="703" on="1"/>
        <pt x="114" y="686" on="0"/>
        <pt x="90" y="662" on="0"/>
        <pt x="72" y="662" on="1"/>
        <pt x="54" y="662" on="0"/>
        <pt x="30" y="686" on="0"/>
        <pt x="30" y="703" on="1"/>
        <pt x="30" y="721" on="0"/>
        <pt x="54" y="745" on="0"/>
        <pt x="72" y="745" on="1"/>
      </contour>
      <contour>
        <pt x="282" y="745" on="0"/>
        <pt x="306" y="721" on="0"/>
        <pt x="306" y="703" on="1"/>
        <pt x="306" y="686" on="0"/>
        <pt x="282" y="662" on="0"/>
        <pt x="264" y="662" on="1"/>
        <pt x="246" y="662" on="0"/>
        <pt x="222" y="686" on="0"/>
        <pt x="222" y="703" on="1"/>
        <pt x="222" y="721" on="0"/>
        <pt x="245" y="745" on="0"/>
        <pt x="264" y="745" on="1"/>
      </contour>
    </TTGlyph>
    <TTGlyph name="dieresis.case" xMin="30" yMin="788" xMax="306" yMax="871">
      <component glyphName="uni0308" x="336" y="126" flags="0x0"/>
    </TTGlyph>
    <TTGlyph name="dieresis.sc" xMin="30" yMin="692" xMax="306" yMax="775">
      <component glyphName="uni0308" x="336" y="30" flags="0x0"/>
    </TTGlyph>
    <TTGlyph name="dieresistonos" xMin="30" yMin="632" xMax="306" yMax="876">
      <contour>
        <pt x="238" y="862" on="1"/>
        <pt x="187" y="718" on="1"/>
        <pt x="145" y="725" on="1"/>
        <pt x="174" y="876" on="1"/>
      </contour>
      <contour>
        <pt x="90" y="715" on="0"/>
        <pt x="114" y="691" on="0"/>
        <pt x="114" y="673" on="1"/>
        <pt x="114" y="656" on="0"/>
        <pt x="90" y="632" on="0"/>
        <pt x="72" y="632" on="1"/>
        <pt x="54" y="632" on="0"/>
        <pt x="30" y="656" on="0"/>
        <pt x="30" y="673" on="1"/>
        <pt x="30" y="691" on="0"/>
        <pt x="54" y="715" on="0"/>
        <pt x="72" y="715" on="1"/>
      </contour>
      <contour>
        <pt x="282" y="715" on="0"/>
        <pt x="306" y="691" on="0"/>
        <pt x="306" y="673" on="1"/>
        <pt x="306" y="656" on="0"/>
        <pt x="282" y="632" on="0"/>
        <pt x="264" y="632" on="1"/>
        <pt x="246" y="632" on="0"/>
        <pt x="222" y="656" on="0"/>
        <pt x="222" y="673" on="1"/>
        <pt x="222" y="691" on="0"/>
        <pt x="245" y="715" on="0"/>
        <pt x="264" y="715" on="1"/>
      </contour>
    </TTGlyph>
    <TTGlyph name="divide" xMin="99" yMin="62" xMax="457" yMax="602">
      <contour>
        <pt x="300" y="602" on="0"/>
        <pt x="329" y="573" on="0"/>
        <pt x="329" y="552" on="1"/>
        <pt x="329" y="531" on="0"/>
        <pt x="300" y="502" on="0"/>
        <pt x="278" y="502" on="1"/>
        <pt x="256" y="502" on="0"/>
        <pt x="228" y="531" on="0"/>
        <pt x="228" y="552" on="1"/>
        <pt x="228" y="573" on="0"/>
        <pt x="256" y="602" on="0"/>
        <pt x="278" y="602" on="1"/>
      </contour>
      <contour>
        <pt x="99" y="358" on="1"/>
        <pt x="457" y="358" on="1"/>
        <pt x="457" y="305" on="1"/>
        <pt x="99" y="305" on="1"/>
      </contour>
      <contour>
        <pt x="300" y="162" on="0"/>
        <pt x="329" y="133" on="0"/>
        <pt x="329" y="112" on="1"/>
        <pt x="329" y="91" on="0"/>
        <pt x="300" y="62" on="0"/>
        <pt x="278" y="62" on="1"/>
        <pt x="256" y="62" on="0"/>
        <pt x="228" y="91" on="0"/>
        <pt x="228" y="112" on="1"/>
        <pt x="228" y="133" on="0"/>
        <pt x="256" y="162" on="0"/>
        <pt x="278" y="162" on="1"/>
      </contour>
    </TTGlyph>
    <TTGlyph name="divide.lf" xMin="68" yMin="62" xMax="426" yMax="358">
      <component glyphName="period" x="142" y="73" flags="0x0"/>
      <component glyphName="period" x="142" y="513" flags="0x0"/>
      <component glyphName="minus.lf" x="0" y="0" flags="0x0"/>
    </TTGlyph>
    <TTGlyph name="divide.osf" xMin="68" yMin="62" xMax="426" yMax="602">
      <contour>
        <pt x="269" y="602" on="0"/>
        <pt x="298" y="573" on="0"/>
        <pt x="298" y="552" on="1"/>
        <pt x="298" y="531" on="0"/>
        <pt x="269" y="502" on="0"/>
        <pt x="247" y="502" on="1"/>
        <pt x="225" y="502" on="0"/>
        <pt x="197" y="531" on="0"/>
        <pt x="197" y="552" on="1"/>
        <pt x="197" y="573" on="0"/>
        <pt x="225" y="602" on="0"/>
        <pt x="247" y="602" on="1"/>
      </contour>
      <contour>
        <pt x="68" y="358" on="1"/>
        <pt x="426" y="358" on="1"/>
        <pt x="426" y="305" on="1"/>
        <pt x="68" y="305" on="1"/>
      </contour>
      <contour>
        <pt x="269" y="162" on="0"/>
        <pt x="298" y="133" on="0"/>
        <pt x="298" y="112" on="1"/>
        <pt x="298" y="91" on="0"/>
        <pt x="269" y="62" on="0"/>
        <pt x="247" y="62" on="1"/>
        <pt x="225" y="62" on="0"/>
        <pt x="197" y="91" on="0"/>
        <pt x="197" y="112" on="1"/>
        <pt x="197" y="133" on="0"/>
        <pt x="225" y="162" on="0"/>
        <pt x="247" y="162" on="1"/>
      </contour>
    </TTGlyph>
    <TTGlyph name="divide.tosf" xMin="101" yMin="62" xMax="459" yMax="602">
      <contour>
        <pt x="302" y="602" on="0"/>
        <pt x="331" y="573" on="0"/>
        <pt x="331" y="552" on="1"/>
        <pt x="331" y="531" on="0"/>
        <pt x="302" y="502" on="0"/>
        <pt x="280" y="502" on="1"/>
        <pt x="258" y="502" on="0"/>
        <pt x="230" y="531" on="0"/>
        <pt x="230" y="552" on="1"/>
        <pt x="230" y="573" on="0"/>
        <pt x="258" y="602" on="0"/>
        <pt x="280" y="602" on="1"/>
      </contour>
      <contour>
        <pt x="101" y="358" on="1"/>
        <pt x="459" y="358" on="1"/>
        <pt x="459" y="305" on="1"/>
        <pt x="101" y="305" on="1"/>
      </contour>
      <contour>
        <pt x="302" y="162" on="0"/>
        <pt x="331" y="133" on="0"/>
        <pt x="331" y="112" on="1"/>
        <pt x="331" y="91" on="0"/>
        <pt x="302" y="62" on="0"/>
        <pt x="280" y="62" on="1"/>
        <pt x="258" y="62" on="0"/>
        <pt x="230" y="91" on="0"/>
        <pt x="230" y="112" on="1"/>
        <pt x="230" y="133" on="0"/>
        <pt x="258" y="162" on="0"/>
        <pt x="280" y="162" on="1"/>
      </contour>
    </TTGlyph>
    <TTGlyph name="dollar" xMin="45" yMin="-151" xMax="488" yMax="844">
      <contour>
        <pt x="488" y="111" on="0"/>
        <pt x="388" y="6" on="0"/>
        <pt x="302" y="-5" on="1"/>
        <pt x="302" y="-151" on="1"/>
        <pt x="248" y="-151" on="1"/>
        <pt x="248" y="-7" on="1"/>
        <pt x="128" y="-1" on="0"/>
        <pt x="45" y="77" on="1"/>
        <pt x="82" y="118" on="1"/>
        <pt x="120" y="83" on="0"/>
        <pt x="205" y="47" on="0"/>
        <pt x="261" y="47" on="1"/>
        <pt x="333" y="47" on="0"/>
        <pt x="423" y="121" on="0"/>
        <pt x="423" y="187" on="1"/>
        <pt x="423" y="227" on="0"/>
        <pt x="394" y="279" on="0"/>
        <pt x="327" y="317" on="0"/>
        <pt x="265" y="337" on="1"/>
        <pt x="161" y="369" on="0"/>
        <pt x="72" y="452" on="0"/>
        <pt x="72" y="523" on="1"/>
        <pt x="72" y="591" on="0"/>
        <pt x="169" y="683" on="0"/>
        <pt x="248" y="689" on="1"/>
        <pt x="248" y="844" on="1"/>
        <pt x="302" y="844" on="1"/>
        <pt x="302" y="689" on="1"/>
        <pt x="353" y="685" on="0"/>
        <pt x="430" y="649" on="0"/>
        <pt x="467" y="616" on="1"/>
        <pt x="430" y="574" on="1"/>
        <pt x="393" y="608" on="0"/>
        <pt x="320" y="637" on="0"/>
        <pt x="273" y="637" on="1"/>
        <pt x="212" y="637" on="0"/>
        <pt x="136" y="577" on="0"/>
        <pt x="136" y="525" on="1"/>
        <pt x="136" y="490" on="0"/>
        <pt x="164" y="444" on="0"/>
        <pt x="230" y="408" on="0"/>
        <pt x="292" y="389" on="1"/>
        <pt x="358" y="369" on="0"/>
        <pt x="442" y="323" on="0"/>
        <pt x="488" y="247" on="0"/>
        <pt x="488" y="189" on="1"/>
      </contour>
    </TTGlyph>
    <TTGlyph name="dollar.lf" xMin="37" yMin="-151" xMax="474" yMax="819">
      <contour>
        <pt x="474" y="105" on="0"/>
        <pt x="376" y="2" on="0"/>
        <pt x="292" y="-9" on="1"/>
        <pt x="292" y="-151" on="1"/>
        <pt x="237" y="-151" on="1"/>
        <pt x="237" y="-11" on="1"/>
        <pt x="121" y="-7" on="0"/>
        <pt x="37" y="72" on="1"/>
        <pt x="74" y="112" on="1"/>
        <pt x="111" y="78" on="0"/>
        <pt x="196" y="42" on="0"/>
        <pt x="250" y="42" on="1"/>
        <pt x="321" y="42" on="0"/>
        <pt x="410" y="116" on="0"/>
        <pt x="410" y="180" on="1"/>
        <pt x="410" y="220" on="0"/>
        <pt x="381" y="271" on="0"/>
        <pt x="315" y="308" on="0"/>
        <pt x="254" y="327" on="1"/>
        <pt x="152" y="359" on="0"/>
        <pt x="64" y="440" on="0"/>
        <pt x="64" y="510" on="1"/>
        <pt x="64" y="578" on="0"/>
        <pt x="159" y="668" on="0"/>
        <pt x="237" y="675" on="1"/>
        <pt x="237" y="819" on="1"/>
        <pt x="292" y="819" on="1"/>
        <pt x="292" y="674" on="1"/>
        <pt x="342" y="670" on="0"/>
        <pt x="418" y="634" on="0"/>
        <pt x="454" y="602" on="1"/>
        <pt x="417" y="561" on="1"/>
        <pt x="382" y="594" on="0"/>
        <pt x="308" y="623" on="0"/>
        <pt x="262" y="623" on="1"/>
        <pt x="202" y="623" on="0"/>
        <pt x="127" y="564" on="0"/>
        <pt x="127" y="512" on="1"/>
        <pt x="127" y="478" on="0"/>
        <pt x="155" y="434" on="0"/>
        <pt x="220" y="398" on="0"/>
        <pt x="281" y="380" on="1"/>
        <pt x="347" y="360" on="0"/>
        <pt x="429" y="313" on="0"/>
        <pt x="474" y="239" on="0"/>
        <pt x="474" y="182" on="1"/>
      </contour>
    </TTGlyph>
    <TTGlyph name="dollar.osf" xMin="37" yMin="-151" xMax="474" yMax="819">
      <component glyphName="dollar.lf" x="0" y="0" flags="0x0"/>
    </TTGlyph>
    <TTGlyph name="dollar.tosf" xMin="51" yMin="-151" xMax="483" yMax="824">
      <contour>
        <pt x="483" y="106" on="0"/>
        <pt x="385" y="3" on="0"/>
        <pt x="302" y="-8" on="1"/>
        <pt x="302" y="-151" on="1"/>
        <pt x="248" y="-151" on="1"/>
        <pt x="248" y="-10" on="1"/>
        <pt x="132" y="-4" on="0"/>
        <pt x="51" y="75" on="1"/>
        <pt x="87" y="115" on="1"/>
        <pt x="126" y="80" on="0"/>
        <pt x="211" y="43" on="0"/>
        <pt x="263" y="43" on="1"/>
        <pt x="332" y="43" on="0"/>
        <pt x="419" y="117" on="0"/>
        <pt x="419" y="183" on="1"/>
        <pt x="419" y="223" on="0"/>
        <pt x="389" y="274" on="0"/>
        <pt x="323" y="311" on="0"/>
        <pt x="263" y="330" on="1"/>
        <pt x="165" y="363" on="0"/>
        <pt x="79" y="443" on="0"/>
        <pt x="79" y="511" on="1"/>
        <pt x="79" y="578" on="0"/>
        <pt x="172" y="668" on="0"/>
        <pt x="248" y="676" on="1"/>
        <pt x="248" y="824" on="1"/>
        <pt x="303" y="824" on="1"/>
        <pt x="303" y="675" on="1"/>
        <pt x="353" y="671" on="0"/>
        <pt x="429" y="636" on="0"/>
        <pt x="464" y="603" on="1"/>
        <pt x="428" y="562" on="1"/>
        <pt x="394" y="595" on="0"/>
        <pt x="320" y="624" on="0"/>
        <pt x="275" y="624" on="1"/>
        <pt x="215" y="624" on="0"/>
        <pt x="141" y="565" on="0"/>
        <pt x="141" y="513" on="1"/>
        <pt x="141" y="479" on="0"/>
        <pt x="168" y="435" on="0"/>
        <pt x="231" y="401" on="0"/>
        <pt x="290" y="382" on="1"/>
        <pt x="355" y="361" on="0"/>
        <pt x="436" y="316" on="0"/>
        <pt x="483" y="242" on="0"/>
        <pt x="483" y="185" on="1"/>
      </contour>
    </TTGlyph>
    <TTGlyph name="dotaccent" xMin="30" yMin="668" xMax="122" yMax="756">
      <contour>
        <pt x="97" y="756" on="0"/>
        <pt x="122" y="731" on="0"/>
        <pt x="122" y="712" on="1"/>
        <pt x="122" y="693" on="0"/>
        <pt x="97" y="668" on="0"/>
        <pt x="76" y="668" on="1"/>
        <pt x="55" y="668" on="0"/>
        <pt x="30" y="693" on="0"/>
        <pt x="30" y="712" on="1"/>
        <pt x="30" y="731" on="0"/>
        <pt x="55" y="756" on="0"/>
        <pt x="76" y="756" on="1"/>
      </contour>
    </TTGlyph>
    <TTGlyph name="dotaccent.case" xMin="30" yMin="794" xMax="122" yMax="882">
      <component glyphName="uni0307" x="152" y="126" flags="0x0"/>
    </TTGlyph>
    <TTGlyph name="dotaccent.sc" xMin="30" yMin="698" xMax="122" yMax="786">
      <component glyphName="uni0307" x="152" y="30" flags="0x0"/>
    </TTGlyph>
    <TTGlyph name="dotbelowcomb" xMin="-122" yMin="-173" xMax="-30" yMax="-85">
      <contour>
        <pt x="-97" y="-173" on="0"/>
        <pt x="-122" y="-148" on="0"/>
        <pt x="-122" y="-129" on="1"/>
        <pt x="-122" y="-110" on="0"/>
        <pt x="-97" y="-85" on="0"/>
        <pt x="-76" y="-85" on="1"/>
        <pt x="-56" y="-85" on="0"/>
        <pt x="-30" y="-110" on="0"/>
        <pt x="-30" y="-129" on="1"/>
        <pt x="-30" y="-148" on="0"/>
        <pt x="-56" y="-173" on="0"/>
        <pt x="-76" y="-173" on="1"/>
      </contour>
    </TTGlyph>
    <TTGlyph name="dotlessi" xMin="105" yMin="0" xMax="167" yMax="524">
      <contour>
        <pt x="167" y="0" on="1"/>
        <pt x="105" y="0" on="1"/>
        <pt x="105" y="524" on="1"/>
        <pt x="167" y="524" on="1"/>
      </contour>
    </TTGlyph>
    <TTGlyph name="dotlessi.sc" xMin="110" yMin="0" xMax="172" yMax="562">
      <component glyphName="i.sc" x="0" y="0" flags="0x0"/>
    </TTGlyph>
    <TTGlyph name="dotmath" xMin="55" yMin="268" xMax="156" yMax="368">
      <component glyphName="periodcentered" x="0" y="0" flags="0x0"/>
    </TTGlyph>
    <TTGlyph name="e" xMin="63" yMin="-11" xMax="479" yMax="535">
      <contour>
        <pt x="479" y="258" on="0"/>
        <pt x="477" y="238" on="1"/>
        <pt x="129" y="238" on="1"/>
        <pt x="135" y="138" on="0"/>
        <pt x="221" y="41" on="0"/>
        <pt x="290" y="41" on="1"/>
        <pt x="331" y="41" on="0"/>
        <pt x="395" y="65" on="0"/>
        <pt x="430" y="92" on="1"/>
        <pt x="459" y="53" on="1"/>
        <pt x="420" y="22" on="0"/>
        <pt x="337" y="-11" on="0"/>
        <pt x="286" y="-11" on="1"/>
        <pt x="182" y="-11" on="0"/>
        <pt x="63" y="132" on="0"/>
        <pt x="63" y="257" on="1"/>
        <pt x="63" y="340" on="0"/>
        <pt x="115" y="466" on="0"/>
        <pt x="210" y="535" on="0"/>
        <pt x="274" y="535" on="1"/>
        <pt x="374" y="535" on="0"/>
        <pt x="479" y="400" on="0"/>
        <pt x="479" y="281" on="1"/>
      </contour>
      <contour>
        <pt x="417" y="300" on="1"/>
        <pt x="417" y="386" on="0"/>
        <pt x="346" y="483" on="0"/>
        <pt x="276" y="483" on="1"/>
        <pt x="212" y="483" on="0"/>
        <pt x="133" y="385" on="0"/>
        <pt x="129" y="285" on="1"/>
        <pt x="417" y="285" on="1"/>
      </contour>
    </TTGlyph>
    <TTGlyph name="e.sc" xMin="110" yMin="0" xMax="423" yMax="562">
      <contour>
        <pt x="411" y="512" on="1"/>
        <pt x="172" y="512" on="1"/>
        <pt x="172" y="316" on="1"/>
        <pt x="379" y="316" on="1"/>
        <pt x="379" y="266" on="1"/>
        <pt x="172" y="266" on="1"/>
        <pt x="172" y="50" on="1"/>
        <pt x="423" y="50" on="1"/>
        <pt x="423" y="0" on="1"/>
        <pt x="110" y="0" on="1"/>
        <pt x="110" y="562" on="1"/>
        <pt x="418" y="562" on="1"/>
      </contour>
    </TTGlyph>
    <TTGlyph name="eacute" xMin="63" yMin="-11" xMax="479" yMax="785">
      <component glyphName="e" x="0" y="0" flags="0x0"/>
      <component glyphName="acutecomb" x="411" y="0" flags="0x0"/>
    </TTGlyph>
    <TTGlyph name="eacute.sc" xMin="110" yMin="0" xMax="423" yMax="815">
      <component glyphName="e.sc" x="0" y="0" flags="0x0"/>
      <component glyphName="acutecomb.sc" x="128" y="0" flags="0x0"/>
    </TTGlyph>
    <TTGlyph name="ebreve" xMin="63" yMin="-11" xMax="479" yMax="774">
      <component glyphName="e" x="0" y="0" flags="0x0"/>
      <component glyphName="uni0306" x="439" y="0" flags="0x0"/>
    </TTGlyph>
    <TTGlyph name="ebreve.sc" xMin="110" yMin="0" xMax="423" yMax="804">
      <component glyphName="e.sc" x="0" y="0" flags="0x0"/>
      <component glyphName="uni0306.sc" x="102" y="0" flags="0x0"/>
    </TTGlyph>
    <TTGlyph name="ecaron" xMin="63" yMin="-11" xMax="479" yMax="771">
      <component glyphName="e" x="0" y="0" flags="0x0"/>
      <component glyphName="uni030C" x="457" y="0" flags="0x0"/>
    </TTGlyph>
    <TTGlyph name="ecaron.sc" xMin="110" yMin="0" xMax="423" yMax="801">
      <component glyphName="e.sc" x="0" y="0" flags="0x0"/>
      <component glyphName="uni030C.sc" x="86" y="0" flags="0x0"/>
    </TTGlyph>
    <TTGlyph name="ecircumflex" xMin="63" yMin="-11" xMax="479" yMax="781">
      <component glyphName="e" x="0" y="0" flags="0x0"/>
      <component glyphName="uni0302" x="457" y="0" flags="0x0"/>
    </TTGlyph>
    <TTGlyph name="ecircumflex.sc" xMin="110" yMin="0" xMax="423" yMax="811">
      <component glyphName="e.sc" x="0" y="0" flags="0x0"/>
      <component glyphName="uni0302.sc" x="86" y="0" flags="0x0"/>
    </TTGlyph>
    <TTGlyph name="edieresis" xMin="63" yMin="-11" xMax="479" yMax="745">
      <component glyphName="e" x="0" y="0" flags="0x0"/>
      <component glyphName="uni0308" x="444" y="0" flags="0x0"/>
    </TTGlyph>
    <TTGlyph name="edieresis.sc" xMin="110" yMin="0" xMax="423" yMax="775">
      <component glyphName="e.sc" x="0" y="0" flags="0x0"/>
      <component glyphName="uni0308.sc" x="97" y="0" flags="0x0"/>
    </TTGlyph>
    <TTGlyph name="edotaccent" xMin="63" yMin="-11" xMax="479" yMax="756">
      <component glyphName="e" x="0" y="0" flags="0x0"/>
      <component glyphName="uni0307" x="352" y="0" flags="0x0"/>
    </TTGlyph>
    <TTGlyph name="edotaccent.sc" xMin="110" yMin="0" xMax="423" yMax="786">
      <component glyphName="e.sc" x="0" y="0" flags="0x0"/>
      <component glyphName="uni0307.sc" x="189" y="0" flags="0x0"/>
    </TTGlyph>
    <TTGlyph name="egrave" xMin="63" yMin="-11" xMax="479" yMax="785">
      <component glyphName="e" x="0" y="0" flags="0x0"/>
      <component glyphName="gravecomb" x="420" y="0" flags="0x0"/>
    </TTGlyph>
    <TTGlyph name="egrave.sc" xMin="110" yMin="0" xMax="423" yMax="815">
      <component glyphName="e.sc" x="0" y="0" flags="0x0"/>
      <component glyphName="gravecomb.sc" x="129" y="0" flags="0x0"/>
    </TTGlyph>
    <TTGlyph name="eight" xMin="57" yMin="-11" xMax="498" yMax="697">
      <contour>
        <pt x="426" y="334" on="0"/>
        <pt x="498" y="248" on="0"/>
        <pt x="498" y="179" on="1"/>
        <pt x="498" y="122" on="0"/>
        <pt x="442" y="36" on="0"/>
        <pt x="341" y="-11" on="0"/>
        <pt x="276" y="-11" on="1"/>
        <pt x="211" y="-11" on="0"/>
        <pt x="111" y="36" on="0"/>
        <pt x="57" y="121" on="0"/>
        <pt x="57" y="177" on="1"/>
        <pt x="57" y="310" on="0"/>
        <pt x="201" y="366" on="1"/>
        <pt x="141" y="392" on="0"/>
        <pt x="86" y="467" on="0"/>
        <pt x="86" y="524" on="1"/>
        <pt x="86" y="578" on="0"/>
        <pt x="139" y="657" on="0"/>
        <pt x="227" y="697" on="0"/>
        <pt x="278" y="697" on="1"/>
        <pt x="329" y="697" on="0"/>
        <pt x="416" y="659" on="0"/>
        <pt x="470" y="581" on="0"/>
        <pt x="470" y="525" on="1"/>
        <pt x="470" y="471" on="0"/>
        <pt x="413" y="395" on="0"/>
        <pt x="350" y="363" on="1"/>
      </contour>
      <contour>
        <pt x="148" y="472" on="0"/>
        <pt x="205" y="414" on="0"/>
        <pt x="278" y="389" on="1"/>
        <pt x="305" y="380" on="1"/>
        <pt x="360" y="409" on="0"/>
        <pt x="408" y="474" on="0"/>
        <pt x="408" y="522" on="1"/>
        <pt x="408" y="582" on="0"/>
        <pt x="337" y="647" on="0"/>
        <pt x="278" y="647" on="1"/>
        <pt x="219" y="647" on="0"/>
        <pt x="148" y="583" on="0"/>
        <pt x="148" y="523" on="1"/>
      </contour>
      <contour>
        <pt x="347" y="41" on="0"/>
        <pt x="433" y="113" on="0"/>
        <pt x="433" y="177" on="1"/>
        <pt x="433" y="220" on="0"/>
        <pt x="403" y="276" on="0"/>
        <pt x="339" y="316" on="0"/>
        <pt x="282" y="335" on="1"/>
        <pt x="249" y="347" on="1"/>
        <pt x="182" y="321" on="0"/>
        <pt x="122" y="241" on="0"/>
        <pt x="122" y="177" on="1"/>
        <pt x="122" y="112" on="0"/>
        <pt x="205" y="41" on="0"/>
        <pt x="276" y="41" on="1"/>
      </contour>
    </TTGlyph>
    <TTGlyph name="eight.dnom" xMin="52" yMin="-8" xMax="347" yMax="422">
      <contour>
        <pt x="302" y="202" on="0"/>
        <pt x="347" y="149" on="0"/>
        <pt x="347" y="109" on="1"/>
        <pt x="347" y="57" on="0"/>
        <pt x="265" y="-8" on="0"/>
        <pt x="198" y="-8" on="1"/>
        <pt x="132" y="-8" on="0"/>
        <pt x="52" y="57" on="0"/>
        <pt x="52" y="107" on="1"/>
        <pt x="52" y="146" on="0"/>
        <pt x="99" y="204" on="0"/>
        <pt x="143" y="219" on="1"/>
        <pt x="106" y="237" on="0"/>
        <pt x="71" y="282" on="0"/>
        <pt x="71" y="316" on="1"/>
        <pt x="71" y="365" on="0"/>
        <pt x="146" y="422" on="0"/>
        <pt x="201" y="422" on="1"/>
        <pt x="254" y="422" on="0"/>
        <pt x="329" y="367" on="0"/>
        <pt x="329" y="317" on="1"/>
        <pt x="329" y="286" on="0"/>
        <pt x="292" y="240" on="0"/>
        <pt x="253" y="222" on="1"/>
      </contour>
      <contour>
        <pt x="124" y="289" on="0"/>
        <pt x="156" y="257" on="0"/>
        <pt x="196" y="243" on="1"/>
        <pt x="214" y="236" on="1"/>
        <pt x="247" y="252" on="0"/>
        <pt x="276" y="290" on="0"/>
        <pt x="276" y="315" on="1"/>
        <pt x="276" y="346" on="0"/>
        <pt x="235" y="381" on="0"/>
        <pt x="201" y="381" on="1"/>
        <pt x="166" y="381" on="0"/>
        <pt x="124" y="347" on="0"/>
        <pt x="124" y="316" on="1"/>
      </contour>
      <contour>
        <pt x="241" y="34" on="0"/>
        <pt x="292" y="73" on="0"/>
        <pt x="292" y="109" on="1"/>
        <pt x="292" y="142" on="0"/>
        <pt x="254" y="178" on="0"/>
        <pt x="207" y="194" on="1"/>
        <pt x="183" y="203" on="1"/>
        <pt x="143" y="188" on="0"/>
        <pt x="108" y="143" on="0"/>
        <pt x="108" y="108" on="1"/>
        <pt x="108" y="72" on="0"/>
        <pt x="158" y="34" on="0"/>
        <pt x="199" y="34" on="1"/>
      </contour>
    </TTGlyph>
    <TTGlyph name="eight.lf" xMin="52" yMin="-11" xMax="487" yMax="677">
      <contour>
        <pt x="416" y="323" on="0"/>
        <pt x="487" y="239" on="0"/>
        <pt x="487" y="174" on="1"/>
        <pt x="487" y="119" on="0"/>
        <pt x="431" y="35" on="0"/>
        <pt x="332" y="-11" on="0"/>
        <pt x="268" y="-11" on="1"/>
        <pt x="204" y="-11" on="0"/>
        <pt x="106" y="36" on="0"/>
        <pt x="52" y="119" on="0"/>
        <pt x="52" y="172" on="1"/>
        <pt x="52" y="299" on="0"/>
        <pt x="194" y="356" on="1"/>
        <pt x="135" y="382" on="0"/>
        <pt x="81" y="455" on="0"/>
        <pt x="81" y="509" on="1"/>
        <pt x="81" y="561" on="0"/>
        <pt x="134" y="637" on="0"/>
        <pt x="220" y="677" on="0"/>
        <pt x="270" y="677" on="1"/>
        <pt x="319" y="677" on="0"/>
        <pt x="406" y="639" on="0"/>
        <pt x="459" y="564" on="0"/>
        <pt x="459" y="510" on="1"/>
        <pt x="459" y="458" on="0"/>
        <pt x="402" y="384" on="0"/>
        <pt x="340" y="353" on="1"/>
      </contour>
      <contour>
        <pt x="143" y="461" on="0"/>
        <pt x="199" y="406" on="0"/>
        <pt x="266" y="381" on="1"/>
        <pt x="296" y="370" on="1"/>
        <pt x="350" y="399" on="0"/>
        <pt x="398" y="463" on="0"/>
        <pt x="398" y="508" on="1"/>
        <pt x="398" y="564" on="0"/>
        <pt x="329" y="627" on="0"/>
        <pt x="270" y="627" on="1"/>
        <pt x="213" y="627" on="0"/>
        <pt x="143" y="564" on="0"/>
        <pt x="143" y="508" on="1"/>
      </contour>
      <contour>
        <pt x="339" y="41" on="0"/>
        <pt x="423" y="111" on="0"/>
        <pt x="423" y="173" on="1"/>
        <pt x="423" y="213" on="0"/>
        <pt x="393" y="265" on="0"/>
        <pt x="331" y="304" on="0"/>
        <pt x="275" y="325" on="1"/>
        <pt x="242" y="338" on="1"/>
        <pt x="177" y="312" on="0"/>
        <pt x="117" y="232" on="0"/>
        <pt x="117" y="172" on="1"/>
        <pt x="117" y="110" on="0"/>
        <pt x="199" y="41" on="0"/>
        <pt x="269" y="41" on="1"/>
      </contour>
    </TTGlyph>
    <TTGlyph name="eight.numr" xMin="52" yMin="264" xMax="347" yMax="694">
      <component glyphName="eight.dnom" x="0" y="272" flags="0x0"/>
    </TTGlyph>
    <TTGlyph name="eight.osf" xMin="52" yMin="-11" xMax="487" yMax="677">
      <contour>
        <pt x="416" y="323" on="0"/>
        <pt x="487" y="239" on="0"/>
        <pt x="487" y="174" on="1"/>
        <pt x="487" y="119" on="0"/>
        <pt x="431" y="35" on="0"/>
        <pt x="332" y="-11" on="0"/>
        <pt x="268" y="-11" on="1"/>
        <pt x="204" y="-11" on="0"/>
        <pt x="106" y="36" on="0"/>
        <pt x="52" y="119" on="0"/>
        <pt x="52" y="172" on="1"/>
        <pt x="52" y="299" on="0"/>
        <pt x="194" y="356" on="1"/>
        <pt x="135" y="382" on="0"/>
        <pt x="81" y="455" on="0"/>
        <pt x="81" y="509" on="1"/>
        <pt x="81" y="561" on="0"/>
        <pt x="134" y="637" on="0"/>
        <pt x="220" y="677" on="0"/>
        <pt x="270" y="677" on="1"/>
        <pt x="319" y="677" on="0"/>
        <pt x="406" y="639" on="0"/>
        <pt x="459" y="564" on="0"/>
        <pt x="459" y="510" on="1"/>
        <pt x="459" y="458" on="0"/>
        <pt x="402" y="384" on="0"/>
        <pt x="340" y="353" on="1"/>
      </contour>
      <contour>
        <pt x="143" y="461" on="0"/>
        <pt x="199" y="406" on="0"/>
        <pt x="266" y="381" on="1"/>
        <pt x="296" y="370" on="1"/>
        <pt x="350" y="399" on="0"/>
        <pt x="398" y="463" on="0"/>
        <pt x="398" y="508" on="1"/>
        <pt x="398" y="564" on="0"/>
        <pt x="329" y="627" on="0"/>
        <pt x="270" y="627" on="1"/>
        <pt x="213" y="627" on="0"/>
        <pt x="143" y="564" on="0"/>
        <pt x="143" y="508" on="1"/>
      </contour>
      <contour>
        <pt x="339" y="41" on="0"/>
        <pt x="423" y="111" on="0"/>
        <pt x="423" y="173" on="1"/>
        <pt x="423" y="213" on="0"/>
        <pt x="393" y="265" on="0"/>
        <pt x="331" y="304" on="0"/>
        <pt x="275" y="325" on="1"/>
        <pt x="242" y="338" on="1"/>
        <pt x="177" y="312" on="0"/>
        <pt x="117" y="232" on="0"/>
        <pt x="117" y="172" on="1"/>
        <pt x="117" y="110" on="0"/>
        <pt x="199" y="41" on="0"/>
        <pt x="269" y="41" on="1"/>
      </contour>
    </TTGlyph>
    <TTGlyph name="eight.tosf" xMin="61" yMin="-11" xMax="502" yMax="677">
      <contour>
        <pt x="431" y="323" on="0"/>
        <pt x="502" y="239" on="0"/>
        <pt x="502" y="174" on="1"/>
        <pt x="502" y="119" on="0"/>
        <pt x="446" y="35" on="0"/>
        <pt x="345" y="-11" on="0"/>
        <pt x="280" y="-11" on="1"/>
        <pt x="215" y="-11" on="0"/>
        <pt x="115" y="36" on="0"/>
        <pt x="61" y="119" on="0"/>
        <pt x="61" y="172" on="1"/>
        <pt x="61" y="301" on="0"/>
        <pt x="205" y="356" on="1"/>
        <pt x="145" y="383" on="0"/>
        <pt x="90" y="456" on="0"/>
        <pt x="90" y="510" on="1"/>
        <pt x="90" y="561" on="0"/>
        <pt x="143" y="637" on="0"/>
        <pt x="232" y="677" on="0"/>
        <pt x="282" y="677" on="1"/>
        <pt x="332" y="677" on="0"/>
        <pt x="420" y="639" on="0"/>
        <pt x="474" y="564" on="0"/>
        <pt x="474" y="511" on="1"/>
        <pt x="474" y="459" on="0"/>
        <pt x="417" y="385" on="0"/>
        <pt x="355" y="354" on="1"/>
      </contour>
      <contour>
        <pt x="152" y="461" on="0"/>
        <pt x="208" y="406" on="0"/>
        <pt x="278" y="382" on="1"/>
        <pt x="310" y="370" on="1"/>
        <pt x="365" y="399" on="0"/>
        <pt x="413" y="463" on="0"/>
        <pt x="413" y="509" on="1"/>
        <pt x="413" y="564" on="0"/>
        <pt x="341" y="627" on="0"/>
        <pt x="282" y="627" on="1"/>
        <pt x="224" y="627" on="0"/>
        <pt x="152" y="564" on="0"/>
        <pt x="152" y="509" on="1"/>
      </contour>
      <contour>
        <pt x="352" y="41" on="0"/>
        <pt x="437" y="112" on="0"/>
        <pt x="437" y="173" on="1"/>
        <pt x="437" y="231" on="0"/>
        <pt x="370" y="295" on="0"/>
        <pt x="288" y="325" on="1"/>
        <pt x="252" y="338" on="1"/>
        <pt x="186" y="312" on="0"/>
        <pt x="126" y="232" on="0"/>
        <pt x="126" y="172" on="1"/>
        <pt x="126" y="110" on="0"/>
        <pt x="210" y="41" on="0"/>
        <pt x="281" y="41" on="1"/>
      </contour>
    </TTGlyph>
    <TTGlyph name="ellipsis" xMin="271" yMin="-11" xMax="372" yMax="89">
      <component glyphName="period" x="216" y="0" flags="0x0"/>
      <component glyphName="period" x="431" y="0" flags="0x0"/>
      <component glyphName="period" x="0" y="0" flags="0x0"/>
    </TTGlyph>
    <TTGlyph name="emacron" xMin="63" yMin="-11" xMax="479" yMax="724">
      <component glyphName="e" x="0" y="0" flags="0x0"/>
      <component glyphName="uni0304" x="428" y="0" flags="0x0"/>
    </TTGlyph>
    <TTGlyph name="emacron.sc" xMin="110" yMin="0" xMax="423" yMax="754">
      <component glyphName="e.sc" x="0" y="0" flags="0x0"/>
      <component glyphName="uni0304.sc" x="113" y="0" flags="0x0"/>
    </TTGlyph>
    <TTGlyph name="emdash" xMin="39" yMin="287" xMax="745" yMax="340">
      <contour>
        <pt x="39" y="340" on="1"/>
        <pt x="745" y="340" on="1"/>
        <pt x="745" y="287" on="1"/>
        <pt x="39" y="287" on="1"/>
      </contour>
    </TTGlyph>
    <TTGlyph name="emdash.case" xMin="39" yMin="332" xMax="745" yMax="385">
      <component glyphName="emdash" x="0" y="45" flags="0x0"/>
    </TTGlyph>
    <TTGlyph name="emptyset" xMin="84" yMin="-16" xMax="816" yMax="716">
      <contour>
        <pt x="742" y="587" on="0"/>
        <pt x="816" y="436" on="0"/>
        <pt x="816" y="349" on="1"/>
        <pt x="816" y="248" on="0"/>
        <pt x="718" y="81" on="0"/>
        <pt x="551" y="-16" on="0"/>
        <pt x="451" y="-16" on="1"/>
        <pt x="337" y="-16" on="0"/>
        <pt x="244" y="47" on="1"/>
        <pt x="200" y="-12" on="1"/>
        <pt x="147" y="-12" on="1"/>
        <pt x="209" y="73" on="1"/>
        <pt x="150" y="123" on="0"/>
        <pt x="84" y="267" on="0"/>
        <pt x="84" y="349" on="1"/>
        <pt x="84" y="450" on="0"/>
        <pt x="183" y="618" on="0"/>
        <pt x="351" y="716" on="0"/>
        <pt x="451" y="716" on="1"/>
        <pt x="554" y="716" on="0"/>
        <pt x="643" y="662" on="1"/>
        <pt x="680" y="712" on="1"/>
        <pt x="733" y="712" on="1"/>
        <pt x="678" y="637" on="1"/>
      </contour>
      <contour>
        <pt x="132" y="279" on="0"/>
        <pt x="187" y="155" on="0"/>
        <pt x="237" y="110" on="1"/>
        <pt x="616" y="626" on="1"/>
        <pt x="540" y="672" on="0"/>
        <pt x="451" y="672" on="1"/>
        <pt x="364" y="672" on="0"/>
        <pt x="217" y="585" on="0"/>
        <pt x="132" y="437" on="0"/>
        <pt x="132" y="349" on="1"/>
      </contour>
      <contour>
        <pt x="539" y="28" on="0"/>
        <pt x="684" y="114" on="0"/>
        <pt x="768" y="261" on="0"/>
        <pt x="768" y="349" on="1"/>
        <pt x="768" y="424" on="0"/>
        <pt x="706" y="555" on="0"/>
        <pt x="651" y="601" on="1"/>
        <pt x="270" y="83" on="1"/>
        <pt x="352" y="28" on="0"/>
        <pt x="451" y="28" on="1"/>
      </contour>
    </TTGlyph>
    <TTGlyph name="endash" xMin="39" yMin="286" xMax="481" yMax="340">
      <contour>
        <pt x="39" y="340" on="1"/>
        <pt x="481" y="340" on="1"/>
        <pt x="481" y="286" on="1"/>
        <pt x="39" y="286" on="1"/>
      </contour>
    </TTGlyph>
    <TTGlyph name="endash.case" xMin="39" yMin="331" xMax="481" yMax="385">
      <component glyphName="endash" x="0" y="45" flags="0x0"/>
    </TTGlyph>
    <TTGlyph name="eng" xMin="105" yMin="-206" xMax="484" yMax="535">
      <contour>
        <pt x="484" y="-69" on="1"/>
        <pt x="484" y="-136" on="0"/>
        <pt x="415" y="-206" on="0"/>
        <pt x="356" y="-206" on="1"/>
        <pt x="298" y="-206" on="0"/>
        <pt x="252" y="-172" on="1"/>
        <pt x="278" y="-132" on="1"/>
        <pt x="297" y="-143" on="0"/>
        <pt x="330" y="-155" on="0"/>
        <pt x="353" y="-155" on="1"/>
        <pt x="422" y="-155" on="0"/>
        <pt x="422" y="-73" on="1"/>
        <pt x="422" y="365" on="1"/>
        <pt x="422" y="428" on="0"/>
        <pt x="374" y="484" on="0"/>
        <pt x="326" y="484" on="1"/>
        <pt x="276" y="484" on="0"/>
        <pt x="200" y="429" on="0"/>
        <pt x="167" y="378" on="1"/>
        <pt x="167" y="0" on="1"/>
        <pt x="105" y="0" on="1"/>
        <pt x="105" y="524" on="1"/>
        <pt x="158" y="524" on="1"/>
        <pt x="164" y="436" on="1"/>
        <pt x="196" y="482" on="0"/>
        <pt x="284" y="535" on="0"/>
        <pt x="338" y="535" on="1"/>
        <pt x="409" y="535" on="0"/>
        <pt x="484" y="450" on="0"/>
        <pt x="484" y="374" on="1"/>
      </contour>
    </TTGlyph>
    <TTGlyph name="eng.sc" xMin="110" yMin="-206" xMax="508" yMax="562">
      <contour>
        <pt x="508" y="-69" on="1"/>
        <pt x="508" y="-136" on="0"/>
        <pt x="439" y="-206" on="0"/>
        <pt x="380" y="-206" on="1"/>
        <pt x="322" y="-206" on="0"/>
        <pt x="276" y="-172" on="1"/>
        <pt x="302" y="-132" on="1"/>
        <pt x="321" y="-143" on="0"/>
        <pt x="354" y="-155" on="0"/>
        <pt x="377" y="-155" on="1"/>
        <pt x="446" y="-155" on="0"/>
        <pt x="446" y="-73" on="1"/>
        <pt x="446" y="0" on="1"/>
        <pt x="425" y="0" on="1"/>
        <pt x="159" y="501" on="1"/>
        <pt x="163" y="446" on="0"/>
        <pt x="168" y="361" on="0"/>
        <pt x="168" y="291" on="1"/>
        <pt x="168" y="0" on="1"/>
        <pt x="110" y="0" on="1"/>
        <pt x="110" y="562" on="1"/>
        <pt x="190" y="562" on="1"/>
        <pt x="459" y="60" on="1"/>
        <pt x="456" y="87" on="0"/>
        <pt x="450" y="190" on="0"/>
        <pt x="450" y="242" on="1"/>
        <pt x="450" y="562" on="1"/>
        <pt x="508" y="562" on="1"/>
      </contour>
    </TTGlyph>
    <TTGlyph name="eng.sc.ss01" xMin="110" yMin="-206" xMax="507" yMax="573">
      <contour>
        <pt x="507" y="-136" on="0"/>
        <pt x="438" y="-206" on="0"/>
        <pt x="379" y="-206" on="1"/>
        <pt x="321" y="-206" on="0"/>
        <pt x="275" y="-172" on="1"/>
        <pt x="301" y="-132" on="1"/>
        <pt x="320" y="-143" on="0"/>
        <pt x="353" y="-155" on="0"/>
        <pt x="376" y="-155" on="1"/>
        <pt x="408" y="-155" on="0"/>
        <pt x="445" y="-116" on="0"/>
        <pt x="445" y="-73" on="1"/>
        <pt x="445" y="399" on="1"/>
        <pt x="445" y="465" on="0"/>
        <pt x="394" y="523" on="0"/>
        <pt x="343" y="523" on="1"/>
        <pt x="291" y="523" on="0"/>
        <pt x="210" y="469" on="0"/>
        <pt x="172" y="420" on="1"/>
        <pt x="172" y="0" on="1"/>
        <pt x="110" y="0" on="1"/>
        <pt x="110" y="562" on="1"/>
        <pt x="163" y="562" on="1"/>
        <pt x="169" y="474" on="1"/>
        <pt x="204" y="520" on="0"/>
        <pt x="297" y="573" on="0"/>
        <pt x="353" y="573" on="1"/>
        <pt x="429" y="573" on="0"/>
        <pt x="507" y="488" on="0"/>
        <pt x="507" y="408" on="1"/>
        <pt x="507" y="-69" on="1"/>
      </contour>
    </TTGlyph>
</ttFont>
